<svg xmlns="http://www.w3.org/2000/svg" xml:space="preserve" enable-background="new 0 0 2000 2000" viewBox="0 0 2000 2000" id="business-deal">
  <path fill="#dee7f5" fill-rule="evenodd" d="M1070.63,1062.93c1.77-0.96,3.3-1.93,4.65-2.91c0.4-1.17,0.64-2.48,0.69-3.93c0.13,1.18,0.24,2.27,0.09,3.36
		c3.27-2.48,5.41-4.96,7.3-7.36c0.1-1.91-0.19-3.95-0.86-6.12c0.83,1.73,1.31,3.52,1.45,5.36c2.88-3.74,5.36-7.28,10.71-10.35
		c-2.42,1.9-4.29,3.75-5.9,5.57c1.69-0.34,3.42-0.36,5.19-0.08c-2.18-0.02-4.14,0.27-5.88,0.88c-2.63,3.09-4.67,6.12-7.62,9.24
		c1.7-0.34,3.43-0.37,5.21-0.08c-2.25-0.02-4.26,0.29-6.03,0.93c-1.81,1.82-3.98,3.68-6.79,5.6
		C1072.11,1063,1071.38,1062.96,1070.63,1062.93z" clip-rule="evenodd"></path>
  <path fill="#e9eff8" fill-rule="evenodd" d="M1473.57,1407.87c311.07-153.71,201.67-449.17,88.14-616.75c-158.94-234.63-534.52-318.97-689.88-131.76
		c-210.86,254.1-424.14,193.99-496.88,359.72c-72.75,165.73,60.71,327.73,135.79,389.13c128.56-5.41,300.76-8.71,485.51-8.71
		C1181.01,1399.51,1346.01,1402.66,1473.57,1407.87L1473.57,1407.87z M717.56,754.01c-81.41,52.11-216.07,92.5-260.79,37.09
		c-33.41-41.39,7.74-119.06,88.34-177.94c80.54-58.84,188.46-94.46,247.27-51.13C862.18,613.45,780.26,713.88,717.56,754.01z" clip-rule="evenodd"></path>
  <path fill="#fff" fill-rule="evenodd" d="M1616.88,962.65c1.88,5.13-0.75,10.82-5.89,12.7c-5.13,1.88-10.82-0.75-12.7-5.89
		c-9.5-25.81-20.94-51.1-33.53-75.27c-13.96-26.79-29.19-51.98-44.69-74.86c-13.66-20.17-29.18-39.14-46.15-56.81
		c-17.57-18.28-36.71-35.14-57-50.47c-25.19-19.03-52.43-35.93-80.97-50.28c-28.47-14.3-58.37-26.15-88.97-35.13
		c-5.24-1.54-8.24-7.04-6.7-12.27s7.04-8.24,12.27-6.7c31.62,9.27,62.62,21.56,92.23,36.44c29.8,14.97,58.08,32.5,84.07,52.14
		c21.04,15.9,40.96,33.45,59.32,52.56c17.65,18.37,33.87,38.21,48.24,59.44c16.13,23.82,31.81,49.69,45.93,76.8
		C1595.26,909.86,1607.03,935.92,1616.88,962.65L1616.88,962.65z M1174.71,591.25c5.41,0.68,9.24,5.63,8.56,11.03
		c-0.68,5.41-5.63,9.24-11.03,8.56c-23.29-3.01-47.37-4.26-71.38-3.23c-22.08,0.95-44.12,3.85-65.47,9.09
		c-5.3,1.3-10.66-1.94-11.96-7.24c-1.3-5.3,1.94-10.66,7.24-11.96c22.61-5.55,45.95-8.62,69.34-9.63
		C1125.11,586.79,1150.31,588.09,1174.71,591.25L1174.71,591.25z M632.4,879.11c4.96-2.29,10.84-0.12,13.13,4.84
		c2.29,4.96,0.12,10.84-4.84,13.13c-19.44,8.94-38.36,16.89-57.27,24.84c-17.38,7.3-34.75,14.6-51.24,22.07
		c-11.3,5.12-22.55,10.46-33.15,16.24c-10.58,5.77-20.87,12.13-30.51,19.4c-4.36,3.29-10.57,2.43-13.86-1.94
		c-3.29-4.36-2.43-10.57,1.93-13.86c10.34-7.8,21.47-14.68,32.99-20.95c11.49-6.26,23.05-11.76,34.47-16.94
		c17.56-7.95,34.63-15.13,51.7-22.3C594.97,895.57,614.2,887.48,632.4,879.11L632.4,879.11z M426.44,992.57
		c3.44-4.23,9.67-4.87,13.9-1.43c4.23,3.44,4.87,9.67,1.43,13.9c-4.12,5.05-7.9,10.45-11.38,16.19c-3.49,5.79-6.6,11.8-9.34,18.05
		c-2.18,5-8.01,7.29-13.01,5.11s-7.29-8.01-5.11-13.01c3.17-7.23,6.66-14.01,10.51-20.38C417.3,1004.61,421.62,998.48,426.44,992.57
		L426.44,992.57z M787.77,605.26c1.22,5.32-2.11,10.63-7.43,11.85c-5.32,1.22-10.63-2.11-11.85-7.43c-0.27-1.18-0.88-2.26-1.7-3.26
		c-1.1-1.36-2.61-2.64-4.24-3.85c-6.67-4.91-15.11-7.53-24.05-8.68c-12.33-1.58-25.69-0.35-37.11,1.66
		c-16.17,2.85-32.55,7.9-48.45,14.33c-18.14,7.34-35.72,16.49-51.71,26.25c-4.66,2.84-10.75,1.37-13.59-3.29
		c-2.84-4.66-1.37-10.75,3.29-13.59c16.83-10.28,35.4-19.94,54.66-27.73c17.18-6.95,34.9-12.41,52.4-15.5
		c12.89-2.27,28.24-3.63,42.99-1.74c12.06,1.55,23.66,5.26,33.26,12.32l0.04,0.04c2.81,2.07,5.53,4.44,7.84,7.29
		C784.74,597.17,786.77,600.88,787.77,605.26L787.77,605.26z M546.14,651.09c4.19-3.48,10.42-2.91,13.9,1.28
		c3.48,4.19,2.91,10.42-1.28,13.9c-10.82,8.98-21.38,18.95-30.81,29.62c-8.34,9.43-15.77,19.38-21.68,29.62
		c-2.71,4.72-8.75,6.35-13.47,3.64c-4.72-2.71-6.35-8.75-3.64-13.47c6.63-11.5,14.85-22.53,24-32.88
		C523.28,671.36,534.58,660.69,546.14,651.09z" clip-rule="evenodd"></path>
  <path fill="#d0d9ee" fill-rule="evenodd" d="M540.8,1407.02c7.31-69.51-16.96-58.19-49.89-105.41c-13.59-19.48-13.02-36.92-3.56-57.69
		c6.21-13.63,12.51-30.59,4.99-44.93c-8.17-15.56-23.9-16.26-38.97-19.58c-38.71-8.54-51.06-40-70.54-70.03
		c-5.04-7.76-12.02-14.84-20.94-17.1c-42.93-10.91-58.21,59.02-40.95,86.57c10.78,17.21,27.67,28.68,38.63,45.99
		c9.79,15.47,9.61,27.69,7.81,45.03c-2.87,27.54,10.9,53.38,29.97,72.12c10.83,10.64,22.79,20.57,30.53,33.91
		c8.12,13.99,20.94,25.58,35.88,34.49C487.66,1409.18,513.41,1408.05,540.8,1407.02z" clip-rule="evenodd"></path>
  <path fill="#e9eff8" fill-rule="evenodd" d="M523.13,1407.7c-15.19-15.27-27.79-29.81-38.42-43.76c-0.48-12.09,1.05-25,4.61-38.7
		c-4.5,10.61-8.61,20.49-10.27,31.09c-23.51-32.54-36.56-61.87-47.4-89.78c4.47-18.08,12.91-36.29,25.32-54.63
		c-12.63,13.75-22.19,29.03-28.69,45.84c-16.37-43.22-29.45-83.43-70.79-127.45c17.26,24.72,29.46,47.34,39.4,69.02
		c-14.81-8.02-30.88-13.25-48.2-15.69c20.44,6.09,37.91,14.47,52.42,25.14c15.84,36.38,26.32,70.55,45.06,108.21
		c-14.86-8.08-30.99-13.35-48.38-15.79c21.03,6.27,38.92,14.96,53.67,26.07c13.18,24.84,30.34,51.36,55.2,81.11
		C512.06,1408.16,517.56,1407.93,523.13,1407.7z" clip-rule="evenodd"></path>
  <path fill="#bcc9e7" fill-rule="evenodd" d="M511.63,1408.18c-15.47-44.53-29.14-30.87-65.11-52.52c-15.36-9.24-20.29-21.5-20.08-38.84
		c0.14-11.37-0.68-25.09-10.27-32.67c-10.41-8.22-21.51-3.8-32.96-1.4c-29.41,6.17-47.57-11.76-70.23-26.47
		c-5.86-3.8-12.86-6.52-19.72-5.3c-33.06,5.85-22.28,59.04-1.92,72.73c12.73,8.56,27.92,11.22,40.79,19.79
		c11.51,7.65,15.12,16.17,19.16,28.74c6.42,19.98,23.85,33.57,42.78,40.59c1.29,0.48,2.58,0.94,3.88,1.4
		C430.63,1412.01,468.82,1409.97,511.63,1408.18z" clip-rule="evenodd"></path>
  <path fill="#dee7f5" fill-rule="evenodd" d="M478.92,1409.64c-6.27-2.91-12.14-5.88-17.66-8.89c-4.03-8.22-6.9-17.64-8.63-28.24
		c0.13,8.75,0.29,16.88,2.39,24.73c-26.22-15.19-44.22-31.42-60.24-47.36c-2.43-13.92-2.14-29.16,0.85-45.74
		c-4.55,13.46-6.5,27.02-5.87,40.7c-24.54-24.82-45.87-48.57-87.94-66.15c19.51,11.73,34.86,23.58,48.36,35.49
		c-12.7-0.93-25.43,0.46-38.17,4.18c16.02-2.16,30.68-1.82,43.98,1.04c22.08,20.24,39.77,40.64,64.26,60.86
		c-12.76-0.96-25.54,0.44-38.33,4.17c16.48-2.22,31.52-1.79,45.12,1.3c10.55,8.26,22.39,16.48,36.31,24.65
		C468.45,1410.15,473.64,1409.89,478.92,1409.64z" clip-rule="evenodd"></path>
  <path fill="#d0d9ee" fill-rule="evenodd" d="M1475.55,1406.96c-15.94-66.85,8.4-58.31,34.17-107.03c10.51-19.87,7.98-36.16-3.28-54.53
		c-7.39-12.05-15.25-27.23-9.83-41.56c5.88-15.55,20.55-18.06,34.3-22.94c35.33-12.55,43.3-43.51,58.13-73.96
		c3.84-7.87,9.58-15.33,17.68-18.5c39.02-15.27,61.38,48.54,48.35,76.4c-8.14,17.42-22.67,30.15-30.96,47.67
		c-7.41,15.66-5.85,27.1-2.16,43.16c5.86,25.5-4.1,51.35-19.83,71.18c-8.93,11.24-19.02,21.97-24.75,35.38
		c-8.58,20.09-26.7,36.72-47.41,48.21c-16.65-0.84-34.21-1.65-52.59-2.41L1475.55,1406.96z" clip-rule="evenodd"></path>
  <path fill="#e9eff8" fill-rule="evenodd" d="M1487.56,1408.46c14.41-18.08,25.86-34.91,35.12-50.78c-0.94-11.4-3.86-23.32-8.76-35.76
		c5.43,9.42,10.43,18.21,13.2,27.96c18.32-33.28,27.2-62.32,34.17-89.77c-6.27-16.43-16.28-32.52-30.02-48.28
		c13.41,11.41,24.14,24.62,32.17,39.63c10.4-42.46,18.06-81.71,51.78-127.86c-13.36,25.22-22.21,47.86-29.04,69.37
		c12.97-9.26,27.44-16.05,43.41-20.37c-18.47,8.12-33.9,18.02-46.29,29.73c-10.68,35.98-16.59,69.27-29.85,106.79
		c13.02-9.32,27.54-16.15,43.57-20.48c-19.01,8.35-34.79,18.59-47.35,30.75c-10.25,26.76-24.6,55.89-47.18,89.74
		C1497.58,1408.9,1492.61,1408.68,1487.56,1408.46z" clip-rule="evenodd"></path>
  <path fill="#bcc9e7" fill-rule="evenodd" d="M1457.55,1407.24c-2.36-10.79,3.37-19.12,3.19-39.11c-0.11-12.89-5.81-20.36-16.45-26.45
		c-6.98-4-15.04-9.43-16.22-18.13c-1.27-9.43,5.41-14.76,10.98-21.03c14.32-16.1,9.92-33.85,9.09-53.25
		c-0.22-5.02,0.64-10.35,3.85-14.19c15.43-18.5,43.98,7.32,45,24.92c0.65,11-3.18,21.42-2.59,32.51
		c0.54,9.91,4.43,15.22,10.63,22.25c9.87,11.17,11.89,26.91,9.37,41.22c-1.43,8.12-3.58,16.3-2.81,24.63
		c0.87,9.43-1.54,19.38-5.91,28.66C1490.29,1408.56,1474.25,1407.88,1457.55,1407.24z" clip-rule="evenodd"></path>
  <path fill="#dee7f5" fill-rule="evenodd" d="M1481.95,1408.22c0.51-5.14,0.82-10.04,0.97-14.72c-3.57-5.46-8.27-10.63-14.11-15.52
		c5.28,3.22,10.18,6.25,14.22,10.37c0.15-21.78-3.28-38.82-7.23-54.53c-7.61-6.5-17-11.8-28.17-15.89c9.83,2,18.8,5.66,26.9,10.96
		c-6.31-24.2-13.13-46.01-8.73-78.53c0.14,16.36,1.85,30.18,4.26,42.87c3.99-8.25,9.41-15.67,16.25-22.27
		c-7.07,9.2-12.12,18.46-15.15,27.77c4.41,21.02,10.48,39.37,14.02,61.88c3.99-8.29,9.43-15.75,16.3-22.37
		c-7.27,9.46-12.41,18.99-15.41,28.57c1.6,12.24,2.39,25.8,1.78,41.68L1481.95,1408.22z" clip-rule="evenodd"></path>
  <path fill="#99a9d4" fill-rule="evenodd" d="M1626.65 1086.13c-12.76-9.81-12.4-19.43-8.44-21.85 3.96-2.42 12.02 7.63 9.93 21.5.82 1.54 1.63 3.08 2.41 4.63 6.59 13.08 11.7 26.9 15.34 41.07 3.65 14.19 5.84 28.76 6.6 43.38.76 14.65.06 29.36-2.05 43.87-2.11 14.54-5.68 28.88-10.67 42.69-5 13.81-11.45 27.09-19.28 39.51-.52.82-1.83.09-1.32-.73.94-1.51 1.87-3.03 2.77-4.55 7.4-12.56 13.43-25.93 18.03-39.77 4.58-13.76 7.76-27.98 9.53-42.38 1.78-14.49 2.12-29.17 1.02-43.72-1.08-14.47-3.6-28.83-7.55-42.79-3.97-14.04-9.4-27.65-16.23-40.54C1626.69 1086.35 1626.66 1086.24 1626.65 1086.13L1626.65 1086.13zM1636.47 1100.26c0 0 4.56-2.47 8.34-6.24 1.88-1.88 3.52-4.08 4.3-6.46.78-2.38.69-4.93-1.04-7.35-3.4-4.86-6.74-2.57-8.98 2.24-1.14 2.41-1.93 5.39-2.46 8.53C1636.1 1094.13 1636.07 1097.33 1636.47 1100.26L1636.47 1100.26zM1635.86 1109.49c-.85-1.17-1.85-2.28-2.99-3.29-1.16-.99-2.43-1.89-3.73-2.66-2.58-1.56-5.44-2.57-7.94-2.97-4.99-.8-8.68.8-7.42 5.41.33 1.15.88 2.07 1.62 2.78.75.72 1.7 1.23 2.79 1.6 1.08.36 2.3.58 3.57.69 1.26.12 2.58.12 3.88.06C1630.86 1110.87 1635.86 1109.49 1635.86 1109.49L1635.86 1109.49zM1645.05 1123.93c0 0 4.81-1.9 8.99-5.17 2.09-1.64 4.01-3.63 5.09-5.9 1.06-2.26 1.2-4.77-.13-7.39-2.8-5.21-6.44-3.33-9.19 1.12-1.37 2.23-2.67 5.13-3.5 8.16-.41 1.51-.77 3.07-1 4.63C1645.08 1120.93 1644.98 1122.46 1645.05 1123.93L1645.05 1123.93zM1643.34 1133.01c-1.41-2.53-3.58-4.86-5.96-6.71-2.45-1.84-5.11-3.21-7.53-3.92-2.44-.7-4.65-.76-6.12-.06-1.49.71-2.22 2.14-1.92 4.54.68 4.74 5.91 6.16 11.18 6.55C1638.24 1133.79 1643.34 1133.01 1643.34 1133.01L1643.34 1133.01zM1650.73 1148.44c0 0 5.01-1.33 9.56-4.1 2.29-1.39 4.41-3.13 5.72-5.25 1.29-2.1 1.86-4.6.75-7.33-2.15-5.49-5.94-4.07-9.26.04-1.67 2.06-3.16 4.76-4.43 7.68-.62 1.46-1.14 2.96-1.52 4.47C1651.17 1145.46 1650.84 1146.98 1650.73 1148.44L1650.73 1148.44zM1648 1157.27c-.56-1.34-1.29-2.65-2.16-3.89-.87-1.24-1.92-2.41-3.01-3.47-1.1-1.06-2.25-2.01-3.43-2.82-1.2-.8-2.42-1.47-3.59-1.96-4.68-1.97-8.65-1.3-8.48 3.51.05 4.82 5.21 6.82 10.33 7.83C1642.81 1157.46 1648 1157.27 1648 1157.27L1648 1157.27zM1653.26 1169.62c0 0 1.29-.2 3.17-.66 1.88-.47 4.36-1.21 6.76-2.33 2.41-1.12 4.73-2.61 6.29-4.56 1.59-1.95 2.27-4.35 1.58-7.18-.69-2.84-2.15-4.02-3.77-4.03-1.64-.01-3.55 1.17-5.41 3.01-1.9 1.85-3.78 4.37-5.29 7.12C1655.05 1163.74 1653.78 1166.74 1653.26 1169.62zM477.57 1202.6c10.16-12.49 7.6-21.76 3.19-23.21-4.41-1.44-9.95 10.19-4.72 23.21-.45 1.68-.88 3.37-1.28 5.06-3.41 14.24-5.2 28.87-5.49 43.5-.29 14.65.93 29.33 3.55 43.74 2.63 14.43 6.69 28.59 12.08 42.23 5.4 13.66 12.16 26.8 20.2 39.1 8.04 12.3 17.37 23.73 27.85 34.03.69.68 1.8-.33 1.11-1.01-1.26-1.25-2.51-2.51-3.74-3.79-10.09-10.52-19.03-22.15-26.69-34.55-7.62-12.34-13.99-25.45-19.02-39.06-5.07-13.69-8.76-27.9-11.05-42.32-2.27-14.33-3.12-28.89-2.48-43.38.64-14.57 2.8-29.07 6.48-43.18C477.58 1202.82 477.59 1202.7 477.57 1202.6L477.57 1202.6zM471.26 1218.61c0 0-5-1.35-9.55-4.15-2.26-1.4-4.36-3.16-5.67-5.3-1.3-2.13-1.8-4.64-.68-7.38 2.19-5.51 5.97-4.05 9.26.11 1.67 2.08 3.12 4.8 4.35 7.74C470.21 1212.56 470.98 1215.66 471.26 1218.61L471.26 1218.61zM473.97 1227.45c.56-1.33 1.28-2.65 2.16-3.89.9-1.23 1.93-2.39 3.02-3.44 2.15-2.11 4.71-3.75 7.05-4.72 4.67-1.93 8.63-1.21 8.46 3.56-.06 1.19-.38 2.21-.94 3.08-.57.87-1.37 1.59-2.35 2.2-.97.61-2.11 1.09-3.32 1.49-1.2.4-2.48.71-3.76.95C479.16 1227.64 473.97 1227.45 473.97 1227.45L473.97 1227.45zM468.35 1243.61c0 0-5.12-.74-9.94-2.97-2.41-1.11-4.74-2.61-6.31-4.57-1.55-1.95-2.27-4.37-1.57-7.22 1.52-5.71 5.5-4.72 9.2-1.02 1.85 1.85 3.78 4.39 5.28 7.14.75 1.38 1.45 2.81 2.04 4.27C467.64 1240.7 468.08 1242.17 468.35 1243.61L468.35 1243.61zM472.1 1252.06c.79-2.79 2.37-5.55 4.26-7.9 1.96-2.35 4.24-4.3 6.42-5.55 2.21-1.24 4.35-1.8 5.94-1.46 1.61.34 2.66 1.57 2.92 3.98.43 4.77-4.34 7.36-9.38 8.95C477.24 1251.64 472.1 1252.06 472.1 1252.06L472.1 1252.06zM468.45 1268.77c0 0-5.18-.14-10.25-1.79-2.55-.83-5.01-2.04-6.77-3.79-1.74-1.75-2.87-4.05-2.42-6.96.83-5.83 4.85-5.33 9.02-2.09 2.1 1.62 4.17 3.9 6.07 6.45.94 1.28 1.79 2.62 2.51 4C467.34 1265.97 468.01 1267.37 468.45 1268.77L468.45 1268.77zM473.15 1276.74c.24-1.43.65-2.88 1.2-4.28.57-1.41 1.32-2.78 2.13-4.06.82-1.28 1.73-2.47 2.69-3.53.99-1.06 2.02-1.98 3.04-2.73 4.1-2.99 8.12-3.25 9.06 1.47 1.06 4.7-3.5 7.84-8.25 9.99C478.24 1275.73 473.15 1276.74 473.15 1276.74L473.15 1276.74zM470.87 1289.96c0 0-1.3.11-3.24.09-1.94-.02-4.52-.17-7.12-.71-2.59-.53-5.2-1.45-7.17-2.99-1.99-1.53-3.21-3.71-3.19-6.63.02-2.92 1.17-4.41 2.75-4.79 1.6-.38 3.73.32 5.96 1.68 2.27 1.36 4.68 3.38 6.79 5.71C467.77 1284.66 469.69 1287.28 470.87 1289.96z" clip-rule="evenodd"></path>
  <path fill="#bcc9e7" fill-rule="evenodd" d="M1501.21,1408.87c9.38-51.26,23.62-37.75,56.34-63.44c13.35-10.48,16.57-22.55,14.38-38.79
		c-1.44-10.65-2.24-23.61,5.89-31.85c8.82-8.93,19.74-6.09,30.76-5.17c28.29,2.34,43.27-16.61,62.84-33.07
		c5.06-4.25,11.31-7.62,17.89-7.29c31.68,1.61,27.68,52.77,10.15,67.99c-10.96,9.52-24.9,13.8-36,23.34
		c-9.91,8.53-12.32,16.94-14.67,29.21c-3.73,19.49-18.52,34.28-35.47,43.09c-9.62,5-19.88,9.28-27.94,16.78
		c-1.39,1.29-2.85,2.51-4.38,3.66c-23.99-1.52-50.64-2.95-79.64-4.26L1501.21,1408.87z" clip-rule="evenodd"></path>
  <path fill="#dee7f5" fill-rule="evenodd" d="M1516.38,1409.77c12.36-6.74,23.08-13.52,32.53-20.32c2.83-8.19,4.45-17.36,4.85-27.5
		c0.88,8.22,1.66,15.87,0.6,23.48c22.85-17.33,37.87-34.66,51.07-51.5c0.68-13.34-1.34-27.61-6.04-42.81
		c5.81,12.09,9.2,24.59,10.17,37.49c20.17-26.16,37.46-50.94,74.9-72.36c-16.95,13.29-29.99,26.21-41.29,38.97
		c11.81-2.37,23.91-2.55,36.28-0.55c-15.27-0.15-28.98,1.9-41.13,6.14c-18.39,21.58-32.64,42.78-53.29,64.63
		c11.86-2.39,24-2.59,36.43-0.58c-15.71-0.16-29.77,2.01-42.18,6.5c-12.69,12.74-27.84,25.73-47.51,39.16
		C1526.73,1410.28,1521.58,1410.02,1516.38,1409.77z" clip-rule="evenodd"></path>
  <ellipse cx="996.26" cy="1433.39" fill="#d0d9ee" fill-rule="evenodd" clip-rule="evenodd" rx="725.36" ry="33.88"></ellipse>
  <path fill="#d0d9ee" fill-rule="evenodd" d="M773.34 637.14c-1.01 0-1.83-.82-1.83-1.83 0-1.01.82-1.83 1.83-1.83l3.7.05c1.01.02 1.81.86 1.78 1.87-.02 1.01-.86 1.8-1.87 1.78L773.34 637.14 773.34 637.14zM756.99 634.43c1-.12 1.91.59 2.03 1.59.12 1-.59 1.91-1.6 2.03-1.2.14-2.39.29-3.58.46-1 .15-1.93-.54-2.07-1.54-.15-1 .54-1.93 1.54-2.07C754.54 634.72 755.77 634.57 756.99 634.43L756.99 634.43zM735.22 638.7c.97-.27 1.98.29 2.26 1.26.27.97-.29 1.98-1.26 2.26l-3.46 1.02c-.96.3-1.99-.24-2.29-1.2-.3-.96.24-1.99 1.2-2.29C732.85 639.38 734.04 639.03 735.22 638.7L735.22 638.7zM714.39 646.36c.91-.43 2-.03 2.43.88.43.91.03 2-.88 2.43-1.09.5-2.18 1.02-3.26 1.55-.9.45-2 .08-2.45-.82-.45-.9-.08-2 .82-2.45L714.39 646.36 714.39 646.36zM695.03 657.2c.83-.56 1.97-.34 2.54.49.56.83.34 1.97-.49 2.54l-2.97 2.04c-.82.58-1.96.39-2.55-.43-.58-.82-.39-1.96.43-2.55L695.03 657.2 695.03 657.2zM677.61 670.94c.74-.69 1.9-.65 2.58.09.69.74.64 1.9-.09 2.58l-2.62 2.48c-.72.7-1.88.69-2.58-.03-.71-.72-.69-1.88.03-2.58L677.61 670.94 677.61 670.94zM662.55 687.23c.62-.79 1.77-.93 2.57-.31.79.62.93 1.77.3 2.57-.75.94-1.47 1.89-2.19 2.84-.6.82-1.75.99-2.56.39-.81-.6-.99-1.75-.38-2.56C661.05 689.2 661.78 688.2 662.55 687.23L662.55 687.23zM650.21 705.67c.49-.88 1.61-1.2 2.49-.7.88.49 1.2 1.61.7 2.49-.59 1.04-1.15 2.1-1.72 3.16-.47.89-1.57 1.24-2.47.78-.89-.47-1.24-1.57-.78-2.46C649.02 707.84 649.6 706.74 650.21 705.67L650.21 705.67zM640.93 725.82c.35-.95 1.4-1.43 2.34-1.09.95.34 1.43 1.4 1.09 2.34l-1.2 3.39c-.32.96-1.36 1.48-2.31 1.16-.96-.32-1.47-1.35-1.16-2.31C640.12 728.19 640.5 726.97 640.93 725.82L640.93 725.82zM634.93 747.2c.19-.99 1.15-1.64 2.14-1.45.99.19 1.64 1.15 1.45 2.14l-.65 3.55c-.16 1-1.11 1.67-2.1 1.51-1-.16-1.67-1.1-1.51-2.1L634.93 747.2 634.93 747.2zM632.39 769.24c.03-1 .88-1.8 1.88-1.77 1.01.03 1.8.88 1.77 1.88l-.09 3.61c0 1.01-.83 1.82-1.84 1.82-1.01-.01-1.82-.83-1.82-1.84C632.31 771.71 632.34 770.47 632.39 769.24L632.39 769.24zM633.29 791.4c-.12-1 .59-1.91 1.59-2.03 1-.12 1.91.59 2.03 1.6.13 1.19.3 2.39.47 3.58.15 1-.55 1.93-1.54 2.07-1 .14-1.92-.55-2.07-1.54C633.6 793.85 633.42 792.63 633.29 791.4L633.29 791.4zM637.65 813.17c-.28-.97.28-1.98 1.24-2.26.97-.28 1.98.28 2.26 1.24.33 1.16.67 2.31 1.03 3.46.3.96-.23 1.99-1.19 2.29-.96.3-1.99-.23-2.29-1.19C638.33 815.54 637.98 814.35 637.65 813.17L637.65 813.17zM645.38 833.96c-.43-.91-.03-2 .88-2.43.91-.43 2-.03 2.43.88.5 1.09 1.02 2.17 1.56 3.24.45.9.09 2-.81 2.45-.9.45-2 .09-2.45-.81C646.42 836.23 645.89 835.06 645.38 833.96L645.38 833.96zM656.3 853.28c-.56-.83-.34-1.97.49-2.54.84-.56 1.97-.34 2.54.49.67.99 1.35 1.99 2.05 2.96.59.82.4 1.96-.41 2.55-.82.59-1.96.4-2.55-.41C657.69 855.32 656.98 854.3 656.3 853.28L656.3 853.28zM670.11 870.65c-.69-.74-.66-1.89.08-2.58.74-.69 1.89-.66 2.58.08l2.49 2.61c.71.72.7 1.88-.02 2.58-.72.71-1.87.7-2.58-.01C671.8 872.45 670.95 871.55 670.11 870.65L670.11 870.65zM686.45 885.65c-.8-.62-.94-1.77-.32-2.56.62-.8 1.77-.94 2.56-.32.95.74 1.9 1.47 2.87 2.19.81.6.98 1.74.38 2.56-.6.81-1.74.98-2.55.38L686.45 885.65 686.45 885.65zM704.94 897.92c-.88-.49-1.21-1.6-.72-2.48.49-.88 1.6-1.21 2.48-.72l3.18 1.71c.89.47 1.24 1.57.78 2.46-.47.89-1.57 1.24-2.47.78L704.94 897.92 704.94 897.92zM725.13 907.13c-.95-.34-1.44-1.39-1.1-2.34.34-.95 1.39-1.44 2.34-1.1l3.41 1.19c.96.31 1.47 1.35 1.16 2.31-.32.96-1.35 1.47-2.31 1.16L725.13 907.13 725.13 907.13zM746.52 913.04c-.99-.19-1.64-1.15-1.45-2.14.19-.99 1.15-1.64 2.14-1.45 1.17.23 2.38.4 3.54.63 1 .16 1.68 1.1 1.52 2.09-.16 1-1.1 1.68-2.09 1.52L746.52 913.04 746.52 913.04zM768.57 915.5c-1.01-.03-1.8-.88-1.77-1.88.03-1.01.88-1.8 1.88-1.77l3.61.07c1.01 0 1.82.83 1.82 1.84-.01 1.01-.83 1.82-1.84 1.82L768.57 915.5 768.57 915.5zM790.74 914.52c-1 .13-1.92-.58-2.04-1.58-.13-1 .58-1.92 1.58-2.04 1.19-.15 2.38-.31 3.57-.49 1-.15 1.93.53 2.08 1.53.15 1-.53 1.93-1.53 2.08C793.18 914.2 791.96 914.37 790.74 914.52L790.74 914.52zM812.47 910.08c-.97.28-1.98-.28-2.26-1.24-.28-.97.28-1.98 1.24-2.26 1.16-.33 2.31-.68 3.46-1.04.96-.3 1.99.23 2.29 1.19.3.96-.23 1.99-1.19 2.29C814.84 909.38 813.66 909.74 812.47 910.08L812.47 910.08zM833.25 902.26c-.91.43-2 .04-2.43-.87-.43-.91-.04-2 .87-2.43 1.09-.51 2.17-1.04 3.24-1.58.9-.45 2-.09 2.45.81.46.9.09 2-.81 2.45C835.47 901.2 834.36 901.74 833.25 902.26L833.25 902.26zM852.52 891.27c-.83.57-1.97.35-2.54-.48-.57-.84-.36-1.97.48-2.54l2.96-2.07c.82-.59 1.96-.4 2.55.41.59.82.4 1.96-.41 2.55L852.52 891.27 852.52 891.27zM869.84 877.4c-.74.69-1.89.66-2.58-.08-.69-.73-.66-1.89.08-2.58.87-.82 1.72-1.69 2.6-2.5.71-.71 1.87-.71 2.58 0 .71.71.71 1.87 0 2.58L869.84 877.4 869.84 877.4zM884.78 861c-.62.8-1.77.94-2.56.32-.8-.62-.94-1.77-.32-2.56l2.17-2.87c.59-.82 1.74-1 2.55-.4.81.59.99 1.74.4 2.55C886.29 859.04 885.53 860.02 884.78 861L884.78 861zM896.98 842.46c-.48.89-1.59 1.21-2.48.73-.89-.48-1.22-1.59-.74-2.48l1.7-3.18c.46-.9 1.56-1.25 2.46-.79s1.25 1.56.79 2.46L896.98 842.46 896.98 842.46zM906.11 822.24c-.34.95-1.39 1.44-2.34 1.1-.95-.34-1.44-1.39-1.1-2.34l1.17-3.4c.31-.96 1.34-1.48 2.3-1.17.96.31 1.48 1.34 1.17 2.3L906.11 822.24 906.11 822.24zM911.94 800.82c-.18.99-1.14 1.65-2.13 1.46-.99-.18-1.65-1.14-1.46-2.13l.62-3.55c.16-1 1.1-1.67 2.09-1.52 1 .16 1.67 1.1 1.52 2.09L911.94 800.82 911.94 800.82zM914.32 778.76c-.02 1.01-.86 1.81-1.87 1.78-1.01-.02-1.8-.86-1.78-1.87l.06-3.61c0-1.01.82-1.83 1.83-1.83s1.83.82 1.83 1.83L914.32 778.76 914.32 778.76zM913.26 756.61c.13 1-.58 1.92-1.58 2.04-1 .13-1.92-.58-2.04-1.58-.11-1.13-.3-2.44-.5-3.56-.16-1 .52-1.94 1.52-2.09 1-.16 1.94.52 2.09 1.52C912.92 754.14 913.13 755.41 913.26 756.61L913.26 756.61zM908.73 734.87c.29.97-.26 1.99-1.23 2.27-.97.29-1.99-.26-2.27-1.23l-1.06-3.45c-.31-.96.21-1.99 1.17-2.3.96-.31 1.99.21 2.3 1.17L908.73 734.87 908.73 734.87zM900.83 714.13c.44.91.06 2-.85 2.44-.91.44-2 .06-2.44-.85l-1.59-3.24c-.46-.9-.1-2 .79-2.46.9-.46 2-.1 2.46.79C899.76 711.91 900.3 713.02 900.83 714.13L900.83 714.13zM889.77 694.9c.57.83.37 1.97-.46 2.54-.83.57-1.97.37-2.54-.46l-2.08-2.95c-.6-.82-.41-1.96.4-2.55.82-.59 1.96-.41 2.55.4L889.77 694.9 889.77 694.9zM875.83 677.64c.7.73.67 1.89-.06 2.58-.73.7-1.89.67-2.58-.06l-2.51-2.59c-.71-.71-.71-1.87 0-2.58.71-.71 1.87-.71 2.58 0L875.83 677.64 875.83 677.64zM859.38 662.76c.8.61.95 1.76.34 2.56-.61.8-1.76.95-2.56.34l-2.89-2.17c-.81-.59-.99-1.74-.4-2.55.59-.82 1.74-1 2.55-.4L859.38 662.76 859.38 662.76zM840.8 650.64c.88.48 1.21 1.59.73 2.48-.48.88-1.59 1.21-2.48.73l-3.17-1.67c-.92-.46-1.28-1.56-.82-2.46.45-.9 1.55-1.26 2.46-.81C838.59 649.49 839.71 650.05 840.8 650.64L840.8 650.64zM820.54 641.58c.95.34 1.45 1.38 1.12 2.33-.34.95-1.38 1.45-2.33 1.12l-3.42-1.16c-.96-.31-1.48-1.34-1.17-2.3.31-.96 1.34-1.48 2.3-1.17C818.21 640.77 819.38 641.17 820.54 641.58L820.54 641.58zM799.09 635.83c1 .18 1.65 1.13 1.48 2.12-.18 1-1.13 1.66-2.12 1.48l-3.56-.61c-1-.15-1.68-1.09-1.53-2.08.15-1 1.09-1.68 2.08-1.53C796.67 635.4 797.88 635.62 799.09 635.83zM1308.86 692.45c-.99 0-1.79-.8-1.79-1.79 0-.99.8-1.79 1.79-1.79l3.63.05c.99.02 1.77.85 1.75 1.84-.02.99-.85 1.77-1.84 1.75L1308.86 692.45 1308.86 692.45zM1292.81 689.79c.98-.12 1.88.58 2 1.57.12.98-.59 1.88-1.57 2-1.17.14-2.34.28-3.51.45-.98.14-1.89-.53-2.04-1.51-.14-.98.54-1.89 1.51-2.03C1290.41 690.07 1291.61 689.93 1292.81 689.79L1292.81 689.79zM1271.43 693.99c.95-.27 1.94.28 2.21 1.24.27.95-.29 1.94-1.24 2.21l-3.4 1c-.95.3-1.95-.23-2.25-1.18-.3-.95.23-1.95 1.18-2.25C1269.1 694.65 1270.27 694.31 1271.43 693.99L1271.43 693.99zM1250.97 701.51c.9-.42 1.97-.03 2.39.87.42.9.03 1.97-.87 2.39-1.07.5-2.14 1-3.2 1.53-.89.44-1.97.08-2.41-.81-.44-.89-.08-1.97.81-2.41L1250.97 701.51 1250.97 701.51zM1231.96 712.16c.82-.55 1.94-.33 2.49.48.55.82.34 1.94-.48 2.49l-2.92 2.01c-.81.57-1.93.38-2.5-.42-.57-.81-.38-1.93.42-2.5L1231.96 712.16 1231.96 712.16zM1214.85 725.65c.73-.67 1.86-.63 2.54.09.67.73.63 1.86-.09 2.54l-2.57 2.44c-.71.69-1.84.68-2.54-.03-.69-.71-.68-1.84.03-2.54L1214.85 725.65 1214.85 725.65zM1200.05 741.65c.61-.78 1.74-.91 2.52-.3.78.61.91 1.74.3 2.52-.73.92-1.44 1.85-2.15 2.79-.59.8-1.72.97-2.52.38-.8-.59-.97-1.71-.38-2.51C1198.58 743.58 1199.29 742.6 1200.05 741.65L1200.05 741.65zM1187.94 759.76c.48-.86 1.58-1.17 2.44-.69.86.48 1.17 1.58.69 2.44-.58 1.03-1.13 2.07-1.69 3.11-.46.88-1.54 1.22-2.42.76-.88-.46-1.22-1.54-.76-2.42C1186.76 761.89 1187.34 760.82 1187.94 759.76L1187.94 759.76zM1178.81 779.56c.34-.93 1.37-1.41 2.3-1.07.93.34 1.41 1.37 1.07 2.3l-1.18 3.33c-.31.95-1.33 1.45-2.27 1.14-.94-.31-1.45-1.33-1.14-2.27C1178.03 781.88 1178.4 780.69 1178.81 779.56L1178.81 779.56zM1172.93 800.55c.18-.97 1.13-1.61 2.1-1.43.97.18 1.61 1.13 1.43 2.1l-.63 3.48c-.16.98-1.09 1.64-2.06 1.48-.98-.16-1.64-1.09-1.48-2.06L1172.93 800.55 1172.93 800.55zM1170.43 822.2c.03-.99.86-1.76 1.85-1.73.99.03 1.76.86 1.74 1.85l-.09 3.54c0 .99-.81 1.79-1.8 1.78-.99 0-1.79-.81-1.78-1.8C1170.35 824.62 1170.39 823.41 1170.43 822.2L1170.43 822.2zM1171.31 843.97c-.12-.98.58-1.88 1.57-2 .98-.12 1.88.59 2 1.57.13 1.17.3 2.34.46 3.51.14.98-.53 1.89-1.51 2.04-.98.14-1.89-.53-2.04-1.51C1171.62 846.37 1171.45 845.17 1171.31 843.97L1171.31 843.97zM1175.59 865.34c-.28-.95.27-1.95 1.22-2.22.95-.28 1.95.27 2.22 1.22.32 1.14.66 2.27 1.01 3.4.3.95-.22 1.95-1.17 2.25-.94.3-1.95-.23-2.25-1.17C1176.26 867.68 1175.92 866.51 1175.59 865.34L1175.59 865.34zM1183.19 885.77c-.42-.9-.03-1.97.87-2.39.9-.42 1.97-.03 2.39.86.49 1.07 1.01 2.14 1.53 3.19.44.88.09 1.96-.8 2.41-.89.45-1.97.09-2.41-.79C1184.21 887.99 1183.69 886.85 1183.19 885.77L1183.19 885.77zM1193.91 904.74c-.55-.82-.34-1.94.49-2.49.82-.55 1.94-.33 2.49.49.65.97 1.33 1.95 2.01 2.9.58.8.4 1.93-.41 2.51-.8.58-1.93.4-2.5-.41C1195.28 906.75 1194.58 905.75 1193.91 904.74L1193.91 904.74zM1207.48 921.81c-.68-.72-.64-1.86.08-2.54.72-.68 1.86-.64 2.54.08l2.45 2.56c.7.7.69 1.84-.01 2.54-.7.7-1.84.69-2.54-.01C1209.14 923.57 1208.3 922.69 1207.48 921.81L1207.48 921.81zM1223.53 936.54c-.78-.61-.92-1.73-.32-2.52.61-.78 1.73-.92 2.52-.32.93.73 1.87 1.45 2.82 2.15.8.59.97 1.71.38 2.51-.59.8-1.71.97-2.51.38L1223.53 936.54 1223.53 936.54zM1241.69 948.59c-.87-.48-1.19-1.57-.71-2.44.48-.87 1.57-1.19 2.44-.71l3.12 1.68c.88.46 1.22 1.54.76 2.42-.46.88-1.54 1.22-2.42.76L1241.69 948.59 1241.69 948.59zM1261.52 957.63c-.93-.33-1.42-1.37-1.08-2.3.33-.93 1.37-1.42 2.3-1.08l3.34 1.17c.94.31 1.45 1.33 1.14 2.27-.31.94-1.33 1.45-2.27 1.14L1261.52 957.63 1261.52 957.63zM1282.52 963.44c-.97-.18-1.61-1.13-1.43-2.1.18-.97 1.13-1.61 2.1-1.43 1.15.22 2.34.39 3.48.62.98.15 1.65 1.08 1.49 2.06-.15.98-1.08 1.65-2.05 1.49L1282.52 963.44 1282.52 963.44zM1304.18 965.86c-.99-.03-1.77-.86-1.74-1.85.03-.99.86-1.77 1.85-1.74l3.54.07c.99.01 1.79.81 1.78 1.81 0 .99-.81 1.79-1.8 1.78L1304.18 965.86 1304.18 965.86zM1325.96 964.89c-.98.12-1.88-.57-2.01-1.55-.13-.98.57-1.88 1.55-2.01 1.17-.14 2.34-.3 3.51-.48.98-.15 1.9.52 2.05 1.5.15.98-.52 1.9-1.5 2.05C1328.36 964.58 1327.16 964.74 1325.96 964.89L1325.96 964.89zM1347.31 960.53c-.95.28-1.95-.27-2.22-1.22-.28-.95.27-1.95 1.22-2.22 1.14-.32 2.27-.67 3.39-1.03.94-.3 1.95.22 2.25 1.17.3.94-.22 1.95-1.17 2.25C1349.63 959.84 1348.47 960.2 1347.31 960.53L1347.31 960.53zM1367.71 952.85c-.9.42-1.97.04-2.39-.85-.42-.9-.04-1.97.85-2.39 1.07-.5 2.13-1.01 3.19-1.55.88-.45 1.97-.09 2.41.79.45.88.09 1.96-.79 2.41C1369.9 951.81 1368.8 952.34 1367.71 952.85L1367.71 952.85zM1386.64 942.06c-.82.56-1.94.35-2.49-.47-.56-.82-.35-1.94.47-2.49l2.9-2.03c.8-.58 1.93-.4 2.5.41.58.8.4 1.93-.41 2.51L1386.64 942.06 1386.64 942.06zM1403.65 928.44c-.72.68-1.86.65-2.54-.08-.68-.72-.65-1.86.07-2.54.86-.8 1.69-1.66 2.55-2.45.7-.7 1.84-.7 2.54 0 .7.7.7 1.84 0 2.54L1403.65 928.44 1403.65 928.44zM1418.33 912.33c-.61.78-1.74.92-2.52.32-.78-.61-.92-1.73-.32-2.52l2.13-2.82c.58-.8 1.71-.98 2.51-.39.8.58.97 1.71.39 2.51C1419.8 910.4 1419.06 911.36 1418.33 912.33L1418.33 912.33zM1430.31 894.11c-.47.87-1.56 1.19-2.43.72-.87-.47-1.19-1.56-.72-2.43l1.67-3.13c.45-.88 1.53-1.23 2.42-.78.88.45 1.23 1.53.78 2.42L1430.31 894.11 1430.31 894.11zM1439.27 874.26c-.33.93-1.36 1.42-2.3 1.08-.93-.34-1.42-1.37-1.08-2.3l1.15-3.34c.31-.94 1.32-1.46 2.26-1.15.94.3 1.46 1.32 1.15 2.26L1439.27 874.26 1439.27 874.26zM1445 853.22c-.18.97-1.12 1.62-2.09 1.44-.97-.18-1.62-1.12-1.44-2.09l.61-3.49c.15-.98 1.08-1.64 2.06-1.49.98.15 1.65 1.08 1.49 2.05L1445 853.22 1445 853.22zM1447.34 831.55c-.02.99-.85 1.77-1.84 1.75-.99-.02-1.77-.85-1.75-1.84l.06-3.54c0-.99.8-1.79 1.79-1.79.99 0 1.79.8 1.79 1.79L1447.34 831.55 1447.34 831.55zM1446.29 809.79c.12.98-.57 1.88-1.55 2.01-.98.12-1.88-.57-2.01-1.55-.11-1.11-.3-2.4-.49-3.5-.15-.98.51-1.9 1.49-2.05.98-.16 1.9.51 2.06 1.49C1445.96 807.36 1446.17 808.61 1446.29 809.79L1446.29 809.79zM1441.85 788.45c.28.95-.26 1.95-1.21 2.23-.95.28-1.95-.26-2.23-1.21l-1.04-3.39c-.31-.94.21-1.96 1.15-2.26.94-.31 1.96.21 2.26 1.15L1441.85 788.45 1441.85 788.45zM1434.09 768.08c.43.89.05 1.97-.84 2.39-.89.43-1.97.05-2.39-.84l-1.56-3.18c-.45-.88-.1-1.96.78-2.41.88-.45 1.97-.1 2.42.78C1433.04 765.89 1433.57 766.98 1434.09 768.08L1434.09 768.08zM1423.22 749.18c.56.81.36 1.93-.45 2.5-.81.56-1.94.36-2.5-.45l-2.04-2.9c-.58-.8-.41-1.92.39-2.51.8-.58 1.92-.41 2.51.39L1423.22 749.18 1423.22 749.18zM1409.54 732.23c.68.72.65 1.85-.06 2.54s-1.85.65-2.54-.06l-2.47-2.54c-.7-.7-.7-1.84 0-2.54.7-.7 1.84-.7 2.54 0L1409.54 732.23 1409.54 732.23zM1393.37 717.62c.79.6.93 1.73.33 2.52-.6.78-1.73.93-2.52.33l-2.84-2.13c-.8-.58-.98-1.71-.39-2.51.58-.8 1.71-.98 2.51-.39L1393.37 717.62 1393.37 717.62zM1375.12 705.71c.87.47 1.19 1.57.72 2.43-.47.87-1.56 1.19-2.43.72l-3.11-1.64c-.9-.45-1.25-1.53-.81-2.42.45-.89 1.53-1.24 2.41-.8C1372.95 704.59 1374.06 705.14 1375.12 705.71L1375.12 705.71zM1355.22 696.81c.93.33 1.43 1.36 1.1 2.29-.33.93-1.35 1.43-2.29 1.1l-3.36-1.14c-.94-.3-1.46-1.32-1.15-2.26.3-.94 1.32-1.46 2.26-1.15C1352.93 696.02 1354.08 696.41 1355.22 696.81L1355.22 696.81zM1334.16 691.17c.98.17 1.63 1.11 1.46 2.08-.17.98-1.11 1.63-2.08 1.46l-3.5-.6c-.98-.15-1.65-1.07-1.5-2.05.15-.98 1.07-1.65 2.05-1.5C1331.78 690.74 1332.97 690.96 1334.16 691.17zM979.3 943.2c-.95 0-1.71-.77-1.71-1.71 0-.94.77-1.71 1.71-1.71l3.46.04c.95.02 1.69.81 1.67 1.75-.02.95-.81 1.69-1.75 1.67L979.3 943.2 979.3 943.2zM963.99 940.65c.94-.11 1.79.56 1.91 1.49.11.94-.56 1.79-1.5 1.91-1.12.13-2.24.27-3.35.43-.94.14-1.8-.51-1.94-1.45-.14-.93.51-1.8 1.44-1.94C961.7 940.93 962.85 940.78 963.99 940.65L963.99 940.65zM943.6 944.66c.91-.26 1.86.27 2.11 1.18.26.91-.27 1.86-1.18 2.11l-3.24.95c-.9.28-1.86-.22-2.14-1.13-.28-.9.22-1.86 1.13-2.14C941.38 945.29 942.49 944.97 943.6 944.66L943.6 944.66zM924.09 951.83c.85-.4 1.88-.03 2.28.82.4.86.03 1.88-.82 2.28-1.02.47-2.05.95-3.05 1.46-.85.42-1.88.07-2.3-.77-.42-.84-.07-1.87.77-2.29L924.09 951.83 924.09 951.83zM905.96 961.99c.78-.53 1.85-.32 2.37.46.53.78.32 1.85-.46 2.38l-2.79 1.91c-.77.55-1.84.37-2.39-.4-.54-.77-.37-1.84.4-2.38L905.96 961.99 905.96 961.99zM889.64 974.86c.69-.64 1.78-.6 2.42.09.64.69.6 1.77-.09 2.42l-2.45 2.33c-.67.66-1.76.65-2.42-.03-.66-.67-.65-1.76.03-2.42L889.64 974.86 889.64 974.86zM875.53 990.11c.58-.74 1.66-.87 2.4-.29.74.58.87 1.66.29 2.41-.7.88-1.38 1.77-2.05 2.66-.57.77-1.64.93-2.4.37-.76-.56-.92-1.64-.36-2.39C874.13 991.96 874.81 991.02 875.53 990.11L875.53 990.11zM863.97 1007.38c.46-.83 1.5-1.12 2.33-.66.83.46 1.12 1.5.66 2.33-.55.98-1.08 1.97-1.61 2.96-.44.84-1.47 1.16-2.31.73-.84-.44-1.16-1.47-.73-2.31C862.86 1009.42 863.4 1008.39 863.97 1007.38L863.97 1007.38zM855.27 1026.26c.33-.89 1.31-1.34 2.19-1.02.89.33 1.34 1.31 1.02 2.19l-1.12 3.18c-.3.9-1.27 1.39-2.17 1.09-.9-.3-1.38-1.27-1.08-2.16C854.53 1028.48 854.88 1027.34 855.27 1026.26L855.27 1026.26zM849.66 1046.28c.18-.93 1.07-1.54 2-1.36.93.18 1.53 1.07 1.36 2l-.6 3.32c-.15.93-1.04 1.56-1.97 1.41-.93-.16-1.56-1.04-1.41-1.97L849.66 1046.28 849.66 1046.28zM847.28 1066.93c.03-.94.82-1.68 1.76-1.65.94.03 1.69.82 1.66 1.76l-.08 3.38c-.01.95-.78 1.71-1.72 1.7-.94 0-1.71-.78-1.7-1.72C847.2 1069.24 847.24 1068.09 847.28 1066.93L847.28 1066.93zM848.12 1087.69c-.11-.94.56-1.79 1.49-1.91.94-.11 1.79.56 1.9 1.5.12 1.12.28 2.24.44 3.35.14.93-.51 1.8-1.44 1.94-.94.14-1.8-.51-1.94-1.44C848.41 1089.98 848.25 1088.83 848.12 1087.69L848.12 1087.69zM852.2 1108.08c-.26-.91.26-1.86 1.17-2.12.91-.26 1.86.26 2.12 1.17.31 1.08.63 2.17.97 3.24.28.9-.21 1.86-1.11 2.15-.9.28-1.86-.21-2.15-1.11C852.84 1110.3 852.52 1109.18 852.2 1108.08L852.2 1108.08zM859.45 1127.55c-.4-.86-.03-1.87.82-2.28.86-.4 1.88-.03 2.28.82.47 1.02.96 2.04 1.46 3.04.42.84.08 1.87-.76 2.3-.84.42-1.87.09-2.3-.76C860.43 1129.68 859.92 1128.59 859.45 1127.55L859.45 1127.55zM869.67 1145.65c-.53-.78-.32-1.85.46-2.38.78-.53 1.85-.32 2.38.46.62.93 1.26 1.86 1.92 2.77.55.77.38 1.84-.39 2.39-.77.55-1.84.38-2.39-.39C870.98 1147.56 870.32 1146.61 869.67 1145.65L869.67 1145.65zM882.61 1161.92c-.65-.69-.61-1.77.07-2.42.69-.65 1.77-.61 2.42.07l2.34 2.44c.66.67.66 1.75-.01 2.42-.67.66-1.75.66-2.42-.01C884.19 1163.6 883.4 1162.77 882.61 1161.92L882.61 1161.92zM897.92 1175.97c-.75-.58-.88-1.66-.3-2.4.58-.75 1.66-.88 2.4-.3.89.7 1.78 1.38 2.69 2.05.76.56.92 1.64.36 2.39-.56.76-1.64.92-2.4.36L897.92 1175.97 897.92 1175.97zM915.24 1187.46c-.83-.45-1.13-1.5-.67-2.32.46-.83 1.5-1.13 2.33-.67l2.98 1.6c.84.44 1.16 1.47.73 2.31-.44.84-1.47 1.16-2.31.73L915.24 1187.46 915.24 1187.46zM934.15 1196.09c-.89-.32-1.35-1.3-1.03-2.19.32-.89 1.3-1.35 2.19-1.03l3.19 1.11c.9.3 1.38 1.27 1.09 2.17-.3.9-1.27 1.38-2.16 1.08L934.15 1196.09 934.15 1196.09zM954.18 1201.62c-.93-.18-1.54-1.07-1.36-2 .18-.93 1.08-1.53 2-1.36 1.1.21 2.23.38 3.32.59.93.15 1.57 1.03 1.42 1.96-.15.93-1.03 1.57-1.96 1.42L954.18 1201.62 954.18 1201.62zM974.84 1203.93c-.94-.03-1.68-.82-1.66-1.76.03-.94.82-1.68 1.76-1.66l3.38.07c.95.01 1.71.78 1.7 1.72 0 .94-.78 1.71-1.72 1.7L974.84 1203.93 974.84 1203.93zM995.6 1203.01c-.94.12-1.8-.54-1.91-1.48-.12-.94.54-1.8 1.48-1.92 1.12-.14 2.23-.29 3.35-.46.93-.14 1.81.5 1.95 1.43.14.93-.5 1.81-1.43 1.95C997.89 1202.72 996.75 1202.87 995.6 1203.01L995.6 1203.01zM1015.96 1198.85c-.91.26-1.86-.26-2.12-1.16-.26-.91.26-1.86 1.17-2.12 1.08-.31 2.16-.64 3.24-.98.9-.28 1.86.21 2.15 1.11.28.9-.21 1.86-1.11 2.15C1018.18 1198.2 1017.07 1198.54 1015.96 1198.85L1015.96 1198.85zM1035.42 1191.53c-.85.4-1.88.04-2.28-.81-.4-.85-.04-1.88.81-2.28 1.02-.48 2.03-.97 3.04-1.48.84-.43 1.87-.09 2.3.76.43.84.09 1.87-.76 2.3C1037.51 1190.54 1036.46 1191.04 1035.42 1191.53L1035.42 1191.53zM1053.47 1181.24c-.78.53-1.85.33-2.38-.45-.53-.78-.33-1.85.45-2.38l2.77-1.94c.77-.55 1.84-.38 2.39.39.55.77.38 1.84-.39 2.39L1053.47 1181.24 1053.47 1181.24zM1069.69 1168.24c-.69.65-1.77.62-2.42-.07-.65-.69-.62-1.77.07-2.42.82-.76 1.61-1.58 2.43-2.34.67-.67 1.75-.67 2.42 0 .67.67.67 1.75 0 2.42L1069.69 1168.24 1069.69 1168.24zM1083.69 1152.88c-.58.75-1.65.88-2.4.3-.75-.58-.88-1.66-.3-2.4l2.03-2.69c.56-.76 1.63-.93 2.39-.37.76.56.93 1.63.37 2.39C1085.1 1151.05 1084.39 1151.96 1083.69 1152.88L1083.69 1152.88zM1095.12 1135.51c-.45.83-1.49 1.14-2.32.69-.83-.45-1.14-1.49-.69-2.32l1.59-2.98c.43-.84 1.46-1.17 2.3-.74.84.43 1.17 1.46.74 2.3L1095.12 1135.51 1095.12 1135.51zM1103.67 1116.58c-.32.89-1.3 1.35-2.19 1.03-.89-.32-1.35-1.3-1.03-2.19l1.1-3.18c.29-.9 1.26-1.39 2.16-1.1.9.29 1.39 1.26 1.1 2.16L1103.67 1116.58 1103.67 1116.58zM1109.13 1096.51c-.17.93-1.07 1.54-1.99 1.37-.93-.17-1.54-1.07-1.37-1.99l.58-3.33c.15-.93 1.03-1.57 1.96-1.42.93.15 1.57 1.03 1.42 1.96L1109.13 1096.51 1109.13 1096.51zM1111.36 1075.85c-.02.95-.81 1.69-1.75 1.67-.94-.02-1.69-.81-1.67-1.75l.06-3.38c0-.95.77-1.71 1.71-1.71.95 0 1.71.77 1.71 1.71L1111.36 1075.85 1111.36 1075.85zM1110.36 1055.1c.12.94-.55 1.79-1.48 1.91-.94.12-1.79-.55-1.91-1.48-.1-1.06-.28-2.29-.47-3.33-.15-.93.49-1.81 1.42-1.96.93-.15 1.81.49 1.96 1.42C1110.05 1052.78 1110.25 1053.97 1110.36 1055.1L1110.36 1055.1zM1106.12 1034.74c.27.9-.25 1.86-1.15 2.13-.9.27-1.86-.25-2.13-1.15l-.99-3.23c-.29-.9.2-1.87 1.1-2.16.9-.29 1.87.2 2.16 1.1L1106.12 1034.74 1106.12 1034.74zM1098.72 1015.32c.41.85.05 1.88-.8 2.28-.85.41-1.87.05-2.28-.8l-1.49-3.04c-.43-.84-.1-1.87.74-2.3.84-.43 1.88-.1 2.3.74C1097.73 1013.23 1098.23 1014.27 1098.72 1015.32L1098.72 1015.32zM1088.36 997.3c.54.77.34 1.84-.43 2.38-.78.54-1.85.35-2.38-.43l-1.95-2.76c-.56-.76-.39-1.84.37-2.39.76-.56 1.83-.39 2.39.37L1088.36 997.3 1088.36 997.3zM1075.31 981.13c.65.68.62 1.77-.06 2.42-.68.65-1.77.62-2.42-.06l-2.35-2.43c-.67-.67-.67-1.75 0-2.42.67-.67 1.75-.67 2.42 0L1075.31 981.13 1075.31 981.13zM1059.89 967.19c.75.57.89 1.65.32 2.4-.57.75-1.65.89-2.4.32l-2.71-2.03c-.76-.56-.93-1.63-.37-2.39.56-.76 1.63-.93 2.39-.37L1059.89 967.19 1059.89 967.19zM1042.49 955.84c.83.45 1.14 1.49.69 2.32-.45.83-1.49 1.14-2.32.69l-2.97-1.57c-.86-.43-1.2-1.46-.77-2.31.43-.84 1.46-1.18 2.3-.76C1040.42 954.77 1041.48 955.29 1042.49 955.84L1042.49 955.84zM1023.51 947.35c.89.31 1.36 1.29 1.04 2.18-.31.89-1.29 1.36-2.18 1.05l-3.2-1.09c-.9-.29-1.39-1.26-1.1-2.16.29-.9 1.26-1.39 2.15-1.1C1021.33 946.6 1022.42 946.96 1023.51 947.35L1023.51 947.35zM1003.43 941.97c.93.16 1.55 1.05 1.39 1.99-.16.93-1.05 1.55-1.98 1.39l-3.33-.57c-.93-.14-1.57-1.02-1.43-1.95.14-.93 1.02-1.57 1.95-1.43C1001.15 941.56 1002.29 941.77 1003.43 941.97zM1291.8 1093.93c-1.02 0-1.84-.83-1.84-1.84s.82-1.84 1.84-1.84l3.73.05c1.02.02 1.82.87 1.8 1.89-.02 1.02-.87 1.82-1.89 1.8L1291.8 1093.93 1291.8 1093.93zM1275.32 1091.19c1.01-.12 1.93.6 2.05 1.61.12 1.01-.6 1.93-1.61 2.05-1.2.14-2.41.29-3.61.46-1 .15-1.94-.55-2.09-1.55-.15-1.01.55-1.94 1.55-2.09C1272.85 1091.49 1274.09 1091.34 1275.32 1091.19L1275.32 1091.19zM1253.38 1095.5c.98-.28 2 .29 2.27 1.27.28.98-.29 2-1.27 2.27l-3.48 1.03c-.97.3-2-.24-2.31-1.21-.3-.97.24-2 1.21-2.31C1250.99 1096.19 1252.18 1095.84 1253.38 1095.5L1253.38 1095.5zM1232.38 1103.22c.92-.43 2.02-.03 2.45.89.43.92.03 2.02-.89 2.45-1.1.51-2.2 1.03-3.29 1.57-.91.45-2.02.08-2.47-.83-.45-.91-.08-2.02.83-2.47L1232.38 1103.22 1232.38 1103.22zM1212.87 1114.15c.84-.57 1.99-.34 2.56.5.57.84.34 1.99-.5 2.55l-3 2.06c-.83.59-1.98.4-2.57-.43-.59-.83-.39-1.98.43-2.57L1212.87 1114.15 1212.87 1114.15zM1195.3 1128c.74-.69 1.91-.65 2.6.1.69.74.65 1.91-.1 2.6l-2.64 2.5c-.73.71-1.89.7-2.6-.03-.71-.73-.7-1.89.03-2.6L1195.3 1128 1195.3 1128zM1180.12 1144.42c.63-.8 1.79-.94 2.59-.31.8.63.94 1.79.31 2.59-.75.94-1.48 1.9-2.2 2.87-.61.82-1.76 1-2.58.4-.82-.6-.99-1.76-.39-2.58C1178.61 1146.4 1179.34 1145.39 1180.12 1144.42L1180.12 1144.42zM1167.68 1163.01c.5-.89 1.62-1.21 2.51-.71.89.5 1.2 1.62.71 2.51-.6 1.05-1.16 2.12-1.73 3.19-.47.9-1.58 1.25-2.48.78-.9-.47-1.25-1.58-.78-2.49C1166.48 1165.2 1167.07 1164.09 1167.68 1163.01L1167.68 1163.01zM1158.32 1183.33c.35-.95 1.41-1.44 2.36-1.1.95.35 1.45 1.41 1.1 2.36l-1.2 3.42c-.32.97-1.37 1.49-2.33 1.17-.97-.32-1.49-1.37-1.17-2.33C1157.52 1185.71 1157.9 1184.49 1158.32 1183.33L1158.32 1183.33zM1152.28 1204.87c.19-1 1.16-1.65 2.15-1.46 1 .19 1.65 1.16 1.46 2.15l-.65 3.58c-.17 1-1.11 1.68-2.12 1.52-1.01-.16-1.68-1.11-1.52-2.12L1152.28 1204.87 1152.28 1204.87zM1149.71 1227.09c.03-1.02.88-1.81 1.9-1.78s1.81.88 1.78 1.9l-.09 3.63c-.01 1.02-.84 1.84-1.85 1.83-1.02 0-1.84-.83-1.83-1.85C1149.63 1229.58 1149.67 1228.33 1149.71 1227.09L1149.71 1227.09zM1150.62 1249.43c-.12-1.01.6-1.93 1.61-2.05 1.01-.12 1.93.6 2.05 1.61.13 1.2.3 2.4.48 3.6.15 1.01-.55 1.94-1.55 2.09-1.01.15-1.94-.55-2.09-1.56C1150.93 1251.9 1150.76 1250.66 1150.62 1249.43L1150.62 1249.43zM1155.02 1271.37c-.28-.98.28-2 1.25-2.28.98-.29 2 .28 2.28 1.25.33 1.17.67 2.33 1.04 3.49.31.97-.23 2.01-1.2 2.31-.97.31-2.01-.23-2.31-1.2C1155.7 1273.76 1155.36 1272.56 1155.02 1271.37L1155.02 1271.37zM1162.81 1292.33c-.43-.92-.03-2.02.89-2.45.92-.43 2.02-.03 2.45.89.5 1.1 1.03 2.19 1.57 3.27.46.91.09 2.02-.82 2.47-.91.46-2.02.09-2.47-.81C1163.87 1294.62 1163.32 1293.44 1162.81 1292.33L1162.81 1292.33zM1173.81 1311.8c-.57-.84-.34-1.99.5-2.56.84-.57 1.99-.34 2.55.5.67 1 1.36 2 2.07 2.98.6.82.41 1.98-.42 2.57-.82.6-1.98.41-2.57-.42C1175.22 1313.86 1174.51 1312.84 1173.81 1311.8L1173.81 1311.8zM1187.74 1329.32c-.7-.74-.66-1.91.08-2.6.74-.7 1.91-.66 2.6.08l2.51 2.63c.72.72.71 1.89-.01 2.61-.72.72-1.89.71-2.61-.01C1189.44 1331.13 1188.59 1330.22 1187.74 1329.32L1187.74 1329.32zM1204.21 1344.44c-.8-.62-.95-1.78-.33-2.58s1.78-.95 2.58-.33c.95.75 1.92 1.49 2.89 2.2.82.6.99 1.76.39 2.58-.6.82-1.76.99-2.57.39L1204.21 1344.44 1204.21 1344.44zM1222.85 1356.81c-.89-.49-1.22-1.61-.73-2.5.49-.89 1.61-1.21 2.5-.73l3.21 1.72c.9.47 1.25 1.58.78 2.49-.47.9-1.58 1.25-2.49.78L1222.85 1356.81 1222.85 1356.81zM1243.2 1366.09c-.96-.34-1.45-1.4-1.11-2.36.34-.96 1.4-1.45 2.36-1.11l3.43 1.2c.96.32 1.48 1.36 1.17 2.33-.32.96-1.36 1.49-2.33 1.17L1243.2 1366.09 1243.2 1366.09zM1264.76 1372.04c-1-.19-1.65-1.16-1.46-2.15.19-1 1.16-1.65 2.15-1.46 1.18.23 2.4.4 3.57.64 1 .16 1.69 1.11 1.53 2.11-.16 1-1.1 1.69-2.11 1.53L1264.76 1372.04 1264.76 1372.04zM1286.99 1374.53c-1.01-.03-1.81-.88-1.78-1.9.03-1.02.88-1.81 1.9-1.78l3.63.07c1.01.01 1.84.84 1.83 1.85-.01 1.02-.84 1.84-1.85 1.83L1286.99 1374.53 1286.99 1374.53zM1309.34 1373.54c-1.01.13-1.93-.59-2.06-1.6-.13-1.01.59-1.93 1.59-2.06 1.2-.15 2.4-.31 3.6-.49 1.01-.15 1.95.54 2.1 1.54.15 1.01-.54 1.95-1.54 2.1C1311.8 1373.22 1310.57 1373.39 1309.34 1373.54L1309.34 1373.54zM1331.25 1369.06c-.97.28-2-.28-2.28-1.25-.28-.98.28-2 1.26-2.28 1.17-.33 2.33-.69 3.48-1.05.97-.3 2 .23 2.31 1.2.31.97-.23 2.01-1.2 2.31C1333.63 1368.36 1332.44 1368.72 1331.25 1369.06L1331.25 1369.06zM1352.19 1361.18c-.92.43-2.02.04-2.45-.88-.43-.92-.04-2.02.88-2.45 1.1-.51 2.19-1.04 3.27-1.59.91-.46 2.02-.09 2.48.81.46.91.09 2.02-.81 2.48C1354.43 1360.11 1353.31 1360.66 1352.19 1361.18L1352.19 1361.18zM1371.62 1350.11c-.84.57-1.99.36-2.56-.48-.57-.84-.36-1.99.48-2.56l2.98-2.08c.82-.59 1.98-.41 2.57.42.6.82.41 1.98-.42 2.57L1371.62 1350.11 1371.62 1350.11zM1389.08 1336.12c-.74.7-1.91.66-2.61-.08-.7-.74-.66-1.91.08-2.6.88-.83 1.74-1.7 2.61-2.52.72-.72 1.89-.72 2.6 0 .72.72.72 1.89 0 2.6L1389.08 1336.12 1389.08 1336.12zM1404.14 1319.59c-.62.8-1.78.95-2.58.33-.8-.62-.95-1.78-.33-2.59l2.18-2.89c.6-.82 1.75-1 2.57-.4.82.6 1 1.75.4 2.57C1405.65 1317.62 1404.89 1318.6 1404.14 1319.59L1404.14 1319.59zM1416.44 1300.9c-.49.89-1.61 1.23-2.5.74-.89-.49-1.23-1.6-.74-2.5l1.71-3.21c.46-.91 1.58-1.26 2.48-.8.9.46 1.26 1.58.8 2.48L1416.44 1300.9 1416.44 1300.9zM1425.64 1280.52c-.34.96-1.4 1.45-2.36 1.11-.96-.34-1.45-1.4-1.11-2.36l1.18-3.43c.31-.97 1.35-1.5 2.32-1.18.97.31 1.49 1.35 1.18 2.32L1425.64 1280.52 1425.64 1280.52zM1431.51 1258.93c-.18 1-1.15 1.66-2.14 1.47-1-.18-1.66-1.15-1.48-2.14l.63-3.58c.16-1.01 1.11-1.69 2.11-1.53 1 .16 1.69 1.1 1.53 2.11L1431.51 1258.93 1431.51 1258.93zM1433.91 1236.69c-.02 1.01-.87 1.82-1.89 1.79-1.02-.02-1.82-.87-1.8-1.89l.06-3.64c0-1.02.82-1.84 1.84-1.84s1.84.83 1.84 1.84L1433.91 1236.69 1433.91 1236.69zM1432.84 1214.36c.13 1.01-.59 1.93-1.6 2.06-1.01.13-1.93-.59-2.06-1.6-.11-1.14-.3-2.46-.51-3.59-.16-1 .53-1.95 1.53-2.11 1-.16 1.95.53 2.11 1.53C1432.5 1211.87 1432.72 1213.15 1432.84 1214.36L1432.84 1214.36zM1428.28 1192.45c.29.97-.26 2-1.24 2.29-.97.29-2-.26-2.29-1.24l-1.06-3.48c-.31-.97.21-2.01 1.18-2.32.97-.31 2.01.21 2.32 1.18L1428.28 1192.45 1428.28 1192.45zM1420.32 1171.54c.44.92.06 2.02-.86 2.46-.91.44-2.02.06-2.46-.86l-1.6-3.27c-.46-.9-.1-2.02.8-2.48.9-.46 2.02-.11 2.48.8C1419.24 1169.3 1419.78 1170.42 1420.32 1171.54L1420.32 1171.54zM1409.17 1152.15c.58.83.37 1.99-.46 2.56-.83.58-1.99.37-2.57-.46l-2.1-2.97c-.6-.82-.42-1.97.4-2.57.82-.6 1.97-.42 2.57.4L1409.17 1152.15 1409.17 1152.15zM1395.12 1134.75c.7.73.67 1.9-.06 2.6-.73.7-1.9.67-2.6-.06l-2.54-2.61c-.72-.72-.72-1.88 0-2.6.72-.72 1.89-.72 2.6 0L1395.12 1134.75 1395.12 1134.75zM1378.53 1119.76c.81.62.96 1.78.34 2.58s-1.78.96-2.58.34l-2.91-2.18c-.82-.6-1-1.75-.4-2.57.6-.82 1.75-1 2.57-.4L1378.53 1119.76 1378.53 1119.76zM1359.8 1107.53c.89.48 1.22 1.61.74 2.5-.48.89-1.61 1.22-2.5.73l-3.19-1.69c-.92-.47-1.29-1.57-.83-2.48.46-.91 1.57-1.27 2.48-.81C1357.57 1106.38 1358.71 1106.95 1359.8 1107.53L1359.8 1107.53zM1339.37 1098.41c.96.34 1.46 1.39 1.13 2.35s-1.39 1.46-2.35 1.13l-3.44-1.17c-.97-.31-1.5-1.35-1.18-2.32.31-.97 1.35-1.49 2.32-1.18C1337.03 1097.59 1338.2 1097.99 1339.37 1098.41L1339.37 1098.41zM1317.76 1092.61c1 .18 1.67 1.13 1.49 2.14-.18 1-1.13 1.67-2.14 1.49l-3.59-.61c-1-.15-1.69-1.1-1.54-2.1.15-1 1.1-1.69 2.1-1.54C1315.31 1092.17 1316.54 1092.39 1317.76 1092.61zM641.98 1106.29c-.93 0-1.69-.76-1.69-1.69 0-.93.76-1.69 1.69-1.69l3.42.04c.93.02 1.67.8 1.65 1.73-.02.93-.8 1.67-1.73 1.65L641.98 1106.29 641.98 1106.29zM626.86 1103.77c.93-.11 1.77.55 1.88 1.48.11.93-.55 1.77-1.47 1.88-1.11.13-2.21.27-3.31.42-.92.14-1.78-.5-1.92-1.43-.14-.92.5-1.78 1.43-1.92C624.59 1104.05 625.73 1103.91 626.86 1103.77L626.86 1103.77zM606.72 1107.73c.9-.25 1.83.27 2.09 1.17.25.9-.27 1.83-1.17 2.09l-3.2.94c-.89.28-1.84-.22-2.12-1.11-.28-.89.22-1.84 1.11-2.12C604.52 1108.36 605.62 1108.04 606.72 1107.73L606.72 1107.73zM587.43 1114.82c.85-.4 1.85-.03 2.25.82.39.84.03 1.85-.82 2.25-1.01.47-2.02.94-3.02 1.44-.83.41-1.85.07-2.27-.76-.41-.83-.07-1.85.76-2.27L587.43 1114.82 587.43 1114.82zM569.52 1124.85c.77-.52 1.83-.32 2.35.46.52.77.32 1.83-.46 2.35l-2.75 1.89c-.76.54-1.82.36-2.36-.4-.54-.76-.36-1.82.4-2.36L569.52 1124.85 569.52 1124.85zM553.4 1137.57c.68-.63 1.75-.6 2.39.09.64.68.6 1.75-.09 2.39l-2.42 2.3c-.67.65-1.74.64-2.39-.03-.65-.67-.64-1.74.03-2.39L553.4 1137.57 553.4 1137.57zM539.46 1152.64c.58-.73 1.64-.86 2.38-.28.73.57.86 1.64.28 2.38-.69.87-1.36 1.74-2.02 2.63-.56.76-1.62.92-2.37.36-.75-.55-.91-1.61-.36-2.37C538.08 1154.46 538.75 1153.53 539.46 1152.64L539.46 1152.64zM528.05 1169.7c.45-.81 1.48-1.11 2.3-.65.81.45 1.11 1.48.65 2.3-.55.97-1.07 1.95-1.59 2.93-.43.83-1.45 1.15-2.28.72-.83-.43-1.15-1.45-.72-2.28C526.94 1171.71 527.48 1170.7 528.05 1169.7L528.05 1169.7zM519.45 1188.36c.32-.88 1.29-1.33 2.17-1.01.87.32 1.33 1.29 1.01 2.17l-1.11 3.14c-.3.89-1.25 1.37-2.14 1.08-.89-.3-1.37-1.25-1.07-2.14C518.71 1190.55 519.06 1189.42 519.45 1188.36L519.45 1188.36zM513.91 1208.13c.17-.92 1.06-1.52 1.98-1.34.92.17 1.52 1.06 1.34 1.98l-.6 3.28c-.15.92-1.02 1.55-1.94 1.39-.92-.15-1.55-1.02-1.39-1.94L513.91 1208.13 513.91 1208.13zM511.55 1228.53c.03-.93.81-1.67 1.74-1.64.93.03 1.66.81 1.64 1.74l-.08 3.34c-.01.93-.77 1.68-1.7 1.68-.93-.01-1.69-.77-1.68-1.7C511.47 1230.81 511.51 1229.67 511.55 1228.53L511.55 1228.53zM512.38 1249.04c-.11-.93.55-1.77 1.48-1.88.93-.11 1.77.55 1.88 1.47.12 1.1.28 2.21.44 3.31.14.92-.5 1.78-1.43 1.92-.92.13-1.78-.5-1.92-1.43C512.67 1251.31 512.51 1250.17 512.38 1249.04L512.38 1249.04zM516.42 1269.18c-.26-.9.26-1.84 1.15-2.1.9-.26 1.84.26 2.1 1.15.3 1.07.62 2.14.96 3.2.28.89-.21 1.84-1.1 2.12-.89.28-1.84-.21-2.12-1.1C517.05 1271.38 516.73 1270.28 516.42 1269.18L516.42 1269.18zM523.57 1288.42c-.4-.85-.03-1.85.81-2.25.84-.39 1.85-.03 2.25.81.46 1.01.95 2.01 1.44 3 .42.83.09 1.85-.75 2.27-.83.42-1.85.08-2.27-.75C524.54 1290.52 524.04 1289.45 523.57 1288.42L523.57 1288.42zM533.67 1306.3c-.52-.77-.32-1.83.46-2.35.77-.52 1.83-.32 2.35.46.62.92 1.25 1.84 1.9 2.74.54.76.37 1.81-.38 2.36-.76.55-1.81.37-2.36-.38C534.97 1308.19 534.31 1307.25 533.67 1306.3L533.67 1306.3zM546.46 1322.38c-.64-.68-.61-1.75.07-2.39.68-.64 1.75-.61 2.39.07l2.31 2.41c.66.66.65 1.74-.01 2.39-.66.66-1.74.65-2.39-.01C548.02 1324.04 547.24 1323.21 546.46 1322.38L546.46 1322.38zM561.58 1336.26c-.74-.57-.87-1.63-.3-2.37.57-.74 1.63-.87 2.37-.3.88.69 1.76 1.36 2.66 2.02.75.55.91 1.61.36 2.37-.55.75-1.62.91-2.36.36L561.58 1336.26 561.58 1336.26zM578.69 1347.61c-.82-.45-1.12-1.48-.67-2.3.45-.81 1.48-1.11 2.3-.67l2.94 1.59c.83.43 1.15 1.45.72 2.28-.43.83-1.45 1.15-2.28.72L578.69 1347.61 578.69 1347.61zM597.37 1356.13c-.88-.32-1.33-1.29-1.02-2.16.32-.88 1.29-1.33 2.17-1.02l3.15 1.1c.89.29 1.36 1.25 1.07 2.14-.29.89-1.25 1.37-2.14 1.07L597.37 1356.13 597.37 1356.13zM617.16 1361.6c-.92-.17-1.52-1.06-1.34-1.98.17-.92 1.06-1.52 1.98-1.34 1.09.21 2.2.37 3.28.59.92.14 1.55 1.01 1.41 1.93-.14.92-1.01 1.55-1.94 1.41L617.16 1361.6 617.16 1361.6zM637.57 1363.88c-.93-.03-1.66-.81-1.64-1.74.03-.93.81-1.66 1.74-1.64l3.33.07c.93.01 1.69.77 1.68 1.7 0 .93-.77 1.68-1.7 1.68L637.57 1363.88 637.57 1363.88zM658.09 1362.97c-.92.12-1.77-.54-1.89-1.46-.12-.93.54-1.77 1.46-1.89 1.1-.14 2.21-.28 3.31-.45.92-.14 1.79.49 1.93 1.41.14.92-.49 1.79-1.41 1.93C660.35 1362.68 659.22 1362.83 658.09 1362.97L658.09 1362.97zM678.2 1358.87c-.9.26-1.84-.26-2.1-1.15-.26-.9.26-1.84 1.15-2.1 1.07-.3 2.14-.63 3.2-.97.89-.28 1.84.21 2.12 1.1.28.89-.21 1.84-1.1 2.12C680.39 1358.22 679.3 1358.56 678.2 1358.87L678.2 1358.87zM697.42 1351.63c-.84.4-1.85.04-2.25-.8-.4-.84-.04-1.85.8-2.25 1.01-.47 2.01-.96 3-1.46.83-.42 1.85-.09 2.27.75.42.83.09 1.85-.75 2.27C699.49 1350.65 698.46 1351.15 697.42 1351.63L697.42 1351.63zM715.26 1341.46c-.77.53-1.82.33-2.35-.44-.53-.77-.33-1.82.44-2.35l2.74-1.91c.76-.54 1.81-.37 2.36.38.54.76.37 1.81-.38 2.36L715.26 1341.46 715.26 1341.46zM731.29 1328.63c-.68.64-1.75.61-2.39-.07-.64-.68-.61-1.75.07-2.39.81-.76 1.59-1.56 2.4-2.31.66-.66 1.73-.66 2.39 0 .66.66.66 1.73 0 2.39L731.29 1328.63 731.29 1328.63zM745.12 1313.45c-.57.74-1.64.87-2.37.3-.74-.57-.87-1.64-.3-2.37l2.01-2.66c.55-.76 1.61-.92 2.36-.37.76.55.92 1.61.37 2.36C746.51 1311.64 745.81 1312.54 745.12 1313.45L745.12 1313.45zM756.41 1296.29c-.45.82-1.47 1.13-2.29.68-.82-.44-1.12-1.47-.68-2.29l1.57-2.95c.43-.83 1.45-1.16 2.28-.73.83.42 1.16 1.45.74 2.28L756.41 1296.29 756.41 1296.29zM764.85 1277.58c-.32.88-1.29 1.33-2.16 1.02-.88-.32-1.33-1.29-1.02-2.16l1.08-3.15c.29-.89 1.24-1.37 2.13-1.08.89.29 1.37 1.24 1.08 2.13L764.85 1277.58 764.85 1277.58zM770.25 1257.76c-.17.92-1.05 1.52-1.97 1.35-.92-.17-1.52-1.05-1.35-1.97l.57-3.29c.14-.92 1.01-1.55 1.94-1.41.92.15 1.55 1.02 1.4 1.94L770.25 1257.76 770.25 1257.76zM772.45 1237.34c-.02.93-.8 1.67-1.74 1.65-.93-.02-1.67-.8-1.65-1.73l.06-3.34c0-.93.76-1.69 1.69-1.69.93 0 1.69.76 1.69 1.69L772.45 1237.34 772.45 1237.34zM771.47 1216.84c.11.92-.54 1.77-1.47 1.89-.93.12-1.77-.54-1.89-1.47-.1-1.04-.28-2.26-.46-3.29-.15-.92.48-1.79 1.4-1.94.92-.15 1.79.48 1.94 1.4C771.16 1214.55 771.35 1215.73 771.47 1216.84L771.47 1216.84zM767.28 1196.73c.27.89-.24 1.84-1.14 2.1-.89.26-1.84-.24-2.1-1.14l-.98-3.19c-.29-.89.2-1.84 1.08-2.13.89-.29 1.84.2 2.13 1.08L767.28 1196.73 767.28 1196.73zM759.97 1177.54c.4.84.05 1.85-.79 2.26-.84.4-1.85.05-2.26-.79l-1.47-3c-.42-.83-.1-1.85.73-2.28.83-.42 1.85-.1 2.28.74C758.98 1175.48 759.48 1176.51 759.97 1177.54L759.97 1177.54zM749.73 1159.74c.53.77.34 1.82-.43 2.35-.77.53-1.82.34-2.35-.43l-1.92-2.73c-.55-.75-.38-1.81.37-2.36.76-.55 1.81-.38 2.36.37L749.73 1159.74 749.73 1159.74zM736.83 1143.76c.64.67.62 1.75-.06 2.39-.67.64-1.75.62-2.39-.06l-2.33-2.4c-.66-.66-.66-1.73 0-2.39.66-.66 1.73-.66 2.39 0L736.83 1143.76 736.83 1143.76zM721.61 1130c.74.57.88 1.63.31 2.37-.57.74-1.63.88-2.37.31l-2.67-2c-.75-.55-.92-1.61-.37-2.36.55-.75 1.61-.92 2.36-.37L721.61 1130 721.61 1130zM704.41 1118.78c.82.44 1.12 1.47.68 2.29-.45.82-1.47 1.12-2.29.68l-2.93-1.55c-.85-.43-1.18-1.45-.76-2.28.42-.84 1.44-1.17 2.27-.75C702.37 1117.72 703.41 1118.23 704.41 1118.78L704.41 1118.78zM685.66 1110.39c.88.31 1.34 1.28 1.03 2.16-.31.88-1.28 1.34-2.15 1.03l-3.16-1.08c-.89-.29-1.37-1.24-1.09-2.13s1.24-1.37 2.13-1.09C683.51 1109.65 684.59 1110.01 685.66 1110.39L685.66 1110.39zM665.82 1105.08c.92.16 1.53 1.04 1.37 1.96-.16.92-1.04 1.53-1.96 1.37l-3.29-.56c-.92-.14-1.55-1.01-1.41-1.93.14-.92 1.01-1.55 1.93-1.41C663.57 1104.68 664.7 1104.88 665.82 1105.08zM1047.63 739.19c-.88 0-1.6-.72-1.6-1.6s.72-1.6 1.6-1.6c1.12.01 2.2.05 3.31.12.88.06 1.55.83 1.49 1.71-.06.88-.82 1.55-1.71 1.49C1049.68 739.24 1048.67 739.2 1047.63 739.19L1047.63 739.19zM1034.78 737.9c.84-.26 1.74.21 2 1.05.26.84-.21 1.74-1.05 2-.98.29-1.96.64-2.91 1.01-.82.32-1.75-.08-2.08-.9-.32-.82.08-1.75.9-2.08C1032.66 738.59 1033.73 738.21 1034.78 737.9L1034.78 737.9zM1017.67 747.81c.64-.6 1.66-.57 2.27.07.6.64.57 1.66-.07 2.26-.76.7-1.46 1.43-2.17 2.18-.59.65-1.61.7-2.26.11-.65-.59-.7-1.61-.11-2.26C1016.09 749.36 1016.85 748.57 1017.67 747.81L1017.67 747.81zM1006.63 764.21c.32-.82 1.24-1.24 2.07-.93.83.31 1.24 1.24.93 2.07-.36.96-.7 1.92-.99 2.91-.25.85-1.14 1.34-1.98 1.09-.85-.25-1.34-1.14-1.09-1.99C1005.9 766.3 1006.24 765.27 1006.63 764.21L1006.63 764.21zM1003.94 783.81c-.08-.88.57-1.66 1.45-1.74.88-.08 1.66.57 1.74 1.44.08.97.2 2.11.39 3.06.15.87-.44 1.7-1.31 1.85-.87.15-1.7-.44-1.85-1.31C1004.17 786.05 1004.03 784.89 1003.94 783.81L1003.94 783.81zM1010.11 802.6c-.46-.76-.22-1.75.53-2.21.75-.46 1.74-.22 2.2.53.53.87 1.1 1.75 1.7 2.57.52.72.35 1.72-.36 2.23-.72.52-1.72.35-2.24-.37C1011.3 804.46 1010.69 803.55 1010.11 802.6L1010.11 802.6zM1023.91 816.76c-.74-.48-.96-1.47-.48-2.21.48-.74 1.47-.96 2.21-.48.88.57 1.75 1.04 2.65 1.57.78.42 1.07 1.39.65 2.17-.42.78-1.39 1.07-2.17.65C1025.81 817.95 1024.82 817.35 1023.91 816.76L1023.91 816.76zM1042.53 823.43c-.88-.1-1.51-.9-1.41-1.77.1-.88.9-1.51 1.77-1.41 1.02.12 2.05.19 3.07.24.88.03 1.57.78 1.54 1.66-.03.88-.78 1.57-1.66 1.54C1044.74 823.64 1043.62 823.56 1042.53 823.43L1042.53 823.43zM1062.18 821.25c-.84.29-1.75-.15-2.04-.98-.29-.84.15-1.75.98-2.04.94-.29 1.95-.74 2.86-1.13.81-.36 1.75.01 2.11.81.36.81-.01 1.75-.81 2.11C1064.31 820.45 1063.17 820.94 1062.18 821.25L1062.18 821.25zM1078.87 810.64c-.62.63-1.63.64-2.26.03-.63-.62-.64-1.63-.03-2.26.73-.74 1.41-1.49 2.09-2.28.57-.67 1.58-.76 2.26-.19.67.57.76 1.58.19 2.26C1080.39 809.03 1079.66 809.85 1078.87 810.64L1078.87 810.64zM1089.23 793.8c-.28.84-1.18 1.29-2.02 1.02-.84-.28-1.29-1.18-1.02-2.02.33-.98.62-1.96.87-2.96.22-.86 1.09-1.38 1.94-1.16.86.22 1.38 1.09 1.16 1.95C1089.89 791.69 1089.58 792.74 1089.23 793.8L1089.23 793.8zM1091.12 774.11c.11.88-.5 1.68-1.38 1.8-.88.12-1.68-.5-1.8-1.38-.14-1.02-.3-2.03-.51-3.04-.18-.86.37-1.71 1.23-1.9.86-.18 1.71.37 1.9 1.24C1090.8 771.91 1090.98 773.02 1091.12 774.11L1091.12 774.11zM1084.18 755.59c.49.74.29 1.73-.44 2.22-.73.49-1.73.29-2.22-.44-.56-.85-1.17-1.69-1.8-2.49-.55-.7-.43-1.71.27-2.25.69-.55 1.7-.43 2.25.27C1082.92 753.76 1083.58 754.68 1084.18 755.59L1084.18 755.59zM1069.82 742.01c.76.44 1.02 1.43.57 2.19-.45.76-1.43 1.02-2.19.57-.89-.52-1.79-1-2.72-1.46-.79-.39-1.12-1.35-.73-2.14.39-.79 1.35-1.12 2.14-.73C1067.89 740.94 1068.86 741.44 1069.82 742.01zM533.54 991.36c-.88 0-1.6-.72-1.6-1.6s.72-1.6 1.6-1.6c1.12.01 2.2.05 3.31.12.88.06 1.55.83 1.49 1.71-.06.88-.83 1.55-1.71 1.49C535.59 991.41 534.59 991.37 533.54 991.36L533.54 991.36zM520.69 990.07c.84-.26 1.74.21 2 1.05.26.84-.21 1.74-1.05 2-.98.29-1.96.64-2.91 1.01-.82.32-1.75-.08-2.08-.9-.32-.82.08-1.75.9-2.08C518.58 990.76 519.64 990.38 520.69 990.07L520.69 990.07zM503.58 999.98c.64-.6 1.66-.57 2.27.07.6.64.57 1.66-.07 2.26-.76.7-1.46 1.43-2.17 2.18-.59.65-1.61.7-2.26.11-.65-.59-.7-1.61-.11-2.26C502 1001.53 502.77 1000.74 503.58 999.98L503.58 999.98zM492.55 1016.38c.32-.83 1.24-1.24 2.07-.93.83.31 1.24 1.24.93 2.07-.36.96-.7 1.92-.99 2.91-.25.85-1.14 1.34-1.99 1.09-.85-.25-1.34-1.14-1.09-1.99C491.81 1018.47 492.15 1017.44 492.55 1016.38L492.55 1016.38zM489.86 1035.98c-.08-.88.57-1.66 1.45-1.74.88-.08 1.66.57 1.74 1.44.08.97.2 2.11.39 3.05.15.87-.44 1.7-1.31 1.85-.87.15-1.7-.44-1.85-1.31C490.08 1038.22 489.95 1037.06 489.86 1035.98L489.86 1035.98zM496.03 1054.77c-.46-.76-.23-1.75.53-2.21.75-.46 1.74-.22 2.2.53.53.87 1.1 1.75 1.7 2.57.52.72.35 1.72-.37 2.23-.72.52-1.72.35-2.24-.37C497.22 1056.63 496.61 1055.72 496.03 1054.77L496.03 1054.77zM509.83 1068.93c-.75-.48-.96-1.47-.48-2.21.48-.74 1.47-.96 2.21-.48.88.57 1.75 1.04 2.65 1.57.78.42 1.07 1.39.65 2.17-.42.78-1.39 1.07-2.17.65C511.73 1070.12 510.73 1069.52 509.83 1068.93L509.83 1068.93zM528.44 1075.6c-.88-.1-1.51-.9-1.41-1.77.1-.88.9-1.51 1.77-1.41 1.02.12 2.05.19 3.07.24.88.03 1.57.78 1.54 1.66-.03.88-.78 1.57-1.66 1.54C530.66 1075.81 529.54 1075.73 528.44 1075.6L528.44 1075.6zM548.09 1073.42c-.84.29-1.75-.15-2.04-.98-.29-.83.15-1.75.98-2.04.94-.29 1.95-.74 2.86-1.13.81-.36 1.75.01 2.11.81.36.81-.01 1.75-.81 2.11C550.23 1072.62 549.09 1073.11 548.09 1073.42L548.09 1073.42zM564.79 1062.81c-.62.63-1.64.64-2.27.03-.63-.62-.64-1.63-.03-2.27.73-.74 1.41-1.49 2.09-2.28.57-.67 1.58-.76 2.26-.19.67.57.76 1.58.19 2.26C566.31 1061.2 565.57 1062.02 564.79 1062.81L564.79 1062.81zM575.15 1045.97c-.28.84-1.18 1.29-2.02 1.02-.84-.28-1.29-1.18-1.02-2.02.32-.98.62-1.96.87-2.96.22-.86 1.09-1.38 1.94-1.16.86.22 1.38 1.09 1.16 1.95C575.81 1043.86 575.5 1044.91 575.15 1045.97L575.15 1045.97zM577.04 1026.28c.11.88-.5 1.68-1.38 1.8-.88.12-1.68-.5-1.8-1.38-.14-1.02-.3-2.03-.51-3.04-.18-.86.37-1.71 1.24-1.9.86-.18 1.71.37 1.9 1.23C576.72 1024.08 576.89 1025.19 577.04 1026.28L577.04 1026.28zM570.1 1007.77c.49.74.29 1.73-.44 2.22-.74.49-1.73.29-2.22-.44-.56-.85-1.17-1.69-1.8-2.5-.54-.69-.43-1.7.27-2.25.7-.54 1.7-.43 2.25.27C568.83 1005.93 569.5 1006.85 570.1 1007.77L570.1 1007.77zM555.74 994.18c.76.44 1.02 1.43.57 2.19-.45.76-1.43 1.02-2.19.57-.89-.52-1.79-1-2.72-1.46-.79-.39-1.12-1.35-.73-2.14.39-.79 1.35-1.12 2.14-.73C553.81 993.11 554.77 993.61 555.74 994.18zM938.46 1280.89c-.88 0-1.6-.72-1.6-1.6 0-.88.72-1.6 1.6-1.6 1.12.01 2.2.05 3.31.12.88.06 1.55.82 1.49 1.71-.06.88-.82 1.55-1.71 1.49C940.51 1280.93 939.51 1280.9 938.46 1280.89L938.46 1280.89zM925.61 1279.6c.84-.26 1.74.21 2 1.05.26.84-.21 1.74-1.05 2-.98.29-1.96.64-2.91 1.01-.82.32-1.75-.08-2.08-.9-.32-.82.08-1.75.9-2.08C923.49 1280.29 924.56 1279.91 925.61 1279.6L925.61 1279.6zM908.5 1289.51c.64-.6 1.66-.57 2.27.07.6.64.57 1.66-.07 2.26-.76.7-1.46 1.43-2.17 2.18-.59.66-1.61.7-2.26.11-.65-.59-.7-1.61-.11-2.26C906.92 1291.06 907.69 1290.27 908.5 1289.51L908.5 1289.51zM897.47 1305.91c.32-.83 1.24-1.24 2.07-.93.83.31 1.24 1.24.93 2.07-.36.96-.7 1.92-.99 2.91-.25.85-1.14 1.34-1.98 1.09-.85-.25-1.34-1.14-1.09-1.99C896.73 1307.99 897.07 1306.97 897.47 1305.91L897.47 1305.91zM894.77 1325.51c-.08-.88.57-1.66 1.45-1.74.88-.08 1.66.57 1.74 1.44.08.97.2 2.1.39 3.05.15.87-.44 1.7-1.31 1.85-.87.15-1.7-.44-1.85-1.31C895 1327.75 894.87 1326.59 894.77 1325.51L894.77 1325.51zM900.95 1344.3c-.46-.76-.23-1.75.53-2.21.75-.46 1.74-.22 2.2.53.53.87 1.1 1.75 1.7 2.57.52.72.35 1.72-.37 2.23-.72.52-1.72.35-2.24-.37C902.13 1346.16 901.53 1345.25 900.95 1344.3L900.95 1344.3zM914.75 1358.46c-.75-.48-.96-1.47-.48-2.21.48-.74 1.47-.96 2.21-.48.88.57 1.75 1.04 2.65 1.57.78.42 1.07 1.39.65 2.17-.42.78-1.39 1.07-2.17.65C916.65 1359.65 915.65 1359.05 914.75 1358.46L914.75 1358.46zM933.36 1365.12c-.88-.1-1.51-.9-1.41-1.77.1-.88.9-1.51 1.77-1.41 1.02.13 2.05.19 3.07.24.88.03 1.57.78 1.54 1.66-.03.88-.78 1.57-1.66 1.54C935.57 1365.34 934.45 1365.26 933.36 1365.12L933.36 1365.12zM953.01 1362.95c-.84.29-1.75-.15-2.04-.98-.29-.83.15-1.75.98-2.04.94-.29 1.95-.74 2.86-1.13.81-.36 1.75.01 2.11.81.36.81-.01 1.75-.81 2.11C955.15 1362.14 954.01 1362.64 953.01 1362.95L953.01 1362.95zM969.71 1352.34c-.62.63-1.63.64-2.26.03-.63-.62-.64-1.63-.03-2.27.73-.74 1.41-1.49 2.09-2.28.57-.67 1.58-.76 2.26-.19.67.57.76 1.58.19 2.26C971.23 1350.73 970.49 1351.55 969.71 1352.34L969.71 1352.34zM980.07 1335.49c-.28.84-1.18 1.29-2.02 1.02-.84-.28-1.29-1.18-1.02-2.02.33-.97.62-1.96.87-2.96.22-.86 1.09-1.38 1.94-1.16.86.22 1.38 1.09 1.16 1.95C980.73 1333.38 980.42 1334.44 980.07 1335.49L980.07 1335.49zM981.96 1315.81c.12.88-.5 1.68-1.38 1.8-.88.11-1.68-.5-1.8-1.38-.14-1.02-.3-2.03-.51-3.04-.18-.86.37-1.71 1.23-1.9.86-.18 1.71.37 1.9 1.24C981.64 1313.61 981.81 1314.72 981.96 1315.81L981.96 1315.81zM975.02 1297.29c.49.73.29 1.73-.44 2.22-.74.49-1.73.29-2.22-.44-.56-.85-1.17-1.69-1.8-2.5-.54-.69-.43-1.7.27-2.25.7-.54 1.7-.43 2.25.27C973.75 1295.46 974.42 1296.38 975.02 1297.29L975.02 1297.29zM960.66 1283.71c.76.44 1.02 1.43.57 2.19-.45.76-1.43 1.02-2.19.57-.89-.52-1.79-1.01-2.72-1.46-.79-.39-1.12-1.35-.73-2.14.39-.79 1.35-1.12 2.14-.73C958.73 1282.64 959.69 1283.14 960.66 1283.71zM1504.93 991.36c-.88 0-1.6-.72-1.6-1.6s.72-1.6 1.6-1.6c1.12.01 2.2.05 3.31.12.88.06 1.55.83 1.49 1.71-.06.88-.82 1.55-1.71 1.49C1506.98 991.41 1505.97 991.37 1504.93 991.36L1504.93 991.36zM1492.08 990.07c.84-.26 1.74.21 2 1.05.26.84-.21 1.74-1.05 2-.98.29-1.96.64-2.91 1.01-.82.32-1.75-.08-2.08-.9-.32-.82.08-1.75.9-2.08C1489.96 990.76 1491.03 990.38 1492.08 990.07L1492.08 990.07zM1474.97 999.98c.64-.6 1.66-.57 2.26.07.61.64.57 1.66-.07 2.26-.76.7-1.46 1.43-2.17 2.18-.59.65-1.61.7-2.26.11-.65-.59-.7-1.61-.11-2.26C1473.39 1001.53 1474.16 1000.74 1474.97 999.98L1474.97 999.98zM1463.93 1016.38c.32-.83 1.24-1.24 2.07-.93.83.31 1.24 1.24.93 2.07-.36.96-.7 1.92-.99 2.91-.25.85-1.14 1.34-1.98 1.09-.85-.25-1.34-1.14-1.09-1.99C1463.2 1018.47 1463.54 1017.44 1463.93 1016.38L1463.93 1016.38zM1461.24 1035.98c-.08-.88.57-1.66 1.45-1.74.88-.08 1.66.57 1.74 1.44.08.97.2 2.11.39 3.05.15.87-.44 1.7-1.31 1.85-.87.15-1.7-.44-1.85-1.31C1461.47 1038.22 1461.33 1037.06 1461.24 1035.98L1461.24 1035.98zM1467.42 1054.77c-.46-.76-.22-1.75.53-2.21.75-.46 1.74-.22 2.2.53.53.87 1.1 1.75 1.7 2.57.52.72.35 1.72-.36 2.23-.72.52-1.72.35-2.24-.37C1468.6 1056.63 1467.99 1055.72 1467.42 1054.77L1467.42 1054.77zM1481.21 1068.93c-.74-.48-.96-1.47-.48-2.21.48-.74 1.47-.96 2.21-.48.88.57 1.75 1.04 2.65 1.57.78.42 1.07 1.39.65 2.17s-1.39 1.07-2.17.65C1483.11 1070.12 1482.12 1069.52 1481.21 1068.93L1481.21 1068.93zM1499.83 1075.6c-.88-.1-1.51-.9-1.41-1.77.1-.88.9-1.51 1.77-1.41 1.02.12 2.05.19 3.07.24.88.03 1.57.78 1.54 1.66-.03.88-.78 1.57-1.66 1.54C1502.04 1075.81 1500.92 1075.73 1499.83 1075.6L1499.83 1075.6zM1519.48 1073.42c-.83.29-1.75-.15-2.04-.98-.29-.83.15-1.75.98-2.04.94-.29 1.95-.74 2.86-1.13.81-.36 1.75.01 2.11.81.36.81-.01 1.75-.81 2.11C1521.62 1072.62 1520.48 1073.11 1519.48 1073.42L1519.48 1073.42zM1536.18 1062.81c-.62.63-1.63.64-2.26.03-.63-.62-.64-1.63-.03-2.27.73-.74 1.41-1.49 2.09-2.28.57-.67 1.58-.76 2.26-.19.67.57.76 1.58.19 2.26C1537.69 1061.2 1536.96 1062.02 1536.18 1062.81L1536.18 1062.81zM1546.53 1045.97c-.28.84-1.18 1.29-2.02 1.02-.84-.28-1.29-1.18-1.02-2.02.33-.98.62-1.96.87-2.96.22-.86 1.09-1.38 1.94-1.16.86.22 1.38 1.09 1.16 1.95C1547.19 1043.86 1546.89 1044.91 1546.53 1045.97L1546.53 1045.97zM1548.42 1026.28c.12.88-.5 1.68-1.38 1.8-.88.12-1.68-.5-1.8-1.38-.14-1.02-.31-2.03-.51-3.04-.18-.86.37-1.71 1.23-1.9.87-.18 1.72.37 1.9 1.23C1548.1 1024.08 1548.28 1025.19 1548.42 1026.28L1548.42 1026.28zM1541.48 1007.77c.49.74.29 1.73-.44 2.22-.74.49-1.73.29-2.22-.44-.56-.85-1.17-1.69-1.8-2.5-.55-.69-.43-1.7.27-2.25.69-.54 1.7-.43 2.25.27C1540.22 1005.93 1540.88 1006.85 1541.48 1007.77L1541.48 1007.77zM1527.12 994.18c.76.44 1.02 1.43.57 2.19-.45.76-1.43 1.02-2.19.57-.89-.52-1.79-1-2.72-1.46-.79-.39-1.12-1.35-.73-2.14.39-.79 1.35-1.12 2.14-.73C1525.19 993.11 1526.16 993.61 1527.12 994.18z" clip-rule="evenodd"></path>
  <path fill="#fff" fill-rule="evenodd" d="M1426.31,1034.67c-62.99-7.82-120.72-11.04-173.18-9.65c10.34-31.19,18.95-67.96,26.79-102.62
		c24.04-106.41,41.13-219.93,68.78-219.35c70.63-8.92,151.33-7.22,242.11,5.1c-27.56-0.15-44.63,113.14-68.62,219.35
		c-20.18,89.33-45.59,192.65-92.16,178.33c-26.84-7.31,38.29-63.25-2.44-71C1427.15,1034.76,1426.72,1034.71,1426.31,1034.67z" clip-rule="evenodd"></path>
  <path fill="#fff" fill-rule="evenodd" d="M1253.13,1025.02c52.46-1.39,110.19,1.82,173.18,9.65c-20.41-1.84-29.34,31.83-31.87,60.52
		c-2.74,31.01-3.63,62.81-45.06,64.84c-56.8-8.93-137.35-10.64-241.64-5.14c0.01,0,0.01,0,0.02,0
		c40.79-2.33,41.69-33.96,44.41-64.81c2.59-29.28,11.83-63.75,33.14-60.36c21.53-2.51,44.13-4.07,67.8-4.7
		C1253.12,1025.02,1253.12,1025.02,1253.13,1025.02z" clip-rule="evenodd"></path>
  <path fill="#bcc9e7" fill-rule="evenodd" d="M1434.4,1106.85c-11.55-1.15-25.04-3.09-40.47-5.82c0.17-1.94,0.33-3.89,0.51-5.83
		c2.53-28.69,11.46-62.36,31.87-60.52c0.42,0.05,0.85,0.1,1.27,0.16c40.73,7.76-24.4,63.69,2.44,71
		C1431.5,1106.29,1432.96,1106.63,1434.4,1106.85z" clip-rule="evenodd"></path>
  <path fill="#dee7f5" fill-rule="evenodd" d="M1591.53,776.85c13.68,2.28,26.34,3.63,37.97,4.04c-14.24,26.74-27.02,35.04-38.32,24.9
		C1585.23,799.84,1587.32,789.16,1591.53,776.85z" clip-rule="evenodd"></path>
  <path fill="#d0d9ee" fill-rule="evenodd" d="M1599 809.82c-19.19-.66-36.09-1.81-50.69-3.45 12.9-56.57 25.76-98.31 42.5-98.22 3.12.02 6.38 1.49 9.8 4.6 12.94 14.64-1.49 42-9.07 64.1-4.21 12.3-6.3 22.98-.35 28.93C1593.72 808.05 1596.32 809.4 1599 809.82zM1537.43 742.97c1.35.18 2.59-.78 2.77-2.13.18-1.35-.78-2.59-2.13-2.77-31.03-4.12-63.54-6.56-94.28-7.77-36.94-1.45-71.35-1.13-97.63.22-1.36.07-2.41 1.23-2.34 2.59.07 1.36 1.23 2.41 2.59 2.34 26.17-1.34 60.42-1.67 97.18-.22C1474.21 736.45 1506.56 738.88 1537.43 742.97L1537.43 742.97zM1461.07 1030.26c1.34.24 2.62-.65 2.86-1.99.24-1.34-.65-2.62-1.99-2.86-29.75-5.36-60.93-9.17-90.43-11.71-35.42-3.04-68.57-4.27-94-4.15-1.36.01-2.46 1.11-2.46 2.48 0 1.36 1.11 2.46 2.48 2.46 25.19-.12 58.17 1.1 93.57 4.15C1400.56 1021.16 1431.6 1024.94 1461.07 1030.26L1461.07 1030.26zM1472.11 999.12c1.35.2 2.61-.74 2.81-2.09.2-1.35-.74-2.61-2.09-2.81-30.24-4.48-61.99-7.34-92.07-8.98-36.06-1.96-69.71-2.15-95.44-1.22-1.36.05-2.43 1.19-2.38 2.55.05 1.36 1.19 2.43 2.55 2.38 25.58-.93 59.07-.74 95.01 1.22C1410.39 991.8 1441.97 994.66 1472.11 999.12L1472.11 999.12zM1480.16 970.26c1.35.18 2.59-.78 2.77-2.13.18-1.35-.77-2.59-2.13-2.77-30.58-4.06-62.61-6.47-92.91-7.66-36.4-1.43-70.32-1.11-96.21.21-1.36.07-2.41 1.23-2.34 2.59.07 1.36 1.23 2.41 2.59 2.34 25.78-1.32 59.54-1.64 95.77-.22C1417.86 963.82 1449.74 966.22 1480.16 970.26L1480.16 970.26zM1488.86 943.82c1.35.18 2.59-.78 2.77-2.13.18-1.35-.78-2.59-2.13-2.77-31.03-4.12-63.53-6.56-94.28-7.77-36.94-1.45-71.35-1.13-97.63.22-1.36.07-2.41 1.23-2.34 2.59.07 1.36 1.23 2.41 2.59 2.34 26.17-1.34 60.42-1.67 97.18-.22C1425.64 937.29 1457.99 939.72 1488.86 943.82L1488.86 943.82zM1493.54 915.13c1.35.18 2.59-.78 2.77-2.13.18-1.35-.78-2.59-2.13-2.77-31.03-4.12-63.54-6.56-94.28-7.77-36.94-1.45-71.35-1.13-97.63.22-1.36.07-2.41 1.23-2.34 2.59.07 1.36 1.23 2.41 2.59 2.34 26.17-1.34 60.42-1.66 97.18-.22C1430.31 908.6 1462.67 911.03 1493.54 915.13L1493.54 915.13zM1497.71 886.44c1.35.18 2.59-.78 2.77-2.13.18-1.35-.78-2.59-2.13-2.77-31.03-4.12-63.53-6.56-94.28-7.77-36.94-1.45-71.35-1.13-97.63.22-1.36.07-2.41 1.23-2.34 2.59.07 1.36 1.23 2.41 2.59 2.34 26.17-1.34 60.42-1.67 97.18-.22C1434.49 879.91 1466.85 882.34 1497.71 886.44L1497.71 886.44zM1504.37 857.74c1.35.18 2.59-.78 2.77-2.13.18-1.35-.77-2.59-2.13-2.77-31.03-4.12-63.53-6.56-94.28-7.77-36.94-1.45-71.35-1.13-97.63.22-1.36.07-2.41 1.23-2.34 2.59.07 1.36 1.23 2.41 2.59 2.34 26.17-1.34 60.42-1.66 97.18-.22C1441.15 851.22 1473.5 853.65 1504.37 857.74L1504.37 857.74zM1510.53 829.05c1.35.18 2.59-.78 2.77-2.13.18-1.35-.78-2.59-2.13-2.77-31.03-4.12-63.54-6.56-94.28-7.77-36.94-1.45-71.35-1.13-97.63.22-1.36.07-2.41 1.23-2.34 2.59.07 1.36 1.23 2.41 2.59 2.34 26.17-1.34 60.42-1.66 97.18-.22C1447.31 822.52 1479.66 824.96 1510.53 829.05L1510.53 829.05zM1516.69 800.36c1.35.18 2.59-.77 2.77-2.13.18-1.35-.78-2.59-2.13-2.77-31.03-4.12-63.53-6.56-94.28-7.77-36.94-1.45-71.35-1.13-97.63.22-1.36.07-2.41 1.23-2.34 2.59.07 1.36 1.23 2.41 2.59 2.34 26.17-1.34 60.42-1.67 97.18-.22C1453.47 793.83 1485.82 796.26 1516.69 800.36L1516.69 800.36zM1524.83 771.67c1.35.18 2.59-.78 2.77-2.13.18-1.35-.78-2.59-2.13-2.77-31.03-4.12-63.54-6.56-94.28-7.77-36.94-1.45-71.35-1.13-97.63.22-1.36.07-2.41 1.23-2.34 2.59.07 1.36 1.23 2.41 2.59 2.34 26.17-1.34 60.42-1.66 97.18-.22C1461.61 765.14 1493.96 767.57 1524.83 771.67zM1373.03 1056.45c1.35.18 2.59-.78 2.77-2.13.18-1.35-.78-2.59-2.13-2.77-29.9-3.99-61.23-6.37-90.86-7.56-35.6-1.43-68.76-1.14-94.09.14-1.36.06-2.41 1.22-2.35 2.58.06 1.36 1.22 2.41 2.58 2.35 25.22-1.27 58.23-1.56 93.67-.14C1312.11 1050.11 1343.28 1052.48 1373.03 1056.45L1373.03 1056.45zM1357.77 1107.18c1.35.22 2.61-.69 2.83-2.04.22-1.35-.69-2.61-2.04-2.84-29.78-4.89-61.02-8.22-90.6-10.3-35.49-2.5-68.65-3.21-94.05-2.7-1.36.03-2.44 1.15-2.42 2.51.03 1.36 1.15 2.44 2.51 2.42 25.21-.51 58.21.2 93.63 2.7C1297.09 1099.01 1328.18 1102.31 1357.77 1107.18L1357.77 1107.18zM1363.77 1079.53c1.35.18 2.59-.77 2.77-2.12.18-1.35-.77-2.6-2.12-2.78-29.88-4.06-61.21-6.51-90.85-7.77-35.59-1.51-68.75-1.3-94.09-.09-1.36.06-2.41 1.22-2.35 2.58.06 1.36 1.22 2.41 2.58 2.35 25.22-1.21 58.23-1.42 93.67.09C1302.87 1073.04 1334.03 1075.48 1363.77 1079.53z" clip-rule="evenodd"></path>
  <path fill="#bcc9e7" fill-rule="evenodd" d="M1189.38,821.24h13.43l-1.24,15.47c-0.17,2.15,2.48,3.3,3.92,1.7l15.58-17.17h52.91
		c6.97,0,12.62-5.65,12.62-12.62l0-49.21c0-6.97-5.65-12.62-12.62-12.62h-84.6c-6.97,0-12.62,5.65-12.62,12.62v49.21
		C1176.76,815.59,1182.41,821.24,1189.38,821.24z" clip-rule="evenodd"></path>
  <path fill="#fff" fill-rule="evenodd" d="M1264.11,777.26c-3.07,0-5.56,2.49-5.56,5.56c0,3.07,2.49,5.56,5.56,5.56c3.07,0,5.56-2.49,5.56-5.56
		C1269.67,779.75,1267.18,777.26,1264.11,777.26L1264.11,777.26z M1221.06,777.26c-3.07,0-5.56,2.49-5.56,5.56
		c0,3.07,2.49,5.56,5.56,5.56c3.07,0,5.56-2.49,5.56-5.56C1226.62,779.75,1224.13,777.26,1221.06,777.26L1221.06,777.26z
		 M1199.27,777.26c-3.07,0-5.56,2.49-5.56,5.56c0,3.07,2.49,5.56,5.56,5.56c3.07,0,5.56-2.49,5.56-5.56
		C1204.83,779.75,1202.34,777.26,1199.27,777.26L1199.27,777.26z M1242.32,777.26c-3.07,0-5.56,2.49-5.56,5.56
		c0,3.07,2.49,5.56,5.56,5.56s5.56-2.49,5.56-5.56C1247.88,779.75,1245.39,777.26,1242.32,777.26z" clip-rule="evenodd"></path>
  <path fill="#d0d9ee" fill-rule="evenodd" d="m551.95 1188.06-7.15-17.94c-7.79-.26-15.6-1.77-23.11-4.58l-13.45 13.86-10.99-7.33-10.99-7.33 7.64-17.74c-5.48-5.86-9.88-12.48-13.1-19.58l-19.31.29-2.59-12.95-2.58-12.95 17.94-7.15c.26-7.79 1.77-15.6 4.58-23.11l-13.86-13.45 7.33-10.98 7.33-10.98 17.75 7.63c5.85-5.48 12.48-9.88 19.58-13.1l-.29-19.31 12.95-2.58 12.95-2.58 7.15 17.94c7.79.25 15.6 1.77 23.11 4.58l13.46-13.86 10.99 7.33 10.98 7.33-7.63 17.74c5.49 5.86 9.88 12.48 13.1 19.58l19.31-.29 2.59 12.95 2.58 12.95-17.94 7.15c-.25 7.79-1.77 15.6-4.59 23.11l13.86 13.45-7.33 10.98-7.33 10.98-17.74-7.63c-5.86 5.49-12.48 9.88-19.58 13.1l.28 19.31-12.95 2.58L551.95 1188.06 551.95 1188.06zM547.31 1047.57c-16 0-31.71 7.74-41.25 22.05-15.19 22.76-9.05 53.52 13.71 68.71 8.45 5.64 18 8.34 27.45 8.34 16.01 0 31.71-7.74 41.26-22.05 15.18-22.76 9.05-53.52-13.71-68.71C566.31 1050.26 556.76 1047.57 547.31 1047.57zM1371.94 1391.99l-7.15-17.94c-7.79-.26-15.6-1.77-23.11-4.58l-13.45 13.86-10.99-7.33-10.99-7.33 7.64-17.74c-5.48-5.86-9.88-12.48-13.1-19.58l-19.31.29-2.58-12.95-2.59-12.95 17.94-7.15c.25-7.79 1.77-15.6 4.58-23.11l-13.85-13.45 7.33-10.98 7.33-10.98 17.75 7.63c5.85-5.48 12.48-9.88 19.58-13.1l-.29-19.31 12.95-2.59 12.95-2.58 7.15 17.94c7.79.25 15.6 1.77 23.1 4.58l13.46-13.86 10.99 7.33 10.98 7.33-7.63 17.74c5.49 5.86 9.88 12.48 13.1 19.58l19.31-.29 2.59 12.95 2.58 12.95-17.94 7.15c-.25 7.79-1.77 15.6-4.59 23.11l13.86 13.45-7.33 10.98-7.33 10.98-17.74-7.63c-5.86 5.48-12.48 9.88-19.58 13.1l.28 19.31-12.95 2.58L1371.94 1391.99 1371.94 1391.99zM1367.29 1251.5c-16 0-31.71 7.74-41.25 22.05-15.19 22.76-9.05 53.52 13.71 68.71 8.45 5.64 18 8.34 27.45 8.34 16.01 0 31.71-7.74 41.26-22.05 15.18-22.76 9.05-53.52-13.71-68.71C1386.29 1254.2 1376.74 1251.5 1367.29 1251.5z" clip-rule="evenodd"></path>
  <rect width="568.76" height="744.58" x="577.51" y="669.49" fill="#bcc9e7" fill-rule="evenodd" clip-rule="evenodd"></rect>
  <polygon fill="#fff" fill-rule="evenodd" points="1094.96 1366.39 628.81 1366.39 628.81 717.18 980.54 717.18 1094.96 717.18 1094.96 831.97" clip-rule="evenodd"></polygon>
  <path fill="#d0d9ee" fill-rule="evenodd" d="M980.54,717.18H714.83c0.07,19.2,15.65,34.75,34.87,34.75h224.36c19.22,0,34.8-15.54,34.87-34.75H980.54z" clip-rule="evenodd"></path>
  <path fill="#aab9de" fill-rule="evenodd" d="M1008.94,700.75c0,19.26-15.62,34.88-34.88,34.88H749.71c-19.26,0-34.88-15.62-34.88-34.88
		s15.62-34.88,34.88-34.88h224.36C993.33,665.87,1008.94,681.49,1008.94,700.75z" clip-rule="evenodd"></path>
  <path fill="#aab9de" fill-rule="evenodd" d="M963.23,704.88c0.39-3.05,0.62-6.15,0.62-9.3c0-47.49-45.65-86-101.96-86c-56.32,0-101.97,38.51-101.97,86
		c0,3.15,0.23,6.25,0.61,9.3H963.23z" clip-rule="evenodd"></path>
  <polygon fill="#d0d9ee" fill-rule="evenodd" points="1034.98 1253.54 1020.65 1266.42 1024.67 1285.26 1005.5 1287.24 997.69 1304.87 981.02 1295.2 964.34 1304.87 956.53 1287.24 937.36 1285.25 941.39 1266.41 927.06 1253.54 941.39 1240.65 937.36 1221.8 956.53 1219.82 964.34 1202.2 981.02 1211.87 997.69 1202.2 1005.51 1219.82 1024.67 1221.81 1020.65 1240.65" clip-rule="evenodd"></polygon>
  <rect width="359.7" height="14.32" x="682.04" y="876.03" fill="#d0d9ee" fill-rule="evenodd" clip-rule="evenodd"></rect>
  <rect width="359.7" height="14.31" x="682.04" y="920.37" fill="#d0d9ee" fill-rule="evenodd" clip-rule="evenodd"></rect>
  <rect width="359.7" height="14.32" x="682.04" y="964.7" fill="#d0d9ee" fill-rule="evenodd" clip-rule="evenodd"></rect>
  <rect width="121.44" height="14.32" x="682.04" y="1077.66" fill="#d0d9ee" fill-rule="evenodd" clip-rule="evenodd"></rect>
  <rect width="121.44" height="14.32" x="920.3" y="1077.66" fill="#d0d9ee" fill-rule="evenodd" clip-rule="evenodd"></rect>
  <polygon fill="#e9eff8" fill-rule="evenodd" points="628.81 1366.39 1049.62 1330.75 1094.96 717.18 1094.96 1366.39" clip-rule="evenodd"></polygon>
  <rect width="121.44" height="14.32" x="801.17" y="832.99" fill="#d0d9ee" fill-rule="evenodd" clip-rule="evenodd"></rect>
  <path fill="#99a9d4" fill-rule="evenodd" d="M953.54,1248.39c-1.9-1.9-1.89-4.99,0.02-6.88c1.9-1.89,4.99-1.88,6.88,0.02c4.4,4.44,8.52,8.97,12.33,13.57
		l0.23,0.29c2.18,2.64,4.29,5.31,6.3,8.02c10.87-17.74,21-31.64,30.38-41.68c10.99-11.76,21.2-18.46,30.6-20.05
		c2.65-0.44,5.16,1.35,5.6,4c0.44,2.65-1.35,5.17-4,5.6c-7.22,1.22-15.59,6.92-25.08,17.08c-9.98,10.69-20.96,26.13-32.91,46.29
		c-0.36,0.63-0.86,1.2-1.5,1.63c-2.22,1.51-5.26,0.95-6.77-1.27c-3.18-4.64-6.55-9.12-10.1-13.41l-0.26-0.29
		C961.52,1256.81,957.61,1252.5,953.54,1248.39z" clip-rule="evenodd"></path>
  <polygon fill="#a0785c" fill-rule="evenodd" points="1250.64 1215.96 1256.08 1215.96 1252.46 1168.9" clip-rule="evenodd"></polygon>
  <path fill="#f4ae7c" fill-rule="evenodd" d="M1188.27,1137.57c-1.19-3.08-2.72-9.37-4.32-16.92c-5.65,0.03-11.77,0.35-16.6,3.17
		c0.59,1.79,5.56,16.87,5.56,18.62c0,36.6,4.73,25.79,11.17,28.51c2.21,0.93,5.75,0.11,6.86-1.04c1.11-1.16,7.86-0.24,7.86-0.93
		c0-0.69,2.77-5.59,0-9.66c-2.77-4.08,7.63,4.19,7.63,1.04C1206.45,1156.9,1190.66,1143.75,1188.27,1137.57z" clip-rule="evenodd"></path>
  <path fill="#835f44" fill-rule="evenodd" d="M1211.02,1177.69v-12.87c0-0.26-0.2-0.46-0.44-0.46h-36c-0.24,0-0.44,0.2-0.44,0.46v12.87h-7.08v-12.87
		c0-4.36,3.38-7.92,7.52-7.92h36c4.15,0,7.52,3.56,7.52,7.92v12.87H1211.02z" clip-rule="evenodd"></path>
  <path fill="#a0785c" fill-rule="evenodd" d="M1138,1263.17h114.7v-75.07c0-7.37-5.98-13.35-13.35-13.35h-85.92c-8.52,0-15.43,6.91-15.43,15.43V1263.17z" clip-rule="evenodd"></path>
  <path fill="#c19274" fill-rule="evenodd" d="M1244.7,1175.86c-5.66,2.28-9.66,7.83-9.66,14.31v72.99h17.66v-75.07
		C1252.69,1182.63,1249.4,1177.93,1244.7,1175.86z" clip-rule="evenodd"></path>
  <path fill="#0f3970" fill-rule="evenodd" d="M1144.67,893.62l13.7,13.51l16.32,162.95c0,0,12.06,35.9,16.42,56.48c-5.65,0.04-20.63,4.17-25.46,6.99
		c-6.67-20.33-15.27-59.63-15.27-59.63L1144.67,893.62z" clip-rule="evenodd"></path>
  <path fill="#f4ae7c" fill-rule="evenodd" d="M1206.45 1164.36c0 0-2.45-5.49-5.05-5.26-2.59.22-.73 5.26-.73 5.26S1204.08 1166.72 1206.45 1164.36zM1179.72 1159.08c0 0-4.9 9.03-3.46 10.49 1.45 1.44 6.08.92 6.08.92s5.78 1.91 7.59.09c0 0 8.88-.28 8.88-1.61 0-1.33-4.26-12.07-6.24-12.07-1.97 0-2.8 7.24-2.8 7.24s-.86-5.73-2.38-7.24c-1.51-1.51-4.52 7.24-4.52 7.24S1183.57 1157.43 1179.72 1159.08zM1218.28 1052.05c6.7 3.25 37.18 5.05 37.18 5.05s17.49 15.83 16.49 19.12c-1.01 3.29-2.12 2.31-4.51 5.02-2.39 2.7-7.82 5.1-7.82 5.1s-4.26 3.7-8.97 2.24c-4.71-1.44-15.47-14.27-20.62-15.85-1.06-.32-5.64-1.69-12.28-3.71L1218.28 1052.05z" clip-rule="evenodd"></path>
  <path fill="#f4ae7c" fill-rule="evenodd" d="M1290.8,1030.87c-5.77,4.72-35,13.52-35,13.52s-13.36,19.45-11.62,22.41c1.74,2.96,2.6,1.76,5.55,3.84
		c2.95,2.08,8.78,3.16,8.78,3.16s5,2.61,9.25,0.11c4.25-2.49,11.75-17.46,16.39-20.19c0.96-0.56,5.1-2.95,11.09-6.46L1290.8,1030.87
		z" clip-rule="evenodd"></path>
  <path fill="#0f3d86" fill-rule="evenodd" d="M1377.99,878.84c0,0-17.23,25.33-19.63,55.59c-1,12.6-7.82,34.66-19.24,58.79
		c-5.89,12.45-61.12,34.2-61.12,34.2l13.12,29.33l65.01-30.38l28.24-46.91L1377.99,878.84z" clip-rule="evenodd"></path>
  <path fill="#eb7072" fill-rule="evenodd" d="M1435.56,951.49l0.06-0.06C1435.13,951.4,1435.16,951.42,1435.56,951.49z" clip-rule="evenodd"></path>
  <path fill="#0a0e29" fill-rule="evenodd" d="M1112.3,1110.64c1.71-1.72,75.16,13.77,75.16,13.77l-16.47-116.79l-14.78-70.22l-20.88-50.57
		c0,0-31.31-7.63-33.54-6.22l-5.63,90.61L1112.3,1110.64z" clip-rule="evenodd"></path>
  <path fill="#142d4d" fill-rule="evenodd" d="m1087.37 1399.99-2.2 12.08c0 0 8.35 15.82 16.95 24.41 8.6 8.6 20.02 7.43 20.02.11 0-7.33-14.89-25.63-14.89-34.41C1107.25 1393.4 1087.37 1399.99 1087.37 1399.99zM1487.7 1399.83l2.2 12.08c0 0-8.35 15.82-16.95 24.41-8.6 8.6-20.02 7.43-20.02.12 0-7.33 14.89-25.63 14.89-34.41C1467.82 1393.24 1487.7 1399.83 1487.7 1399.83zM1145.92 1402.2l-3.3 22.32c0 0 13.18 0 22.32 0 9.15 0 34.4 0 34.4 0s-1.83-5.5-18.3-8.79c-16.47-3.28-17.38-9.01-17.38-9.01l1.28-14.41-15-2.21L1145.92 1402.2zM1429.14 1402.04l3.29 22.32c0 0-13.17 0-22.32 0-9.15 0-34.4 0-34.4 0s1.83-5.5 18.3-8.79c16.47-3.28 17.38-9.01 17.38-9.01l-1.28-14.41 15-2.2L1429.14 1402.04z" clip-rule="evenodd"></path>
  <polygon fill="#0f3970" fill-rule="evenodd" points="1122.13 1146.62 1155.62 1264.33 1143.36 1406.22 1164.95 1406.22 1194.6 1256.16 1164.95 1084.34" clip-rule="evenodd"></polygon>
  <path fill="#0f3d86" fill-rule="evenodd" d="M1164.95,1079.76l-19.95,66.94c0,0-30.56,99.95-35.5,157.77c-4.94,57.83,0,97.35,0,97.35l-27.26,4.4
		c0,0-15.74-120.04-9.88-160.3c5.85-40.25-1.31-138.33-1.31-138.33l11.19-27.82H1164.95z" clip-rule="evenodd"></path>
  <path fill="#fff" fill-rule="evenodd" d="M1083.06,895.14c0,0,35.15-18.82,58.01,4.05c22.86,22.86,24.7,87.43,24.7,87.43v74.65l3.28,33.24l-85.63-10.18
		l11.53-113.96L1083.06,895.14z" clip-rule="evenodd"></path>
  <path fill="#0f3970" fill-rule="evenodd" d="M1155.62,1005.84l-56.11-119.08l-36.12,12.44l12.63,106.64l-23.6,119.68c0,0,91.95-7.96,103.21,3.29V1005.84z
		" clip-rule="evenodd"></path>
  <path fill="#142d4d" fill-rule="evenodd" d="M1155.62,1076.41c-24.92-7.8-49.49-15.78-54.98-18.51c-5.07-2.52-16.77-16.14-28.07-34.57l3.45-17.49
		l-4.23-35.73c15.38,21.15,47.19,45.01,56.95,55.21c3.75,3.91,14.23,8.76,26.88,13.6V1076.41z" clip-rule="evenodd"></path>
  <path fill="#0f3970" fill-rule="evenodd" d="M1140.25,899.19c0,0,20.86,66.14,20.86,86.4c0,20.24,16.47,138.82,16.47,138.82h9.88l-13.72-138.82
		l-16.95-63.52L1140.25,899.19z" clip-rule="evenodd"></path>
  <polygon fill="#0f3d86" fill-rule="evenodd" points="1135.33 886.83 1162.8 1007.62 1156.78 922.08 1151.26 916.29 1155.62 917.27 1144.67 893.62" clip-rule="evenodd"></polygon>
  <polygon fill="#fff" fill-rule="evenodd" points="1214.73 1048.66 1230.98 1051.75 1225.56 1077.62 1206.73 1073.08" clip-rule="evenodd"></polygon>
  <path fill="#0f3d86" fill-rule="evenodd" d="M1063.39,899.19c0,0-9.12,0-10.98,35.3c-2.32,44.03,40.87,105.93,52.39,111.43
		c11.53,5.49,110.03,33.84,110.03,33.84l7.32-31.77c0,0-78.61-20.6-90.21-32.21c-11.6-11.6-42.88-57.66-49.7-79.31
		C1076.51,918.28,1063.39,899.19,1063.39,899.19z" clip-rule="evenodd"></path>
  <path fill="#f4ae7c" fill-rule="evenodd" d="M1289.58,980.29c0,0,8.05,2.85,10.72,6.5c3.4,4.66,17.14,13.1,21.04,13.57c3.9,0.47,14.99,3.58,14.99,3.58
		l0.57,18.6c0,0-53.93-16.37-62.72-25.15c-1.66-1.66,2.71-0.31,7.05,1.04c3.64,1.14,7.27,2.27,7.35,1.64
		c0.17-1.39-20.64-5.5-19.13-8.87c0.8-1.81,6.14,0.35,11.2,2.51c4.39,1.86,8.58,3.74,9.43,3.02c1.83-1.54-21.52-7.32-21.07-11.02
		c0.45-3.71,22.94,8.22,22.94,8.22s0.66-1.83-5.36-5.61c-6.02-3.79-11.91-6.96-10.32-8.31c0.78-0.66,4.77,1.75,8.94,4.16
		c4.4,2.54,9,5.08,10.25,4.03C1295.48,988.2,1288.11,982.28,1289.58,980.29z" clip-rule="evenodd"></path>
  <polygon fill="#fff" fill-rule="evenodd" points="1345.54 1002.83 1326.57 1000.36 1322.39 1019.03 1342.79 1023.55" clip-rule="evenodd"></polygon>
  <path fill="#0f3970" fill-rule="evenodd" d="M1394.91,1161.24l35.53,243.86h-20.24l-26.09-129.58c0,0-20.02-128.73-20.02-175.21L1394.91,1161.24z" clip-rule="evenodd"></path>
  <polygon fill="#2a5261" fill-rule="evenodd" points="1420.67 863.15 1421.99 883.7 1373.27 878.16 1386.77 864.22" clip-rule="evenodd"></polygon>
  <path fill="#fff" fill-rule="evenodd" d="M1357.32,1020.88c0.12-69.76,10.81-139.13,26.05-147.96c0,0,17.72-1.21,26.83-1.52
		c13.6-0.45,24.18,6.41,35.47,44.88c7.12,24.25,8.11,78.36,7.35,129.38c-0.34,22.61-2.43,45.27-2.92,61.29
		c-38.4,0-54.97,1.64-92.24,1.64C1355.5,1039.57,1357.28,1041.62,1357.32,1020.88z" clip-rule="evenodd"></path>
  <path fill="#0f3970" fill-rule="evenodd" d="M1370.16,1132.6h-28.71c0,0,3.45-50.25,7.58-102.92c0.11-1.4,0.22-2.79,0.33-4.18
		c6.52,1,14.41,2.14,22.56,3.15c-0.19,11.52-0.39,23.16-0.57,34.29h-0.08l-3.38,45.94l2.58,5.75
		C1370.28,1125.75,1370.16,1132.6,1370.16,1132.6L1370.16,1132.6z M1351.52,998.68c1.56-18.81,3.14-36.71,4.6-51.39
		c0.11-1.08,0.21-2.14,0.32-3.18c6.31-61.96,26.92-71.19,26.92-71.19l0,0c0,0-10.1,54.15-10.1,66.54c0,4.28-0.37,28.58-0.86,58.59
		C1365.76,998.39,1358.1,998.57,1351.52,998.68z" clip-rule="evenodd"></path>
  <path fill="#eb7072" fill-rule="evenodd" d="M1434.36,960.75l0.06-0.07C1433.89,960.65,1433.93,960.67,1434.36,960.75z" clip-rule="evenodd"></path>
  <path fill="#0f3d86" fill-rule="evenodd" d="M1466.71,1403.27c-0.05,0-0.05,0,0-0.01l-50.18-120.62l-26.74-125.12l-19.32-42.89l-2.58-5.75l3.38-45.94
		l-0.99,13.47h25.42c-0.79,19.65-1.43,39.14-1.74,56.19l0,0l0,0l56.48-4.32l1.99,138.73c0,0,29.9,96.1,36.98,134.43
		c0,0-21.7,1.66-22.7,1.81L1466.71,1403.27L1466.71,1403.27z M1371.26,1062.94l24.97,0.61l-24.89-0.61H1371.26L1371.26,1062.94z
		 M1396.23,1063.55" clip-rule="evenodd"></path>
  <polygon fill="#c19274" fill-rule="evenodd" points="1444.05 1064.72 1445.88 1076.41 1370.27 1076.41 1371.26 1062.94" clip-rule="evenodd"></polygon>
  <rect width="19.26" height="10.7" x="1372.25" y="1064.53" fill="#a0785c" fill-rule="evenodd" clip-rule="evenodd"></rect>
  <polygon fill="#0f3970" fill-rule="evenodd" points="1389.79 1157.52 1421.82 1280.85 1463.21 1390.57 1416.53 1282.64" clip-rule="evenodd"></polygon>
  <path fill="#0f3970" fill-rule="evenodd" d="M1393.95,1132.6L1393.95,1132.6l2.71-60.75c10.81-13.6,50.95-65.18,63.59-97.08
		c1.42,20.73,2.75,41.12,2.75,44.28c0,3.63,7.29,57.84,14.04,107.18l-26.6,2.04L1393.95,1132.6c0.31-17.05,0.95-36.54,1.74-56.19
		c0.17-4.28,0.35-8.58,0.54-12.86c0.17-3.99,0.35-7.97,0.53-11.92v-0.02l0.02-0.49l0.01-0.12l0.02-0.37l0.04-0.9l0-0.08
		c0.08-1.81,0.17-3.61,0.25-5.39l0.01-0.22l0.01-0.26l0.02-0.37l0.01-0.12l0.07-1.46l0.01-0.3l0.01-0.18l0.09-1.94l0.02-0.38
		l0.01-0.1l0.05-0.96l0.01-0.18l0.02-0.3l0.01-0.32l0.05-1.12l0.01-0.12l0.02-0.36l0.01-0.26l0.01-0.22l0.02-0.4l0-0.08l0.02-0.48
		l0-0.06l0.02-0.42l0.01-0.2l0.01-0.28l0.02-0.33l0.01-0.14l0.02-0.48l-0.02,0.48l-0.01,0.14l-0.02,0.33l-0.01,0.28l-0.01,0.2
		l-0.02,0.42l0,0.06l-0.02,0.48l0,0.08l-0.02,0.4l-0.01,0.22l-0.01,0.26l-0.02,0.36l-0.01,0.12l-0.05,1.12l-0.01,0.32l-0.02,0.3
		l-0.01,0.18l-0.05,0.96l-0.01,0.1l-0.02,0.38l-0.09,1.94l-0.01,0.18l-0.01,0.3l-0.07,1.46l-0.01,0.12l-0.02,0.37l-0.01,0.26
		l-0.01,0.22c-0.08,1.79-0.17,3.59-0.25,5.39l0,0.08l-0.04,0.9l-0.02,0.37l-0.01,0.12l-0.02,0.49v0.02
		c-0.32,7.02-0.63,14.14-0.92,21.26c0.15-0.19,0.31-0.4,0.48-0.6C1394.99,1105.34,1393.96,1132.51,1393.95,1132.6L1393.95,1132.6z
		 M1396.23,1063.55L1396.23,1063.55L1396.23,1063.55z M1397.69,1031.79L1397.69,1031.79L1397.69,1031.79L1397.69,1031.79
		L1397.69,1031.79L1397.69,1031.79v-0.01v0v0l0,0v0l0,0v0l0,0v0l0,0v0v-0.01v0v-0.01v0l0-0.01l0,0v-0.01v0l0,0v0l0,0v0v0v0v0v0v0
		l0,0v0v0v0v0l0,0l0,0v0l0,0v0v0v0l0,0v0l0,0v0v0v0v0l0,0v0l0,0v0v0v0l0,0v0l0,0l0,0v0v0v0v0l0,0v0v0v0v0v0v0l0,0v0l0,0v0v0.01l0,0
		l0,0.01v0v0.01v0v0.01v0l0,0v0l0,0v0l0,0v0l0,0v0v0V1031.79L1397.69,1031.79L1397.69,1031.79L1397.69,1031.79L1397.69,1031.79
		L1397.69,1031.79L1397.69,1031.79z M1401.47,963.91l0.37-8.39c0,0,0.01-0.01,0.01-0.02l8.95-14.19
		C1407.54,949.07,1404.36,956.78,1401.47,963.91L1401.47,963.91z M1401.85,955.51L1401.85,955.51L1401.85,955.51z M1423.43,912.37
		l-0.32-2.48l16.36-30.39c0.91,0.46,1.85,0.94,2.8,1.46c-0.09-0.04-0.19-0.05-0.29-0.05
		C1438.85,880.91,1431.62,894.49,1423.43,912.37L1423.43,912.37z M1442.27,880.96" clip-rule="evenodd"></path>
  <path fill="#6d8283" fill-rule="evenodd" d="M1397.67,1032.21c0.01-0.13,0.01-0.28,0.02-0.42C1397.69,1031.93,1397.68,1032.06,1397.67,1032.21
		L1397.67,1032.21z M1397.7,1031.67c0.01-0.22,0.02-0.42,0.03-0.63l0,0C1397.72,1031.25,1397.71,1031.46,1397.7,1031.67z" clip-rule="evenodd"></path>
  <path fill="#142d4d" fill-rule="evenodd" d="M1395.84,1072.89c0.56-13.8,1.2-27.62,1.84-40.68c0.01-0.14,0.01-0.27,0.02-0.42c0-0.04,0-0.08,0-0.11
		c0.01-0.22,0.02-0.42,0.03-0.63c0.1,0,0.19,0,0.28,0.01c-0.58,13.77-1.16,27.97-1.69,41.23
		C1396.15,1072.49,1395.99,1072.7,1395.84,1072.89z" clip-rule="evenodd"></path>
  <path fill="#818291" fill-rule="evenodd" d="M1460.25,974.78c-0.78-11.51-1.6-23.12-2.22-31.96l0,0C1458.65,951.66,1459.46,963.27,1460.25,974.78
		L1460.25,974.78z" clip-rule="evenodd"></path>
  <path fill="#142d4d" fill-rule="evenodd" d="M1396.66,1071.86l1.82-40.77c2.47,0.11,4.82,0.17,7.01,0.17c7.56,0,13.22-0.74,15.16-2.68
		c7.21-7.22,28.82-58.88,37.38-85.75c0.62,8.84,1.43,20.45,2.22,31.96C1447.61,1006.68,1407.47,1058.26,1396.66,1071.86z" clip-rule="evenodd"></path>
  <path fill="#142d4d" fill-rule="evenodd" d="M1401.85,955.5l-7.89,177.1C1393.95,1132.6,1400.49,960.67,1401.85,955.5z" clip-rule="evenodd"></path>
  <path fill="#f4ae7c" fill-rule="evenodd" d="M1385.86,845.34c1.12,3.33,0.64,27.06,1.52,33.04c0.87,5.9,27.8,15.04,28.33-6.42
		c0.53-21.46-1.59-46.69-1.59-46.69L1385.86,845.34z" clip-rule="evenodd"></path>
  <path fill="#ed7d5b" fill-rule="evenodd" d="M1385.86,845.34l9.38-6.67c24.91-17.69,28.87-5.75,21.92,6.25c-6.78,11.69-24.1,23.24-29.35,23.91
		c-0.02-0.79-0.99-4.27-1.05-5.08C1385.72,855.38,1373.54,843.01,1385.86,845.34z" clip-rule="evenodd"></path>
  <polygon fill="#0f3d86" fill-rule="evenodd" points="1386.77 864.22 1373.09 954.28 1369.29 908.76 1373.27 903.93 1373.27 878.16" clip-rule="evenodd"></polygon>
  <polygon fill="#fff" fill-rule="evenodd" points="1415.77 860.94 1402.06 881.44 1408.67 894 1429 869.61 1420.67 863.15" clip-rule="evenodd"></polygon>
  <polygon fill="#fff" fill-rule="evenodd" points="1386.77 864.22 1390.42 880.36 1384.65 889.55 1381.87 874" clip-rule="evenodd"></polygon>
  <polygon fill="#0f3d86" fill-rule="evenodd" points="1401.85 955.5 1420.67 863.15 1440.14 878.27 1423.11 909.9 1424.37 919.79" clip-rule="evenodd"></polygon>
  <path fill="#406fb5" fill-rule="evenodd" d="M1390.42,880.36l4.61,3.75l7.02-2.67l3.79,7.22c0,0-15.44,0.83-18.96-2.68L1390.42,880.36z" clip-rule="evenodd"></path>
  <polygon fill="#6998d0" fill-rule="evenodd" points="1401.44 881.43 1390.8 880.67 1391.13 889.99 1399.61 890.38" clip-rule="evenodd"></polygon>
  <polygon fill="#6998d0" fill-rule="evenodd" points="1399.61 890.38 1391.13 889.99 1374.76 1045.66 1381.88 1056.75 1395.18 1047.8" clip-rule="evenodd"></polygon>
  <polygon fill="#406fb5" fill-rule="evenodd" points="1399.61 890.38 1395.97 1048.51 1381.88 1056.75 1393.95 1047.42" clip-rule="evenodd"></polygon>
  <polygon fill="#406fb5" fill-rule="evenodd" points="1402.06 881.44 1399.61 890.38 1400.83 881.44" clip-rule="evenodd"></polygon>
  <path fill="#f4ae7c" fill-rule="evenodd" d="M1100.5,888.31c0.69,5.82,4.69,11.04,10.73,12.94c6.08,1.91,11.84,3.37,15.02,4.13
		c1.09,0.27,2.14-0.58,2.09-1.7c-0.16-4.09,0.7-12.74,1.53-20.22c0.49-4.41,0.97-8.42,1.23-10.84
		c-1.29-3.23-11.06-27.79-10.43-26.22v-0.02l-2.01-5.03C1118.66,841.35,1100.19,885.7,1100.5,888.31z" clip-rule="evenodd"></path>
  <path fill="#ed7d5b" fill-rule="evenodd" d="M1107.15,871.53c1.71,1.72,18.52,15.14,22.13,17.45c0.65-6,1.82-16.35,1.82-16.35s-3.07,2.65-10.4-26.42
		c0,0-0.02,0.07-0.04,0.18v0.02C1120.26,848.89,1104.74,869.14,1107.15,871.53z" clip-rule="evenodd"></path>
  <polygon fill="#142d4d" fill-rule="evenodd" points="1155.62 1005.84 1096.16 929.81 1100.49 922.28 1093.29 922.28 1082.57 892.59 1085.36 892.36 1111.67 913.63" clip-rule="evenodd"></polygon>
  <polygon fill="#0f3d86" fill-rule="evenodd" points="1155.62 1005.84 1104.02 927.53 1109.51 915.82 1097.98 916.54 1082.24 892.09 1101.79 880.62" clip-rule="evenodd"></polygon>
  <path fill="#142d4d" fill-rule="evenodd" d="M1211.97 1070.31c0 1.12-.9 2.02-2.02 2.02-1.12 0-2.02-.9-2.02-2.02 0-1.11.9-2.02 2.02-2.02C1211.07 1068.29 1211.97 1069.2 1211.97 1070.31zM1203.36 1067.97c0 1.11-.9 2.02-2.02 2.02-1.12 0-2.02-.91-2.02-2.02 0-1.11.91-2.02 2.02-2.02C1202.45 1065.95 1203.36 1066.86 1203.36 1067.97zM1194.6 1065.56c0 1.12-.91 2.02-2.02 2.02-1.12 0-2.02-.91-2.02-2.02 0-1.12.91-2.02 2.02-2.02C1193.69 1063.54 1194.6 1064.44 1194.6 1065.56z" clip-rule="evenodd"></path>
  <path fill="#0f3970" fill-rule="evenodd" d="M1414.85 851.1c0 0 5.85-9.3 10.79-13.78 4.93-4.53 11.94-17.65 10.73-33.24-1.21-15.64-12.84-22.29-19.27-24.38-6.42-2.14-30.87-3.19-39.23.43-8.37 3.63-5.63 34.92-5.63 34.92l11.9 24.58L1414.85 851.1zM1106.19 871.88c0 0-5.85-9.3-10.79-13.78-4.93-4.53-11.93-17.65-10.73-33.24 1.21-15.64 12.84-22.29 19.26-24.38 6.42-2.14 30.87-3.19 39.23.43 8.37 3.62 5.63 34.92 5.63 34.92l-11.9 24.58L1106.19 871.88z" clip-rule="evenodd"></path>
  <path fill="#f4ae7c" fill-rule="evenodd" d="M1404.69 787.14c-12.21-5.59-26.51 1.53-29.7 14.38-1.39 5.54-2.84 12.62-3.74 20.37-2.15 18.71 5.77 37.89 14.27 38.69 8.5.85 33.19-9 36.62-35.49C1424.26 808.71 1417.52 793.01 1404.69 787.14zM1116.35 807.93c12.21-5.59 26.51 1.53 29.7 14.38 1.39 5.54 2.84 12.62 3.74 20.37 2.15 18.71-5.77 37.89-14.27 38.69-8.5.85-33.19-9.01-36.62-35.49C1096.79 829.5 1103.53 813.79 1116.35 807.93z" clip-rule="evenodd"></path>
  <path fill="#f4ae7c" fill-rule="evenodd" d="M1415.67 826.57c-.41 4.15 2.02 7.74 5.39 8.1 3.38.31 6.44-2.77 6.85-6.92.39-4.1-2.02-7.74-5.39-8.05C1419.15 819.34 1416.08 822.42 1415.67 826.57zM1105.37 847.36c.41 4.15-2.02 7.74-5.39 8.09-3.37.31-6.44-2.77-6.85-6.92-.39-4.1 2.02-7.74 5.39-8.04C1101.9 840.12 1104.96 843.21 1105.37 847.36z" clip-rule="evenodd"></path>
  <path fill="#0f3970" fill-rule="evenodd" d="M1422.52 819.7c0 0 2.28-8.83 1.86-17.48-.43-8.61-6.98-21.02-15.63-23.22-8.63-2.19-29.14.16-31.52-5.51-2.37-5.67-2.4-5.13-3.26-6.01-1.96-2.08-14.55 5.52-14.68 20.1-.14 14.58 12.73 14.69 15.19 15.21 2.48.57 25.66-7.97 32.57-7.2C1413.97 796.32 1422.52 819.7 1422.52 819.7zM1098.52 840.48c0 0-2.28-8.83-1.86-17.48.43-8.61 6.98-21.02 15.63-23.22 8.63-2.19 29.14.16 31.52-5.51 2.37-5.67 2.4-5.13 3.26-6.01 1.96-2.08 14.55 5.52 14.68 20.1.14 14.58-12.73 14.7-15.19 15.21-2.48.56-25.66-7.97-32.57-7.2C1107.07 817.1 1098.52 840.48 1098.52 840.48z" clip-rule="evenodd"></path>
  <path fill="#e97850" fill-rule="evenodd" d="M1394.29 844c-6.1.83-9.51 1.05-15.51 1.32-2.41.1 3.34 6.09 15.88-1.02C1394.96 844.14 1394.76 843.94 1394.29 844zM1126.76 864.79c6.1.83 9.51 1.05 15.51 1.32 2.4.1-3.34 6.08-15.88-1.02C1126.08 864.93 1126.29 864.72 1126.76 864.79z" clip-rule="evenodd"></path>
  <path fill="#0f3970" fill-rule="evenodd" d="M1396.05 811.19c-2.93.61-2.46 2.95-.19 3.22C1419.98 817.21 1403.32 809.68 1396.05 811.19zM1124.99 831.98c2.93.6 2.46 2.95.19 3.22C1101.06 838 1117.72 830.46 1124.99 831.98zM1382.94 810.87c2.91.71 2.36 3.03.08 3.23C1358.82 816.07 1375.73 809.11 1382.94 810.87zM1138.1 831.66c-2.91.71-2.36 3.03-.08 3.22C1162.22 836.85 1145.31 829.89 1138.1 831.66z" clip-rule="evenodd"></path>
  <path fill="#e97850" fill-rule="evenodd" d="m1387.18 836.98-.15 0c-2.66-.23-4.08-.4-4.69-1.32-.57-.83-.25-1.9.33-3.83.64-2.13 1.61-5.38 2.14-10.59.04-.37.38-.64.76-.61.38.04.66.37.62.76-.54 5.33-1.53 8.65-2.18 10.84-.38 1.27-.7 2.37-.5 2.65.27.41 2.16.58 3.67.71.38.04.66.37.63.76C1387.75 836.68 1387.5 836.93 1387.18 836.98zM1133.86 857.76l.15.01c2.66-.23 4.07-.4 4.69-1.32.57-.84.25-1.9-.33-3.83-.64-2.13-1.61-5.38-2.14-10.59-.04-.38-.38-.64-.76-.61-.38.04-.65.37-.62.76.54 5.32 1.53 8.65 2.18 10.84.38 1.27.71 2.37.51 2.65-.27.41-2.16.58-3.67.71-.38.04-.66.37-.63.76C1133.29 857.46 1133.54 857.72 1133.86 857.76z" clip-rule="evenodd"></path>
  <path fill="#0f3970" fill-rule="evenodd" d="M1377.45 826.5c-1.71.05-3.21-6.44.94-6.54C1380.61 819.91 1380.25 826.43 1377.45 826.5zM1143.59 847.28c1.71.04 3.21-6.44-.94-6.54C1140.43 840.69 1140.79 847.22 1143.59 847.28zM1398.88 826.39c-1.71.03-3.21-6.44.94-6.54C1402.03 819.8 1401.68 826.32 1398.88 826.39zM1122.17 847.17c1.71.03 3.21-6.44-.94-6.54C1119.01 840.58 1119.37 847.11 1122.17 847.17z" clip-rule="evenodd"></path>
  <path fill="#0f3d86" fill-rule="evenodd" d="M1388.61,995.9c-1.22,2.89-52.56,2.89-52.56,2.89l-2.92,24.01c0,0,6.62,1.21,16.24,2.68
		c6.51,1.04,14.42,2.16,22.56,3.15c7.66,0.95,15.5,1.77,22.64,2.25l1.81,0.09l1.66,0.09l0.44,0.04c2.48,0.09,4.84,0.17,7.03,0.17
		c7.55,0,13.21-0.78,15.17-2.68c8.43-8.46,36.69-78.02,40.5-97.11c0.41-2.12,0.59-4.36,0.59-6.69c0-18.52-12.39-41.71-19.49-43.83
		l-0.26-0.04C1433.43,880.92,1394.27,982.3,1388.61,995.9z" clip-rule="evenodd"></path>
</svg>
