<svg xmlns="http://www.w3.org/2000/svg" xmlns:xlink="http://www.w3.org/1999/xlink" width="500" zoomAndPan="magnify" viewBox="0 0 375 374.999991" height="500" preserveAspectRatio="xMidYMid meet" version="1.0"><defs><g/><clipPath id="cbb9bac1f7"><path d="M 170 78.203125 L 208 78.203125 L 208 114 L 170 114 Z M 170 78.203125 " clip-rule="nonzero"/></clipPath></defs><path fill="#83cd2d" d="M 202.371094 123.488281 C 211.289062 117.648438 221.863281 153.640625 232.523438 153.640625 C 243.179688 153.640625 252.394531 117.898438 262.671875 123.488281 C 270.699219 127.859375 235.714844 154.675781 250.023438 168.980469 C 257.210938 176.167969 293.613281 180.199219 291.351562 188.832031 C 288.640625 199.140625 255.773438 183.992188 248.835938 192.082031 C 241.890625 200.175781 255.917969 217.535156 246.140625 221.78125 C 235.164062 226.542969 232.46875 200.933594 228.269531 180.667969 C 223.371094 157.0625 193.820312 129.085938 202.371094 123.488281 " fill-opacity="1" fill-rule="nonzero"/><path fill="#83cd2d" d="M 232.523438 148.515625 C 228.289062 148.515625 224.855469 144.527344 224.855469 139.609375 C 224.855469 134.691406 228.289062 130.703125 232.523438 130.703125 C 236.757812 130.703125 240.1875 134.691406 240.1875 139.609375 C 240.1875 144.527344 236.757812 148.515625 232.523438 148.515625 " fill-opacity="1" fill-rule="nonzero"/><path fill="#f68c11" d="M 180.71875 140.101562 C 188.730469 140.53125 179.117188 167.078125 185.589844 171.828125 C 192.058594 176.578125 213.566406 158.988281 217.3125 166.957031 C 220.242188 173.1875 187.066406 173.878906 189.375 188.929688 C 190.539062 196.496094 210.835938 215.15625 205.617188 219.382812 C 199.382812 224.4375 186.179688 200.605469 178.367188 202.421875 C 170.550781 204.242188 171.328125 221.023438 163.503906 219.246094 C 154.722656 217.246094 164.496094 200.503906 170.96875 186.335938 C 178.511719 169.832031 173.039062 139.691406 180.71875 140.101562 " fill-opacity="1" fill-rule="nonzero"/><path fill="#f68c11" d="M 187.871094 168.71875 C 185.300781 166.832031 184.992188 162.882812 187.183594 159.898438 C 189.375 156.914062 193.234375 156.023438 195.804688 157.90625 C 198.371094 159.792969 198.679688 163.742188 196.488281 166.726562 C 194.300781 169.710938 190.441406 170.601562 187.871094 168.71875 " fill-opacity="1" fill-rule="nonzero"/><path fill="#ed166d" d="M 172.613281 123.488281 C 163.695312 117.648438 153.121094 153.640625 142.460938 153.640625 C 131.800781 153.640625 122.585938 117.898438 112.3125 123.488281 C 104.28125 127.859375 139.265625 154.675781 124.960938 168.980469 C 117.773438 176.167969 81.367188 180.199219 83.632812 188.832031 C 86.339844 199.140625 119.207031 183.992188 126.148438 192.082031 C 133.089844 200.175781 119.066406 217.535156 128.84375 221.78125 C 139.820312 226.542969 142.515625 200.933594 146.714844 180.667969 C 151.613281 157.0625 181.160156 129.089844 172.613281 123.488281 " fill-opacity="1" fill-rule="nonzero"/><path fill="#ed166d" d="M 142.460938 148.515625 C 146.695312 148.515625 150.128906 144.527344 150.128906 139.609375 C 150.128906 134.691406 146.695312 130.703125 142.460938 130.703125 C 138.226562 130.703125 134.792969 134.691406 134.792969 139.609375 C 134.792969 144.527344 138.226562 148.515625 142.460938 148.515625 " fill-opacity="1" fill-rule="nonzero"/><g clip-path="url(#cbb9bac1f7)"><path fill="#f68c11" d="M 188.753906 78.199219 L 194.472656 89.785156 L 207.253906 91.644531 L 198.003906 100.660156 L 200.1875 113.394531 L 188.753906 107.382812 L 177.320312 113.394531 L 179.503906 100.660156 L 170.253906 91.644531 L 183.035156 89.785156 L 188.753906 78.199219 " fill-opacity="1" fill-rule="nonzero"/></g><path fill="#ed166d" d="M 153.316406 108.808594 L 155.386719 113 L 160.011719 113.671875 L 156.664062 116.933594 L 157.453125 121.539062 L 153.316406 119.363281 L 149.179688 121.539062 L 149.96875 116.933594 L 146.625 113.671875 L 151.25 113 L 153.316406 108.808594 " fill-opacity="1" fill-rule="nonzero"/><path fill="#5080d7" d="M 187.167969 118.996094 L 189.234375 123.1875 L 193.859375 123.859375 L 190.511719 127.125 L 191.304688 131.730469 L 187.167969 129.554688 L 183.027344 131.730469 L 183.820312 127.125 L 180.472656 123.859375 L 185.097656 123.1875 L 187.167969 118.996094 " fill-opacity="1" fill-rule="nonzero"/><path fill="#ee1d70" d="M 224.855469 113.394531 L 226.511719 116.746094 L 230.210938 117.285156 L 227.535156 119.894531 L 228.164062 123.582031 L 224.855469 121.84375 L 221.542969 123.582031 L 222.175781 119.894531 L 219.496094 117.285156 L 223.199219 116.746094 L 224.855469 113.394531 " fill-opacity="1" fill-rule="nonzero"/><path fill="#5080d7" d="M 218.539062 105.507812 C 218.539062 107.433594 216.976562 108.996094 215.050781 108.996094 C 213.125 108.996094 211.566406 107.433594 211.566406 105.507812 C 211.566406 103.582031 213.125 102.023438 215.050781 102.023438 C 216.976562 102.023438 218.539062 103.582031 218.539062 105.507812 " fill-opacity="1" fill-rule="nonzero"/><path fill="#ed166d" d="M 247.160156 119.734375 C 247.160156 121.253906 245.929688 122.484375 244.410156 122.484375 C 242.894531 122.484375 241.664062 121.253906 241.664062 119.734375 C 241.664062 118.214844 242.894531 116.984375 244.410156 116.984375 C 245.929688 116.984375 247.160156 118.214844 247.160156 119.734375 " fill-opacity="1" fill-rule="nonzero"/><path fill="#ee1d70" d="M 167.582031 108.996094 C 167.582031 110.46875 166.386719 111.664062 164.910156 111.664062 C 163.433594 111.664062 162.238281 110.46875 162.238281 108.996094 C 162.238281 107.519531 163.433594 106.324219 164.910156 106.324219 C 166.386719 106.324219 167.582031 107.519531 167.582031 108.996094 " fill-opacity="1" fill-rule="nonzero"/><g fill="#5080d7" fill-opacity="1"><g transform="translate(70.160043, 250.018695)"><g><path d="M 7.25 0.3125 C 5.957031 0.3125 4.84375 0.0976562 3.90625 -0.328125 C 2.96875 -0.753906 2.242188 -1.363281 1.734375 -2.15625 C 1.222656 -2.945312 0.96875 -3.875 0.96875 -4.9375 L 4.421875 -4.9375 C 4.421875 -4.195312 4.675781 -3.617188 5.1875 -3.203125 C 5.695312 -2.796875 6.378906 -2.59375 7.234375 -2.59375 C 7.960938 -2.59375 8.539062 -2.734375 8.96875 -3.015625 C 9.40625 -3.304688 9.625 -3.707031 9.625 -4.21875 C 9.625 -4.769531 9.363281 -5.210938 8.84375 -5.546875 C 8.320312 -5.890625 7.519531 -6.175781 6.4375 -6.40625 C 4.625 -6.789062 3.28125 -7.375 2.40625 -8.15625 C 1.539062 -8.9375 1.109375 -9.953125 1.109375 -11.203125 C 1.109375 -12.617188 1.625 -13.734375 2.65625 -14.546875 C 3.6875 -15.367188 5.09375 -15.78125 6.875 -15.78125 C 8.101562 -15.78125 9.164062 -15.570312 10.0625 -15.15625 C 10.957031 -14.738281 11.648438 -14.148438 12.140625 -13.390625 C 12.640625 -12.628906 12.890625 -11.722656 12.890625 -10.671875 L 9.5 -10.671875 C 9.5 -11.367188 9.269531 -11.914062 8.8125 -12.3125 C 8.363281 -12.707031 7.734375 -12.90625 6.921875 -12.90625 C 6.179688 -12.90625 5.597656 -12.757812 5.171875 -12.46875 C 4.742188 -12.1875 4.53125 -11.789062 4.53125 -11.28125 C 4.53125 -10.800781 4.765625 -10.398438 5.234375 -10.078125 C 5.710938 -9.753906 6.539062 -9.453125 7.71875 -9.171875 C 9.644531 -8.710938 11.035156 -8.097656 11.890625 -7.328125 C 12.742188 -6.566406 13.171875 -5.578125 13.171875 -4.359375 C 13.171875 -2.898438 12.644531 -1.753906 11.59375 -0.921875 C 10.539062 -0.0976562 9.09375 0.3125 7.25 0.3125 Z M 7.25 0.3125 "/></g></g></g><g fill="#5080d7" fill-opacity="1"><g transform="translate(84.327153, 250.018695)"><g><path d="M 8.953125 0.3125 C 7.390625 0.3125 6.003906 -0.03125 4.796875 -0.71875 C 3.585938 -1.40625 2.644531 -2.351562 1.96875 -3.5625 C 1.289062 -4.769531 0.953125 -6.160156 0.953125 -7.734375 C 0.953125 -9.316406 1.289062 -10.710938 1.96875 -11.921875 C 2.644531 -13.128906 3.582031 -14.070312 4.78125 -14.75 C 5.988281 -15.4375 7.375 -15.78125 8.9375 -15.78125 C 10.25 -15.78125 11.445312 -15.53125 12.53125 -15.03125 C 13.625 -14.53125 14.539062 -13.820312 15.28125 -12.90625 C 16.03125 -12 16.550781 -10.925781 16.84375 -9.6875 L 13.21875 -9.6875 C 12.925781 -10.539062 12.40625 -11.210938 11.65625 -11.703125 C 10.90625 -12.203125 10.035156 -12.453125 9.046875 -12.453125 C 8.171875 -12.453125 7.390625 -12.25 6.703125 -11.84375 C 6.023438 -11.445312 5.492188 -10.894531 5.109375 -10.1875 C 4.722656 -9.476562 4.53125 -8.660156 4.53125 -7.734375 C 4.53125 -6.804688 4.722656 -5.988281 5.109375 -5.28125 C 5.492188 -4.570312 6.023438 -4.019531 6.703125 -3.625 C 7.378906 -3.226562 8.148438 -3.03125 9.015625 -3.03125 C 10.035156 -3.03125 10.925781 -3.289062 11.6875 -3.8125 C 12.457031 -4.332031 13.003906 -5.035156 13.328125 -5.921875 L 16.953125 -5.921875 C 16.703125 -4.671875 16.203125 -3.578125 15.453125 -2.640625 C 14.703125 -1.703125 13.769531 -0.972656 12.65625 -0.453125 C 11.539062 0.0546875 10.304688 0.3125 8.953125 0.3125 Z M 8.953125 0.3125 "/></g></g></g><g fill="#5080d7" fill-opacity="1"><g transform="translate(102.163124, 250.018695)"><g><path d="M 11.4375 0 L 11.4375 -6.234375 L 5.375 -6.234375 L 5.375 0 L 1.859375 0 L 1.859375 -15.46875 L 5.375 -15.46875 L 5.375 -9.53125 L 11.4375 -9.53125 L 11.4375 -15.46875 L 14.953125 -15.46875 L 14.953125 0 Z M 11.4375 0 "/></g></g></g><g fill="#5080d7" fill-opacity="1"><g transform="translate(118.960326, 250.018695)"><g><path d="M 9.203125 0.3125 C 7.585938 0.3125 6.15625 -0.03125 4.90625 -0.71875 C 3.664062 -1.40625 2.695312 -2.351562 2 -3.5625 C 1.300781 -4.769531 0.953125 -6.160156 0.953125 -7.734375 C 0.953125 -9.316406 1.300781 -10.710938 2 -11.921875 C 2.695312 -13.128906 3.664062 -14.070312 4.90625 -14.75 C 6.15625 -15.4375 7.585938 -15.78125 9.203125 -15.78125 C 10.816406 -15.78125 12.242188 -15.4375 13.484375 -14.75 C 14.722656 -14.070312 15.695312 -13.128906 16.40625 -11.921875 C 17.113281 -10.710938 17.46875 -9.316406 17.46875 -7.734375 C 17.46875 -6.160156 17.113281 -4.769531 16.40625 -3.5625 C 15.695312 -2.351562 14.722656 -1.40625 13.484375 -0.71875 C 12.242188 -0.03125 10.816406 0.3125 9.203125 0.3125 Z M 4.53125 -7.734375 C 4.53125 -6.804688 4.726562 -5.988281 5.125 -5.28125 C 5.519531 -4.570312 6.066406 -4.019531 6.765625 -3.625 C 7.472656 -3.226562 8.285156 -3.03125 9.203125 -3.03125 C 10.128906 -3.03125 10.941406 -3.226562 11.640625 -3.625 C 12.335938 -4.019531 12.878906 -4.570312 13.265625 -5.28125 C 13.660156 -5.988281 13.859375 -6.804688 13.859375 -7.734375 C 13.859375 -8.660156 13.660156 -9.476562 13.265625 -10.1875 C 12.878906 -10.894531 12.335938 -11.445312 11.640625 -11.84375 C 10.941406 -12.25 10.128906 -12.453125 9.203125 -12.453125 C 8.285156 -12.453125 7.472656 -12.25 6.765625 -11.84375 C 6.066406 -11.445312 5.519531 -10.894531 5.125 -10.1875 C 4.726562 -9.476562 4.53125 -8.660156 4.53125 -7.734375 Z M 4.53125 -7.734375 "/></g></g></g><g fill="#5080d7" fill-opacity="1"><g transform="translate(137.370938, 250.018695)"><g><path d="M 9.203125 0.3125 C 7.585938 0.3125 6.15625 -0.03125 4.90625 -0.71875 C 3.664062 -1.40625 2.695312 -2.351562 2 -3.5625 C 1.300781 -4.769531 0.953125 -6.160156 0.953125 -7.734375 C 0.953125 -9.316406 1.300781 -10.710938 2 -11.921875 C 2.695312 -13.128906 3.664062 -14.070312 4.90625 -14.75 C 6.15625 -15.4375 7.585938 -15.78125 9.203125 -15.78125 C 10.816406 -15.78125 12.242188 -15.4375 13.484375 -14.75 C 14.722656 -14.070312 15.695312 -13.128906 16.40625 -11.921875 C 17.113281 -10.710938 17.46875 -9.316406 17.46875 -7.734375 C 17.46875 -6.160156 17.113281 -4.769531 16.40625 -3.5625 C 15.695312 -2.351562 14.722656 -1.40625 13.484375 -0.71875 C 12.242188 -0.03125 10.816406 0.3125 9.203125 0.3125 Z M 4.53125 -7.734375 C 4.53125 -6.804688 4.726562 -5.988281 5.125 -5.28125 C 5.519531 -4.570312 6.066406 -4.019531 6.765625 -3.625 C 7.472656 -3.226562 8.285156 -3.03125 9.203125 -3.03125 C 10.128906 -3.03125 10.941406 -3.226562 11.640625 -3.625 C 12.335938 -4.019531 12.878906 -4.570312 13.265625 -5.28125 C 13.660156 -5.988281 13.859375 -6.804688 13.859375 -7.734375 C 13.859375 -8.660156 13.660156 -9.476562 13.265625 -10.1875 C 12.878906 -10.894531 12.335938 -11.445312 11.640625 -11.84375 C 10.941406 -12.25 10.128906 -12.453125 9.203125 -12.453125 C 8.285156 -12.453125 7.472656 -12.25 6.765625 -11.84375 C 6.066406 -11.445312 5.519531 -10.894531 5.125 -10.1875 C 4.726562 -9.476562 4.53125 -8.660156 4.53125 -7.734375 Z M 4.53125 -7.734375 "/></g></g></g><g fill="#5080d7" fill-opacity="1"><g transform="translate(155.781551, 250.018695)"><g><path d="M 1.859375 0 L 1.859375 -15.46875 L 5.375 -15.46875 L 5.375 -3.296875 L 12.140625 -3.296875 L 12.140625 0 Z M 1.859375 0 "/></g></g></g><g fill="#5080d7" fill-opacity="1"><g transform="translate(168.512061, 250.018695)"><g/></g></g><g fill="#5080d7" fill-opacity="1"><g transform="translate(173.705927, 250.018695)"><g><path d="M 1.859375 0 L 1.859375 -15.46875 L 5.375 -15.46875 L 5.375 0 Z M 1.859375 0 "/></g></g></g><g fill="#5080d7" fill-opacity="1"><g transform="translate(180.933145, 250.018695)"><g><path d="M 1.859375 0 L 1.859375 -15.46875 L 4.84375 -15.46875 L 11.671875 -6.0625 L 11.671875 -15.46875 L 15.171875 -15.46875 L 15.171875 0 L 12.1875 0 L 5.34375 -9.484375 L 5.34375 0 Z M 1.859375 0 "/></g></g></g><g fill="#5080d7" fill-opacity="1"><g transform="translate(197.951367, 250.018695)"><g><path d="M 1.859375 0 L 1.859375 -15.46875 L 7.984375 -15.46875 C 9.617188 -15.46875 11.046875 -15.144531 12.265625 -14.5 C 13.492188 -13.851562 14.445312 -12.945312 15.125 -11.78125 C 15.800781 -10.613281 16.140625 -9.265625 16.140625 -7.734375 C 16.140625 -6.191406 15.800781 -4.84375 15.125 -3.6875 C 14.445312 -2.53125 13.492188 -1.625 12.265625 -0.96875 C 11.046875 -0.320312 9.617188 0 7.984375 0 Z M 5.375 -3.234375 L 7.921875 -3.234375 C 8.828125 -3.234375 9.625 -3.421875 10.3125 -3.796875 C 11.007812 -4.171875 11.550781 -4.695312 11.9375 -5.375 C 12.332031 -6.050781 12.53125 -6.835938 12.53125 -7.734375 C 12.53125 -8.648438 12.332031 -9.441406 11.9375 -10.109375 C 11.550781 -10.785156 11.007812 -11.3125 10.3125 -11.6875 C 9.613281 -12.0625 8.800781 -12.25 7.875 -12.25 L 5.375 -12.25 Z M 5.375 -3.234375 "/></g></g></g><g fill="#5080d7" fill-opacity="1"><g transform="translate(215.013786, 250.018695)"><g><path d="M 1.859375 0 L 1.859375 -15.46875 L 5.375 -15.46875 L 5.375 0 Z M 1.859375 0 "/></g></g></g><g fill="#5080d7" fill-opacity="1"><g transform="translate(222.241004, 250.018695)"><g><path d="M 8.953125 0.3125 C 7.390625 0.3125 6.003906 -0.03125 4.796875 -0.71875 C 3.585938 -1.40625 2.644531 -2.351562 1.96875 -3.5625 C 1.289062 -4.769531 0.953125 -6.160156 0.953125 -7.734375 C 0.953125 -9.316406 1.289062 -10.710938 1.96875 -11.921875 C 2.644531 -13.128906 3.582031 -14.070312 4.78125 -14.75 C 5.988281 -15.4375 7.375 -15.78125 8.9375 -15.78125 C 10.25 -15.78125 11.445312 -15.53125 12.53125 -15.03125 C 13.625 -14.53125 14.539062 -13.820312 15.28125 -12.90625 C 16.03125 -12 16.550781 -10.925781 16.84375 -9.6875 L 13.21875 -9.6875 C 12.925781 -10.539062 12.40625 -11.210938 11.65625 -11.703125 C 10.90625 -12.203125 10.035156 -12.453125 9.046875 -12.453125 C 8.171875 -12.453125 7.390625 -12.25 6.703125 -11.84375 C 6.023438 -11.445312 5.492188 -10.894531 5.109375 -10.1875 C 4.722656 -9.476562 4.53125 -8.660156 4.53125 -7.734375 C 4.53125 -6.804688 4.722656 -5.988281 5.109375 -5.28125 C 5.492188 -4.570312 6.023438 -4.019531 6.703125 -3.625 C 7.378906 -3.226562 8.148438 -3.03125 9.015625 -3.03125 C 10.035156 -3.03125 10.925781 -3.289062 11.6875 -3.8125 C 12.457031 -4.332031 13.003906 -5.035156 13.328125 -5.921875 L 16.953125 -5.921875 C 16.703125 -4.671875 16.203125 -3.578125 15.453125 -2.640625 C 14.703125 -1.703125 13.769531 -0.972656 12.65625 -0.453125 C 11.539062 0.0546875 10.304688 0.3125 8.953125 0.3125 Z M 8.953125 0.3125 "/></g></g></g><g fill="#5080d7" fill-opacity="1"><g transform="translate(240.076975, 250.018695)"><g><path d="M 0.203125 0 L 6.34375 -15.46875 L 9.796875 -15.46875 L 15.9375 0 L 12.1875 0 L 11.140625 -2.671875 L 5 -2.671875 L 3.953125 0 Z M 5.90625 -5.4375 L 10.265625 -5.4375 L 8.0625 -11.09375 Z M 5.90625 -5.4375 "/></g></g></g><g fill="#5080d7" fill-opacity="1"><g transform="translate(256.211129, 250.018695)"><g><path d="M 5.578125 0 L 5.578125 -12.1875 L 0.65625 -12.1875 L 0.65625 -15.46875 L 14 -15.46875 L 14 -12.1875 L 9.09375 -12.1875 L 9.09375 0 Z M 5.578125 0 "/></g></g></g><g fill="#5080d7" fill-opacity="1"><g transform="translate(270.864475, 250.018695)"><g><path d="M 9.203125 0.3125 C 7.585938 0.3125 6.15625 -0.03125 4.90625 -0.71875 C 3.664062 -1.40625 2.695312 -2.351562 2 -3.5625 C 1.300781 -4.769531 0.953125 -6.160156 0.953125 -7.734375 C 0.953125 -9.316406 1.300781 -10.710938 2 -11.921875 C 2.695312 -13.128906 3.664062 -14.070312 4.90625 -14.75 C 6.15625 -15.4375 7.585938 -15.78125 9.203125 -15.78125 C 10.816406 -15.78125 12.242188 -15.4375 13.484375 -14.75 C 14.722656 -14.070312 15.695312 -13.128906 16.40625 -11.921875 C 17.113281 -10.710938 17.46875 -9.316406 17.46875 -7.734375 C 17.46875 -6.160156 17.113281 -4.769531 16.40625 -3.5625 C 15.695312 -2.351562 14.722656 -1.40625 13.484375 -0.71875 C 12.242188 -0.03125 10.816406 0.3125 9.203125 0.3125 Z M 4.53125 -7.734375 C 4.53125 -6.804688 4.726562 -5.988281 5.125 -5.28125 C 5.519531 -4.570312 6.066406 -4.019531 6.765625 -3.625 C 7.472656 -3.226562 8.285156 -3.03125 9.203125 -3.03125 C 10.128906 -3.03125 10.941406 -3.226562 11.640625 -3.625 C 12.335938 -4.019531 12.878906 -4.570312 13.265625 -5.28125 C 13.660156 -5.988281 13.859375 -6.804688 13.859375 -7.734375 C 13.859375 -8.660156 13.660156 -9.476562 13.265625 -10.1875 C 12.878906 -10.894531 12.335938 -11.445312 11.640625 -11.84375 C 10.941406 -12.25 10.128906 -12.453125 9.203125 -12.453125 C 8.285156 -12.453125 7.472656 -12.25 6.765625 -11.84375 C 6.066406 -11.445312 5.519531 -10.894531 5.125 -10.1875 C 4.726562 -9.476562 4.53125 -8.660156 4.53125 -7.734375 Z M 4.53125 -7.734375 "/></g></g></g><g fill="#5080d7" fill-opacity="1"><g transform="translate(289.275087, 250.018695)"><g><path d="M 1.859375 0 L 1.859375 -15.46875 L 8.46875 -15.46875 C 9.644531 -15.46875 10.664062 -15.253906 11.53125 -14.828125 C 12.40625 -14.398438 13.078125 -13.789062 13.546875 -13 C 14.023438 -12.207031 14.265625 -11.253906 14.265625 -10.140625 C 14.265625 -9.015625 14.003906 -8.039062 13.484375 -7.21875 C 12.972656 -6.394531 12.25 -5.78125 11.3125 -5.375 L 14.53125 0 L 10.453125 0 L 7.6875 -4.8125 L 5.375 -4.8125 L 5.375 0 Z M 5.328125 -7.78125 L 8 -7.78125 C 8.875 -7.78125 9.539062 -7.984375 10 -8.390625 C 10.46875 -8.796875 10.703125 -9.375 10.703125 -10.125 C 10.703125 -10.875 10.46875 -11.453125 10 -11.859375 C 9.539062 -12.265625 8.875 -12.46875 8 -12.46875 L 5.328125 -12.46875 Z M 5.328125 -7.78125 "/></g></g></g></svg>