<svg xmlns="http://www.w3.org/2000/svg" width="1942.38" height="1385.889" enable-background="new 0 0 2500 2500" viewBox="273.91 574.006 1942.38 1385.889" id="team-doing-data-analysis">
  <g>
    <g>
      <path fill="#e9eef8" fill-rule="evenodd" d="M1245.1,1819.5c205.4,0,394.4,3.1,544.4,8.2c367.1-209.8,240-618.7,108.2-850.1    c-183.4-321.9-616.8-437.6-796.1-180.8c-243.3,348.6-478.1,227-604.8,491.8c-126.7,264.8,65.7,518.6,204,539.1    C850.7,1822.5,1039.7,1819.5,1245.1,1819.5L1245.1,1819.5z M923.5,926.7c-93.9,71.5-249.3,126.9-300.9,50.9    c-38.6-56.8,8.9-163.4,101.9-244.1c92.9-80.7,217.5-129.6,285.3-70.2C1090.4,733.9,995.8,871.7,923.5,926.7z" clip-rule="evenodd"></path>
    </g>
    <g>
      <path fill="#d2deec" fill-rule="evenodd" d="M1245.1,1819.5c487.6,0,882.9,17.3,882.9,38.7c0,21.4-395.3,38.7-882.9,38.7c-487.6,0-882.9-17.3-882.9-38.7    C362.2,1836.8,757.5,1819.5,1245.1,1819.5z" clip-rule="evenodd"></path>
    </g>
    <g>
      <path fill="#fff" fill-rule="evenodd" d="M1529.8,752.1c220.5,49.1,360.8,251.9,374.6,349.8c5.6,40.2-4.8-53.8-117.3-139.5    c-100.5-76.5-178.8-90.7-298.4-99.9c-84.5-6.5-173-16.9-166.7-67.3C1326.9,755.4,1387.4,720.3,1529.8,752.1L1529.8,752.1z     M953.2,670c38,2.3,61.1,33.5,62.7,69.4c0.7,15.3-11.3-24.7-53.4-30.3c-26.1-3.4-30,4.2-39.4-6.5    C913.7,691.9,922.6,668.2,953.2,670z" clip-rule="evenodd"></path>
    </g>
    <g>
      <path fill="#d2deec" fill-rule="evenodd" d="M676.3,1730.4c-10.1-12.6-24.2-23-28.4-38.6c-4.9-18.4,5.9-37.8,3.2-56.6c-3.4-23.7-26.2-39.1-38.6-59.6    c-12.1-20.1-6.5-26.8-7.6-50.3c-1.7-35.3-30.6-79.9-69.2-67.9c-39.2,12.2-32.8,48.6-25.9,76c4.9,19.5,1.7,22.3-3.1,41.9    c-5.8,23.6-24.4,46.4-16.6,69.5c4.8,14.2,18.8,23.9,23.8,38c5.7,16-1.2,33.4-3.9,50.3c-5.6,35.4,2.4,64.9,28.2,94.2    c2.8,2.6,5.6,5.1,8.6,7.3c36.1-2,76.6-3.9,121.1-5.6l0.3-0.4C691.9,1802.8,699,1758.7,676.3,1730.4z" clip-rule="evenodd"></path>
    </g>
    <g>
      <path fill="#fff" fill-rule="evenodd" d="M553.5,1489.2c-0.6-1.6-2.4-2.4-4-1.8c-1.6,0.6-2.4,2.4-1.8,4c3.1,8,5.6,16.4,7.8,25.1    c-0.9-0.8-1.8-1.6-2.8-2.3c-4.2-3.4-9-6.3-14.3-8.9c-1.5-0.7-3.4-0.1-4.1,1.5c-0.7,1.5-0.1,3.4,1.5,4.1c4.9,2.3,9.3,5,13.1,8.1    c3.6,2.9,6.8,6.2,9.4,9.8c4,18.9,6.5,39.2,8.9,60.6c-3.6-5.6-7.4-10.6-11.5-15c-7.1-7.7-14.9-13.7-23.5-17.9    c-1.5-0.8-3.4-0.1-4.1,1.4c-0.8,1.5-0.1,3.4,1.4,4.1c7.9,3.9,15.1,9.4,21.7,16.6c6.5,7.1,12.4,15.8,17.7,26.1l0.6,5.8    c1.3,12.8,2.7,25.9,4.3,39.2c0,0.1,0,0.3,0,0.4c1.7,14,3.6,28.3,6.1,42.8c-6.7-10.3-13.9-19.5-21.6-27.4    c-11.3-11.6-23.7-20.7-37.2-27.2c-1.5-0.7-3.4-0.1-4.1,1.4c-0.7,1.5-0.1,3.4,1.5,4.1c12.8,6.2,24.6,14.8,35.4,25.9    c10.8,11.1,20.5,24.6,29.3,40.6c3.8,19.2,8.7,38.8,15.1,58.6l0,0l0,0.1v0c3.2,9.7,6.7,19.5,10.7,29.3c-9.4-8-19.3-15-29.8-20.9    c-14.7-8.2-30.4-14.2-47.2-18.1c-1.7-0.4-3.3,0.6-3.7,2.3c-0.4,1.7,0.7,3.3,2.3,3.7c16.3,3.8,31.5,9.6,45.6,17.5    c14,7.8,26.9,17.6,38.8,29.4c2.7,6.1,5.7,12.2,8.8,18.3l6.8-0.3c-11-21.1-19.5-42.1-26.3-62.9c-1.2-15.1,0.6-30.2,5.4-45.3    c4.8-15.3,12.7-30.6,23.6-46c1-1.4,0.7-3.3-0.7-4.3c-1.4-1-3.3-0.7-4.3,0.7c-11.3,15.9-19.4,31.8-24.4,47.7    c-2.8,9-4.7,18.1-5.5,27.1c-9.3-33.5-14.4-66.3-18.2-97.6c3.6-13.3,7.7-24.5,12.2-33.7c4.5-9.1,9.3-16.2,14.5-21.1    c1.2-1.2,1.3-3.1,0.1-4.4c-1.2-1.2-3.1-1.3-4.4-0.1c-5.8,5.5-11.1,13.1-15.9,22.9c-3,6.1-5.8,13.1-8.4,20.9    c-0.9-8.3-1.7-16.4-2.6-24.4l-0.6-6.2c0-0.1,0-0.2,0-0.3C570.6,1560.8,566.1,1522.1,553.5,1489.2z" clip-rule="evenodd"></path>
    </g>
    <g>
      <path fill="#c4def3" fill-rule="evenodd" d="M572.7,1747c-10.7-5.8-23.7-8.9-31.2-18.5c-8.9-11.4-7.1-28-14.5-40.4c-9.4-15.5-29.8-19.5-44.6-30.1    c-14.4-10.4-12.4-16.8-20.2-32.8c-11.6-24.1-45-46.6-68.4-26.8c-23.7,20.1-8.4,43.6,4.5,60.6c9.2,12.1,7.8,15,10.3,30.1    c3,18.2-3.2,39.6,9,53.3c7.6,8.5,20.2,11.1,27.9,19.4c8.7,9.5,9.1,23.7,12.2,36.2c4.1,16.6,11.4,30,22.8,40.7    c30.9-2.3,67.2-4.5,108.2-6.5c3.1-4.5,5.7-9.4,7.5-14.6C605,1792.8,596.8,1760,572.7,1747z" clip-rule="evenodd"></path>
    </g>
    <g>
      <path fill="#fff" fill-rule="evenodd" d="M415.7,1615.4c-0.9-0.9-2.4-1-3.3-0.1c-0.9,0.9-1,2.4-0.1,3.3c4.5,4.7,8.8,9.7,12.9,15.2    c-0.9-0.3-1.7-0.6-2.6-0.8c-3.9-1.1-8.1-1.7-12.6-1.9c-1.3-0.1-2.4,1-2.4,2.2c0,1.3,1,2.4,2.2,2.4c4.1,0.2,7.9,0.7,11.5,1.8    c3.4,1,6.5,2.3,9.5,4c8.4,12,16.2,25.4,24.1,39.6c-4.2-2.8-8.3-5.2-12.4-7.1c-7.2-3.3-14.4-5.1-21.7-5.5c-1.3-0.1-2.4,0.9-2.5,2.2    c-0.1,1.3,0.9,2.4,2.2,2.5c6.6,0.4,13.3,2.1,20,5.1c6.7,3,13.3,7.3,20,12.9l2.1,3.9c4.7,8.5,9.5,17.2,14.6,26.1    c0,0.1,0.1,0.2,0.1,0.3c5.3,9.2,10.9,18.6,16.9,28c-7.7-5.2-15.4-9.4-23.2-12.7c-11.3-4.8-22.6-7.4-34-7.9    c-1.3-0.1-2.4,0.9-2.4,2.2c-0.1,1.3,0.9,2.4,2.2,2.4c10.8,0.5,21.5,3,32.3,7.6c10.8,4.5,21.6,11.1,32.4,19.6    c8.4,12.3,17.5,24.5,27.9,36.4l0,0l0,0l0,0c5.1,5.8,10.4,11.6,16.1,17.2c-8.9-2.8-17.9-4.7-27-5.7c-12.6-1.3-25.4-0.9-38.3,1.4    c-1.3,0.2-2.1,1.4-1.9,2.7c0.2,1.3,1.4,2.1,2.7,1.9c12.5-2.2,24.8-2.7,37-1.4c12,1.3,24,4.3,35.8,9c4.1,3.8,8.3,7.5,12.7,11.1    l7-0.4c-15.3-12.2-28.6-25.3-40.4-38.8c-5.3-10.2-8.5-21.2-9.7-33.1c-1.2-12.1-0.3-25.1,2.8-39c0.3-1.3-0.5-2.5-1.8-2.8    c-1.3-0.3-2.5,0.5-2.8,1.8c-3.1,14.4-4.1,27.9-2.9,40.5c0.7,7.1,2.1,14,4.2,20.5c-16.4-20.6-29.7-41.9-41.6-62.6    c-1.4-10.3-1.9-19.3-1.5-27.1c0.4-7.7,1.7-14,3.9-19c0.5-1.2,0-2.6-1.2-3.1c-1.2-0.5-2.6,0-3.1,1.2c-2.4,5.5-3.8,12.4-4.3,20.7    c-0.3,5.1-0.1,10.8,0.4,17c-3.1-5.5-6.1-10.9-9-16.3l-2.3-4.2c0-0.1-0.1-0.2-0.1-0.2C448.7,1660.2,434.2,1634.6,415.7,1615.4z" clip-rule="evenodd"></path>
    </g>
    <g>
      <path fill="#d2deec" fill-rule="evenodd" d="M1774.8,1718.4c11-13.8,26.4-25.1,31-42.1c5.4-20.1-6.4-41.2-3.5-61.8c3.7-25.9,28.6-42.7,42.1-65    c13.3-21.9,7-29.3,8.3-54.9c1.8-38.5,33.4-87.2,75.6-74.2c42.8,13.3,35.8,53,28.3,82.9c-5.4,21.3-1.9,24.4,3.3,45.7    c6.3,25.8,26.6,50.7,18.1,75.8c-5.2,15.5-20.5,26-26,41.5c-6.2,17.5,1.3,36.5,4.2,54.9c6.1,38.7-2.7,70.8-30.8,102.7    c-3.4,3.2-6.9,6.2-10.6,8.9c-38.9-2-82.2-3.8-129.3-5.4c-0.7-0.7-1.3-1.3-1.9-2C1757.8,1797.5,1750.2,1749.3,1774.8,1718.4z" clip-rule="evenodd"></path>
    </g>
    <g>
      <path fill="#fff" fill-rule="evenodd" d="M1908.8,1455.3c0.7-1.7,2.6-2.6,4.4-1.9c1.7,0.7,2.6,2.6,1.9,4.4c-3.3,8.7-6.1,17.9-8.6,27.4    c1-0.9,2-1.7,3-2.6c4.6-3.7,9.8-6.9,15.6-9.7c1.7-0.8,3.7-0.1,4.5,1.6c0.8,1.7,0.1,3.7-1.6,4.5c-5.4,2.5-10.1,5.5-14.3,8.8    c-3.9,3.2-7.4,6.7-10.3,10.6c-4.3,20.6-7.1,42.8-9.7,66.2c3.9-6.1,8.1-11.5,12.5-16.4c7.7-8.4,16.3-14.9,25.6-19.6    c1.7-0.8,3.7-0.1,4.5,1.5c0.8,1.7,0.1,3.7-1.5,4.5c-8.6,4.3-16.5,10.3-23.7,18.1c-7.1,7.8-13.6,17.3-19.3,28.5l-0.7,6.3    c-1.4,13.9-2.9,28.2-4.7,42.8c0,0.1,0,0.3-0.1,0.4c-1.8,15.3-4,30.8-6.6,46.7c7.3-11.3,15.2-21.2,23.6-29.9    c12.3-12.7,25.9-22.6,40.6-29.7c1.7-0.8,3.7-0.1,4.5,1.6c0.8,1.7,0.1,3.7-1.6,4.5c-14,6.7-26.9,16.2-38.6,28.3    c-11.7,12.1-22.4,26.9-31.9,44.3c-4.2,21-9.5,42.4-16.5,64l0,0l0,0.1l0,0c-3.4,10.6-7.3,21.3-11.7,32    c10.2-8.8,21.1-16.4,32.6-22.8c16-8.9,33.2-15.5,51.6-19.7c1.8-0.4,3.6,0.7,4.1,2.5c0.4,1.8-0.7,3.6-2.5,4.1    c-17.8,4.1-34.4,10.5-49.8,19.1c-15.2,8.5-29.4,19.2-42.4,32.1c-3.2,7.1-6.6,14.2-10.3,21.3l-7.5-0.3c12.3-23.5,21.9-46.9,29.4-70    c1.3-16.5-0.7-33-5.9-49.4c-5.2-16.7-13.8-33.4-25.7-50.2c-1.1-1.5-0.7-3.6,0.8-4.7c1.5-1.1,3.6-0.7,4.7,0.8    c12.3,17.3,21.2,34.7,26.6,52.1c3.1,9.9,5.1,19.7,6,29.6c10.1-36.6,15.8-72.4,19.9-106.6c-4-14.5-8.4-26.7-13.3-36.7    c-4.9-10-10.2-17.7-15.9-23.1c-1.4-1.3-1.4-3.4-0.1-4.8c1.3-1.4,3.4-1.4,4.8-0.1c6.3,6,12.1,14.3,17.3,25    c3.2,6.7,6.3,14.2,9.1,22.8c1-9,1.9-17.9,2.8-26.7l0.7-6.8c0-0.1,0-0.2,0-0.4C1890.3,1533.4,1895.1,1491.1,1908.8,1455.3z" clip-rule="evenodd"></path>
    </g>
    <g>
      <path fill="#c4def3" fill-rule="evenodd" d="M1888,1736.6c11.7-6.3,25.9-9.7,34.1-20.2c9.7-12.4,7.7-30.6,15.9-44.1c10.2-17,32.6-21.3,48.6-32.8    c15.7-11.3,13.6-18.3,22-35.8c12.7-26.3,49.1-50.8,74.6-29.3c25.9,21.9,9.2,47.5-4.9,66.1c-10.1,13.3-8.5,16.4-11.2,32.8    c-3.3,19.8,3.5,43.2-9.9,58.2c-8.3,9.3-22,12.1-30.4,21.2c-9.5,10.3-9.9,25.8-13.3,39.5c-4.6,18.4-12.7,33.1-25.5,45    c-33.7-2.3-72.9-4.4-116.6-6.4c-3.8-5.2-7-11-9.1-17.2C1852.7,1786.6,1861.6,1750.8,1888,1736.6z" clip-rule="evenodd"></path>
    </g>
    <g>
      <path fill="#fff" fill-rule="evenodd" d="M2059.3,1592.9c1-1,2.6-1,3.6-0.1c1,1,1,2.6,0.1,3.6c-4.9,5.1-9.6,10.6-14.1,16.6c0.9-0.3,1.9-0.6,2.8-0.9    c4.3-1.2,8.9-1.9,13.8-2.1c1.4-0.1,2.6,1,2.7,2.5c0.1,1.4-1,2.6-2.5,2.7c-4.5,0.2-8.7,0.8-12.6,1.9c-3.7,1-7.1,2.5-10.3,4.4    c-9.1,13.1-17.7,27.7-26.4,43.2c4.5-3.1,9.1-5.6,13.6-7.7c7.9-3.6,15.8-5.6,23.6-6c1.4-0.1,2.6,1,2.7,2.4c0.1,1.4-1,2.6-2.4,2.7    c-7.2,0.4-14.5,2.3-21.8,5.6c-7.3,3.3-14.6,8-21.9,14.1l-2.3,4.2c-5.1,9.3-10.4,18.8-15.9,28.5c-0.1,0.1-0.1,0.2-0.2,0.3    c-5.8,10.1-11.9,20.3-18.4,30.5c8.4-5.7,16.8-10.3,25.3-13.8c12.4-5.2,24.7-8.1,37-8.7c1.4-0.1,2.6,1,2.7,2.4    c0.1,1.4-1,2.6-2.4,2.7c-11.7,0.5-23.5,3.3-35.3,8.3c-11.8,4.9-23.5,12.1-35.4,21.4c-9.1,13.4-19.1,26.7-30.4,39.7l0,0l0,0l0,0    c-5.5,6.4-11.4,12.6-17.6,18.8c9.7-3.1,19.5-5.2,29.4-6.2c13.8-1.5,27.7-1,41.8,1.5c1.4,0.2,2.3,1.6,2.1,3c-0.2,1.4-1.6,2.3-3,2.1    c-13.6-2.4-27.1-2.9-40.3-1.5c-13.1,1.4-26.1,4.7-39,9.8c-4.8,4.5-9.9,8.8-15.1,13.1l-7.7-0.4c17.3-13.7,32.3-28.3,45.5-43.4    c5.8-11.1,9.3-23.2,10.6-36.2c1.3-13.2,0.3-27.4-3-42.6c-0.3-1.4,0.6-2.7,1.9-3c1.4-0.3,2.7,0.6,3,2c3.4,15.7,4.5,30.4,3.1,44.2    c-0.8,7.8-2.3,15.3-4.6,22.4c17.9-22.5,32.4-45.8,45.4-68.3c1.5-11.3,2.1-21.1,1.6-29.5c-0.4-8.4-1.8-15.3-4.2-20.8    c-0.6-1.3,0-2.8,1.3-3.4c1.3-0.6,2.8,0,3.4,1.3c2.6,6,4.2,13.6,4.6,22.6c0.3,5.6,0.2,11.8-0.4,18.6c3.4-6,6.6-11.9,9.9-17.7    l2.5-4.5c0-0.1,0.1-0.2,0.1-0.2C2023.2,1641.9,2039.1,1613.9,2059.3,1592.9z" clip-rule="evenodd"></path>
    </g>
    <g>
      <path fill="#fff" fill-rule="evenodd" d="M1181,893.4c-3.2,43.4-9.6,49.4-50.9,52.7c41.4,3.3,47.7,9.3,50.9,52.7c3.2-43.4,9.6-49.4,50.9-52.7    C1190.5,942.8,1184.1,936.8,1181,893.4L1181,893.4z M1349.1,1007.8c-1.7,23.2-5.1,26.4-27.2,28.1c22.1,1.8,25.5,5,27.2,28.1    c1.7-23.2,5.1-26.4,27.2-28.1C1354.2,1034.1,1350.7,1030.9,1349.1,1007.8L1349.1,1007.8z M1275.4,829.6    c-1.7,23.5-5.2,26.7-27.5,28.5c22.4,1.8,25.8,5,27.5,28.5c1.7-23.5,5.2-26.7,27.5-28.5C1280.6,856.3,1277.2,853,1275.4,829.6z" clip-rule="evenodd"></path>
    </g>
    <g>
      <path fill="#fff" fill-rule="evenodd" d="M1120,1604.5c2.6,35.1,7.7,40,41.2,42.7c-33.5,2.7-38.7,7.6-41.2,42.7c-2.6-35.1-7.7-40-41.2-42.7    C1112.3,1644.5,1117.5,1639.6,1120,1604.5L1120,1604.5z M983.8,1697.1c1.4,18.8,4.1,21.3,22,22.8c-17.9,1.4-20.7,4-22,22.8    c-1.4-18.8-4.1-21.3-22-22.8C979.7,1718.5,982.5,1715.9,983.8,1697.1L983.8,1697.1z M1043.5,1552.8c1.4,19,4.2,21.6,22.3,23.1    c-18.1,1.5-20.9,4.1-22.3,23.1c-1.4-19-4.2-21.6-22.3-23.1C1039.3,1574.4,1042.1,1571.8,1043.5,1552.8z" clip-rule="evenodd"></path>
    </g>
    <g>
      <path fill="#fff" fill-rule="evenodd" d="M1655.2,1517.9c-2,26.9-5.9,30.6-31.6,32.7c25.6,2.1,29.6,5.8,31.6,32.7c2-26.9,5.9-30.6,31.6-32.7    C1661.1,1548.5,1657.1,1544.8,1655.2,1517.9L1655.2,1517.9z M1759.4,1588.8c-1,14.4-3.2,16.3-16.9,17.4    c13.7,1.1,15.8,3.1,16.9,17.4c1-14.4,3.2-16.3,16.9-17.4C1762.6,1605.2,1760.5,1603.2,1759.4,1588.8L1759.4,1588.8z     M1713.8,1478.3c-1.1,14.5-3.2,16.6-17.1,17.7c13.9,1.1,16,3.1,17.1,17.7c1.1-14.5,3.2-16.6,17.1-17.7    C1717,1494.8,1714.8,1492.8,1713.8,1478.3z" clip-rule="evenodd"></path>
    </g>
  </g>
  <g>
    <path fill="#fff" fill-rule="evenodd" d="M902.9,862.8H1588c11.5,0,20.9,9.4,20.9,20.9V1247c0,11.5-9.4,20.9-20.9,20.9H902.9   c-11.5,0-20.9-9.4-20.9-20.9V883.7C881.9,872.2,891.4,862.8,902.9,862.8z" clip-rule="evenodd"></path>
  </g>
  <g>
    <path fill="#2570b7" fill-rule="evenodd" d="M902.9,860.2H1588c6.5,0,12.4,2.7,16.6,6.9l0,0c4.3,4.3,6.9,10.2,6.9,16.6V1247c0,6.5-2.7,12.4-6.9,16.6l0,0   l0,0c-4.3,4.3-10.2,6.9-16.6,6.9H902.9c-6.5,0-12.4-2.7-16.6-6.9l0,0c-4.3-4.3-6.9-10.2-6.9-16.6V883.7c0-6.5,2.7-12.4,6.9-16.6   C890.5,862.8,896.4,860.2,902.9,860.2L902.9,860.2z M1588,865.4H902.9c-5,0-9.6,2.1-12.9,5.4s-5.4,7.9-5.4,12.9V1247   c0,5,2.1,9.6,5.4,12.9v0c3.3,3.3,7.9,5.4,12.9,5.4H1588c5,0,9.6-2.1,12.9-5.4l0,0c3.3-3.3,5.4-7.9,5.4-12.9V883.7   c0-5-2.1-9.6-5.4-12.9h0C1597.6,867.5,1593,865.4,1588,865.4z" clip-rule="evenodd"></path>
  </g>
  <g>
    <g>
      <polygon fill="#f6fbfd" fill-rule="evenodd" points="1371.1 909.7 1542.6 909.7 1580.1 908.7 1581 939 1581 1221.1 1371.1 1221.1" clip-rule="evenodd"></polygon>
    </g>
    <g>
      <path fill="#5e9bd3" fill-rule="evenodd" d="M1419.3,973.2c-1.1,0-2-0.9-2-2c0-1.1,0.9-2,2-2h113.6c1.1,0,2,0.9,2,2c0,1.1-0.9,2-2,2H1419.3z" clip-rule="evenodd"></path>
    </g>
    <g>
      <path fill="#5e9bd3" fill-rule="evenodd" d="M1407.4,1006.1c-1.1,0-2-0.9-2-2c0-1.1,0.9-2,2-2h137.4c1.1,0,2,0.9,2,2c0,1.1-0.9,2-2,2H1407.4z" clip-rule="evenodd"></path>
    </g>
    <g>
      <path fill="#5e9bd3" fill-rule="evenodd" d="M1407.4,1026.5c-1.1,0-2-0.9-2-2c0-1.1,0.9-2,2-2h137.4c1.1,0,2,0.9,2,2c0,1.1-0.9,2-2,2H1407.4z" clip-rule="evenodd"></path>
    </g>
    <g>
      <path fill="#5e9bd3" fill-rule="evenodd" d="M1407.4,1046.9c-1.1,0-2-0.9-2-2c0-1.1,0.9-2,2-2h137.4c1.1,0,2,0.9,2,2c0,1.1-0.9,2-2,2H1407.4z" clip-rule="evenodd"></path>
    </g>
    <g>
      <path fill="#5e9bd3" fill-rule="evenodd" d="M1407.4,1067.3c-1.1,0-2-0.9-2-2c0-1.1,0.9-2,2-2h137.4c1.1,0,2,0.9,2,2c0,1.1-0.9,2-2,2H1407.4z" clip-rule="evenodd"></path>
    </g>
    <g>
      <path fill="#5e9bd3" fill-rule="evenodd" d="M1407.4,1087.7c-1.1,0-2-0.9-2-2c0-1.1,0.9-2,2-2h137.4c1.1,0,2,0.9,2,2c0,1.1-0.9,2-2,2H1407.4z" clip-rule="evenodd"></path>
    </g>
    <g>
      <path fill="#5e9bd3" fill-rule="evenodd" d="M1407.4,1108.1c-1.1,0-2-0.9-2-2c0-1.1,0.9-2,2-2h137.4c1.1,0,2,0.9,2,2c0,1.1-0.9,2-2,2H1407.4z" clip-rule="evenodd"></path>
    </g>
    <g>
      <path fill="#5e9bd3" fill-rule="evenodd" d="M1407.4,1128.5c-1.1,0-2-0.9-2-2c0-1.1,0.9-2,2-2h137.4c1.1,0,2,0.9,2,2c0,1.1-0.9,2-2,2H1407.4z" clip-rule="evenodd"></path>
    </g>
    <g>
      <path fill="#5e9bd3" fill-rule="evenodd" d="M1407.4,1148.9c-1.1,0-2-0.9-2-2c0-1.1,0.9-2,2-2h137.4c1.1,0,2,0.9,2,2c0,1.1-0.9,2-2,2H1407.4z" clip-rule="evenodd"></path>
    </g>
    <g>
      <path fill="#5e9bd3" fill-rule="evenodd" d="M1407.4,1169.3c-1.1,0-2-0.9-2-2c0-1.1,0.9-2,2-2h137.4c1.1,0,2,0.9,2,2c0,1.1-0.9,2-2,2H1407.4z" clip-rule="evenodd"></path>
    </g>
  </g>
  <g>
    <path fill="#fff" fill-rule="evenodd" d="M891.9,1288.1h325.5c5.5,0,9.9,4.5,9.9,9.9v172.6c0,5.5-4.5,9.9-9.9,9.9H891.9c-5.5,0-9.9-4.5-9.9-9.9V1298   C881.9,1292.5,886.4,1288.1,891.9,1288.1z" clip-rule="evenodd"></path>
  </g>
  <g>
    <path fill="#2570b7" fill-rule="evenodd" d="M891.9,1285.5h325.5c3.5,0,6.6,1.4,8.9,3.7l0,0c2.3,2.3,3.7,5.4,3.7,8.9v172.6c0,3.4-1.4,6.6-3.7,8.9l0,0   c-2.3,2.3-5.4,3.7-8.9,3.7H891.9c-3.4,0-6.6-1.4-8.9-3.7l0,0c-2.3-2.3-3.7-5.4-3.7-8.9V1298c0-3.5,1.4-6.6,3.7-8.9   C885.3,1286.9,888.4,1285.5,891.9,1285.5L891.9,1285.5z M1217.4,1290.7H891.9c-2,0-3.8,0.8-5.2,2.2c-1.3,1.3-2.2,3.2-2.2,5.2v172.6   c0,2,0.8,3.8,2.2,5.2v0c1.3,1.3,3.2,2.1,5.2,2.1h325.5c2,0,3.9-0.8,5.2-2.1l0,0c1.3-1.3,2.1-3.2,2.1-5.2V1298c0-2-0.8-3.9-2.1-5.2   h0C1221.2,1291.5,1219.4,1290.7,1217.4,1290.7z" clip-rule="evenodd"></path>
  </g>
  <g>
    <path fill="#fff" fill-rule="evenodd" d="M1599,1288.1h-325.5c-5.5,0-9.9,4.5-9.9,9.9v172.6c0,5.5,4.5,9.9,9.9,9.9H1599c5.5,0,9.9-4.5,9.9-9.9V1298   C1608.9,1292.5,1604.4,1288.1,1599,1288.1z" clip-rule="evenodd"></path>
  </g>
  <g>
    <path fill="#2570b7" fill-rule="evenodd" d="M1599,1290.7h-325.5c-2,0-3.8,0.8-5.2,2.2c-1.3,1.3-2.2,3.2-2.2,5.2v172.6c0,2,0.8,3.8,2.2,5.2v0   c1.3,1.3,3.2,2.1,5.2,2.1H1599c2,0,3.9-0.8,5.2-2.1l0,0c1.3-1.3,2.1-3.2,2.1-5.2V1298c0-2-0.8-3.9-2.1-5.2h0   C1602.8,1291.5,1601,1290.7,1599,1290.7L1599,1290.7z M1273.5,1285.5H1599c3.5,0,6.6,1.4,8.9,3.7l0,0c2.3,2.3,3.7,5.4,3.7,8.9   v172.6c0,3.4-1.4,6.6-3.7,8.9l0,0c-2.3,2.3-5.4,3.7-8.9,3.7h-325.5c-3.4,0-6.6-1.4-8.9-3.7l0,0c-2.3-2.3-3.7-5.4-3.7-8.9V1298   c0-3.5,1.4-6.6,3.7-8.9C1266.9,1286.9,1270,1285.5,1273.5,1285.5z" clip-rule="evenodd"></path>
  </g>
  <g>
    <g>
      <path fill="#a4ccec" fill-rule="evenodd" d="M1192.8,961l-12,7c-4.1,2.4-5.4,7.6-3.1,11.7l2.7,4.6c3.1,5.4,1.8,7.8,0.8,8.7c-2.7,2.4-5.2,5-7.6,7.6    c-0.7,0.8-3.1,3.4-9.2-0.2l-4.2-2.4c-4.1-2.4-9.3-1-11.7,3.1l-7,12c-2.4,4.1-1,9.3,3.1,11.7l4.2,2.4c5.7,3.3,5.6,5,4.9,7.5    c-1,3.3-2.1,6.7-2.8,10.1c-0.7,3.1-0.4,5.3-8.2,5.3h-4.8c-4.7,0-8.5,3.8-8.5,8.5v13.9c0,4.7,3.8,8.5,8.5,8.5h4.8    c7.8,0,7.5,2.2,8.2,5.3c0.7,3.5,1.8,6.8,2.8,10.1c0.7,2.4,0.9,4.1-4.9,7.5l-4.2,2.4c-4.1,2.4-5.4,7.6-3.1,11.7l7,12    c2.4,4.1,7.6,5.4,11.7,3.1l4.2-2.4c6.1-3.6,8.4-1,9.2-0.2c2.5,2.6,5,5.2,7.6,7.6c1,0.9,2.3,3.3-0.8,8.7l-2.7,4.6    c-2.4,4.1-1,9.3,3.1,11.7l12,7c4.1,2.4,9.3,1,11.7-3.1l2.6-4.6c3.2-5.5,6.3-5.3,7.6-4.8c3.8,1.2,7.4,2,11.3,3    c1.4,0.4,3.9,1.4,3.9,7.9v4.9c0,4.7,3.8,8.5,8.5,8.5h13.9c4.7,0,8.5-3.8,8.5-8.5v-4.9c0-6.5,2.5-7.6,3.9-7.9c4-1,7.5-1.8,11.3-3    c1.3-0.4,4.4-0.6,7.6,4.8l2.6,4.6c2.4,4.1,7.6,5.4,11.7,3.1l12-7c4.1-2.4,5.4-7.6,3.1-11.7l-2.7-4.6c-3.1-5.4-1.8-7.8-0.8-8.7    c2.7-2.4,5.2-5,7.6-7.6c0.7-0.8,3.1-3.4,9.2,0.2l4.2,2.4c4.1,2.4,9.3,1,11.7-3.1l7-12c2.4-4.1,1-9.3-3.1-11.7l-4.2-2.4    c-5.7-3.3-5.6-5-4.9-7.5c1-3.3,2.1-6.7,2.8-10.1c0.6-3.1,0.4-5.3,8.2-5.3h4.8c4.7,0,8.5-3.8,8.5-8.5v-13.9c0-4.7-3.8-8.5-8.5-8.5    h-4.8c-7.8,0-7.5-2.2-8.2-5.3c-0.7-3.5-1.8-6.8-2.8-10.1c-0.7-2.4-0.9-4.1,4.9-7.5l4.2-2.4c4.1-2.4,5.4-7.6,3.1-11.7l-7-12    c-2.4-4.1-7.6-5.4-11.7-3.1l-4.2,2.4c-6.1,3.6-8.4,1-9.2,0.2c-2.5-2.6-5-5.2-7.6-7.6c-1-0.9-2.3-3.3,0.8-8.7l2.7-4.6    c2.4-4.1,1-9.3-3.1-11.7l-12-7c-4.1-2.4-9.3-1-11.7,3.1l-2.6,4.6c-3.2,5.5-6.3,5.2-7.6,4.8c-3.8-1.2-7.4-2-11.3-3    c-1.4-0.4-3.9-1.4-3.9-7.9v-4.9c0-4.7-3.8-8.5-8.5-8.5h-13.9c-4.7,0-8.5,3.8-8.5,8.5v4.9c0,6.5-2.5,7.6-3.9,7.9    c-4,1-7.5,1.8-11.3,3c-1.3,0.4-4.4,0.6-7.6-4.8l-2.6-4.6C1202.1,960,1196.8,958.6,1192.8,961L1192.8,961z M1245.4,1047    c10.1,0,18.4,8.2,18.4,18.4c0,10.1-8.2,18.4-18.4,18.4c-10.1,0-18.4-8.2-18.4-18.4C1227.1,1055.2,1235.3,1047,1245.4,1047    L1245.4,1047z M1187.9,1065.3c0-2.2,1.8-3.9,3.9-3.9c2.2,0,3.9,1.8,3.9,3.9c0,13.7,5.6,26.2,14.6,35.1c9,9,21.4,14.6,35.1,14.6    c2.2,0,3.9,1.8,3.9,3.9c0,2.2-1.8,3.9-3.9,3.9c-15.9,0-30.3-6.4-40.7-16.9C1194.3,1095.6,1187.9,1081.2,1187.9,1065.3    L1187.9,1065.3z M1302.2,1056.1c0.3,2.1-1.1,4.1-3.3,4.5c-2.1,0.3-4.1-1.1-4.5-3.3c-1.7-10.4-6.6-19.7-13.7-26.9    c-7.1-7.2-16.4-12.2-26.8-14c-2.1-0.4-3.6-2.4-3.2-4.5c0.4-2.1,2.4-3.6,4.5-3.2c12,2.1,22.8,7.9,31,16.2    C1294.6,1033.2,1300.3,1044,1302.2,1056.1L1302.2,1056.1z M1245.4,997.1c37.7,0,68.2,30.5,68.2,68.2c0,37.7-30.5,68.2-68.2,68.2    c-37.7,0-68.2-30.5-68.2-68.2C1177.2,1027.7,1207.8,997.1,1245.4,997.1z" clip-rule="evenodd"></path>
    </g>
    <g>
      <g>
        <path fill="#88b9e3" fill-rule="evenodd" d="M1315,1064.8c0.3,38.4-30.7,69.8-69.1,70.1c-38.4,0.3-69.8-30.7-70.1-69.1c-0.3-38.4,30.7-69.8,69.1-70.1     C1283.4,995.5,1314.8,1026.4,1315,1064.8z" clip-rule="evenodd"></path>
      </g>
      <g>
        <path fill="#fff" fill-rule="evenodd" d="M1265,1032.4c0.1,11-8.7,19.9-19.7,20c-10.9,0.1-19.9-8.7-20-19.7c-0.1-11,8.7-19.9,19.7-20     C1256,1012.6,1264.9,1021.4,1265,1032.4z" clip-rule="evenodd"></path>
      </g>
      <g>
        <path fill="#fff" fill-rule="evenodd" d="M1245.4,1059.1L1245.4,1059.1c-20.3,0.1-36.7,16.7-36.5,37l0,0c0,5.3,4.4,9.6,9.7,9.6l54.3-0.4     c5.3,0,9.6-4.4,9.6-9.7l0,0C1282.3,1075.4,1265.7,1059,1245.4,1059.1z" clip-rule="evenodd"></path>
      </g>
    </g>
  </g>
  <g>
    <path fill="#a4ccec" fill-rule="evenodd" d="M990.1,1361.8h-22.5v80.9h22.5V1361.8L990.1,1361.8z M1132.9,1337.7h-22.5v105h22.5V1337.7L1132.9,1337.7z    M1097.2,1314.9h-22.5v127.8h22.5V1314.9L1097.2,1314.9z M1061.5,1305.3H1039v137.5h22.5V1305.3L1061.5,1305.3z M1025.8,1335.1   h-22.5v107.6h22.5V1335.1z" clip-rule="evenodd"></path>
  </g>
  <g>
    <rect width="22.5" height="137.5" x="1039" y="1305.3" fill="#f5916f" fill-rule="evenodd" clip-rule="evenodd"></rect>
  </g>
  <g>
    <path fill="#a4ccec" d="M1302.3,1435.8c-1,0-1.9-0.8-1.9-1.9c0-43.7,6.7-68.3,18.9-69.2c8.2-0.7,16.6,10.8,19.1,26.7   c4.3,26.7,9,34,10.8,34.1c0,0,2.4,0,5.7-10.4c5.9-19,10.8-27.3,16.4-27.9c5.3-0.6,8.9,5.7,12.5,11.9c2.8,4.7,5.9,10.1,8.6,10.1   c0,0,0,0,0.1,0c1.1,0,3.3-1,6.5-7.2c0.7-1.3,2.6-9.7,4.5-18.5c11.3-50.6,19.8-80,29.9-80c0,0,0.1,0,0.1,0   c5.8,0.1,10.1,9.5,13.8,30.4c8.3,46.9,14.8,57.5,18.8,58.2c3.4,0.6,7.6-7.2,11-13.4c4-7.3,7.4-13.6,11.9-13.1   c3.2,0.3,5.6,3.9,7.9,11.5c0.2,0.5,0.4,1.8,0.9,5c6.1,39.6,10.6,44,12.3,44.1c0.2,0,2.9-0.1,6.9-15.1c6.1-23.2,14.8-36.4,23.9-36.4   c0.1,0,0.2,0,0.3,0c9.5,0.3,17.2,14.4,22.8,41.9c0.2,1-0.5,2-1.5,2.2c-1,0.2-2-0.5-2.2-1.5c-7.1-34.8-15.8-38.8-19.2-38.9   c-7.1-0.2-15,13-20.4,33.6c-3.3,12.6-6.7,18.2-10.7,17.9c-6.2-0.3-10.6-13.6-15.8-47.3c-0.3-2.1-0.6-4.1-0.7-4.5   c-2.4-8.1-4.3-8.7-4.7-8.8c-2-0.2-5.7,6.6-8.2,11.1c-4.3,8-8.8,16.3-14.9,15.3c-5.7-0.9-12.7-8.9-22-61.2   c-4.5-25.2-8.9-27.3-10.2-27.3c0,0,0,0,0,0c-9,0-21.5,55.9-26.2,77c-2.7,11.9-4,17.7-4.9,19.4c-3.2,6.2-6.4,9.2-9.8,9.2   c-5,0.2-8.4-5.8-12-12c-2.8-4.8-6.1-10.3-8.8-10c-2,0.2-6.5,3.8-13.2,25.3c-2.9,9.3-5.9,13.3-9.5,13c-2.1-0.1-8.4-0.6-14.3-37.3   c-2.1-13.2-9.1-24-15.1-23.5c-7.4,0.6-15.4,18.1-15.4,65.5C1304.2,1434.9,1303.3,1435.8,1302.3,1435.8z"></path>
  </g>
  <g>
    <g>
      <path fill="#263c84" fill-rule="evenodd" d="M1719.3,1033.1c-8.3-3.8-14-3-17.1,2.5c2.2,13,8.3,22.6,18.4,28.8    C1717.2,1058.8,1716.8,1048.3,1719.3,1033.1z" clip-rule="evenodd"></path>
    </g>
    <g>
      <path fill="#f9af79" fill-rule="evenodd" d="M1510.5,1031.9c0,0-16.3-22.7-19.3-24c-3-1.4-17.6-0.6-20.9,1.9c-3.2,2.5-4.6,13.4-3.1,16.1    c1.5,2.7,7.9,0.4,10.6,2.2c2.7,1.8,4.3,3.9,5.8,5.6c3,3.1,9.9,8.3,9.9,8.3L1510.5,1031.9z" clip-rule="evenodd"></path>
    </g>
    <g>
      <path fill="#4189c9" fill-rule="evenodd" d="M1655.7,1103.1c0,0-72.8-8.9-87.1-19.1c-14.2-10.2-58.2-52.2-58.2-52.2l-19.9,10.9c0,0,27.4,52.2,48.8,73.8    c21.5,21.6,74.8,65,74.8,65L1655.7,1103.1z" clip-rule="evenodd"></path>
    </g>
    <g>
      <path fill="#4189c9" fill-rule="evenodd" d="M1683.8,1079.9l-35.7,67.7l-8.5,0.6l-3.8,10.8l-35.8,107.8C1600,1266.8,1580.2,1129.9,1683.8,1079.9z" clip-rule="evenodd"></path>
    </g>
    <g>
      <path fill="#5e9bd3" fill-rule="evenodd" d="M1624.3,1139.8c0,0-39.5,145.5-43.3,284.4c0,0,32.7,11.4,84.2,2.4C1716.8,1417.4,1624.3,1139.8,1624.3,1139.8    z" clip-rule="evenodd"></path>
    </g>
    <g>
      <path fill="#f9af79" fill-rule="evenodd" d="M1651.8,1107.4c29.6,9.4,80.9-15.9,80.9-15.9c0.2-0.2-5.1-2.7-11-11.6c-7-10.5-14.9-29.2-14.9-51.6    l-22.9,18.5l-15.6,12.5c0,0,0.1,7.4,1.8,20.4c0.3,2.4,0.7,4.9,1.1,7.6c0.3,2.2-0.6,4.4-2.5,5.5    C1658,1099.5,1651.8,1107.4,1651.8,1107.4z" clip-rule="evenodd"></path>
    </g>
    <g>
      <path fill="#bcdbf3" fill-rule="evenodd" d="M1609.2,1393.6c0.9,0.7,13.3,0.1,14.5,0.1c11.1-0.2,33.5-3.8,61-6.6c23.2-2.2,43.7-9.1,65.7-18.9    c2.9-1.3,9.6-4.9,9.5-8.2c-0.1-3.6-0.5-8.8-0.9-15.3c-1.6-22.7-4.3-61.8-1.6-106.8c0.5-8.4,0.7-16.7,0.8-24.9    c0.2-61.1-11.9-114.8-36.2-133c0,0-17,9.5-28.7,13.3c-11.5,3.7-17.4,2.9-23.4-1c0,0-11.6,5.8-16.6,11.2    c-11.5,12.5-20.5,29.2-26.4,53.1c-5,20.3-9.8,50-11.4,88C1614.5,1261.6,1608.4,1393,1609.2,1393.6z" clip-rule="evenodd"></path>
    </g>
    <g>
      <path fill="#ed7d57" fill-rule="evenodd" d="M1668.4,1059.3c0,0,0.1,7.4,1.8,20.4c17.2-3,36.8-30.8,36.8-30.8c-8.8-2.5-16.5-3-23-2.1L1668.4,1059.3z" clip-rule="evenodd"></path>
    </g>
    <g>
      <path fill="#f9af79" fill-rule="evenodd" d="M1652.7,1073.6c0,0,57.8,3.2,63.4-34.1c5.6-37.3,17.1-61.2-20.8-69.1c-37.9-7.9-47.5,5.2-52.4,17.2    C1638,999.6,1637.3,1070,1652.7,1073.6z" clip-rule="evenodd"></path>
    </g>
    <g>
      <path fill="#263c84" fill-rule="evenodd" d="M1709.7,1054.1c1.8,1.7,0.4-19.2,1.4-27.7c1-8.5,1-19.5-5.9-17.4c-6.9,2.1-7.2,7.6-10,4.3    c-2.8-3.2-2.9-16.7-23.3-17.7c-20.4-0.9-32.7,3.3-42.2-0.8c-9.5-4.2-19.1-19.8-19.1-19.8s11.8,6.4,15.9,8c0,0-7.1-18.3,11.2-33.2    c18.7-15.2,39.7-7.1,59,1.5c6.1,2.7,12.2,9.8,17,13.8c6.4,5.4,15.5,6.6,18.5,12.6c1.8,3.6,2.5,9,2.3,15.3    C1733.9,1013.9,1723.7,1044.7,1709.7,1054.1z" clip-rule="evenodd"></path>
    </g>
    <g>
      <path fill="#263c84" fill-rule="evenodd" d="M1517.8,1821.1c0,0-16.9,16-33.6,19c-16.7,3-35.5,9.2-36,18.7c-0.5,9.5,54.2,14.9,73.5,5.9    c28.8-13.4,31.5-9,34.9-16.1c3.4-7-2.8-26.3-2.5-28.6C1554.5,1817.4,1517.8,1821.1,1517.8,1821.1z" clip-rule="evenodd"></path>
    </g>
    <g>
      <path fill="#f9af79" fill-rule="evenodd" d="M1519.9,1813.3l-2.1,7.8c0.3,0.2,37.2,5.3,36.3-1c-0.7-5.1-1.8-10.6-1.8-10.6L1519.9,1813.3z" clip-rule="evenodd"></path>
    </g>
    <g>
      <path fill="#263c84" fill-rule="evenodd" d="M1862,1792.4c0,0-8.2,20.4-21.8,29.1c-13.7,8.7-19.6,21.3-15.9,30c3.7,8.7,46.6,4,60.3-21.3    c9.4-17.3,20.1-23.8,20.1-31.3c0-7.5-9.8-18.2-10.6-20.3C1893.2,1775.8,1862,1792.4,1862,1792.4z" clip-rule="evenodd"></path>
    </g>
    <g>
      <path fill="#f9af79" fill-rule="evenodd" d="M1858.7,1785l3.4,7.4c0.4,0,35.2-8.4,32.1-13.9c-2.5-4.3-7.3-9-7.3-9L1858.7,1785z" clip-rule="evenodd"></path>
    </g>
    <g>
      <path fill="#4361ac" fill-rule="evenodd" d="M1597.3,1408.5c0,0-83.9,135.5-99.5,168.3c-14.4,30.4-3,61.6-2,85.1c1.2,26.9,17.1,142.2,15.4,150    c-1.7,7.9,46.4,3.5,46.4,3.5s-9.8-183.3,4.5-209.6c9.5-17.6,100-135.8,106.3-128.5c6.3,7.3,75.1,115.8,84.2,137.2    c8.5,20,101.2,173.8,101.2,173.8s26.2-2,43.9-16.8c0,0-83.8-169.2-91.1-198c-3.7-14.7-39.2-117.6-65.6-184    C1727.1,1354.2,1597.3,1408.5,1597.3,1408.5z" clip-rule="evenodd"></path>
    </g>
    <g>
      <path fill="#4189c9" fill-rule="evenodd" d="M1603.5,1390.3c0,0-3.4,3.3-5.2,18.2c0,0,134.1-6.9,148.5-11.7c0,0,1.4-16.4-1.5-16.8    C1742,1379.5,1603.5,1390.3,1603.5,1390.3z" clip-rule="evenodd"></path>
    </g>
    <g>
      <path fill="#556066" fill-rule="evenodd" d="M1708.9,1375.9c0,0,2.8,16.2,3.1,20.4l6-1.1c0,0-1.7-17.1-2.6-20L1708.9,1375.9z" clip-rule="evenodd"></path>
    </g>
    <g>
      <path fill="#5e9bd3" fill-rule="evenodd" d="M1614.7,1389c0,0-3.2,15-3.5,20.7l6.6-0.4c0,0,2.4-18.8,3.2-20.7L1614.7,1389z" clip-rule="evenodd"></path>
    </g>
    <g>
      <path fill="#545b9c" fill-rule="evenodd" d="M1667.1,1380.9c0,0-19.1,2.1-25.4,3.5l0.8,19.4l25-2.4L1667.1,1380.9z" clip-rule="evenodd"></path>
    </g>
    <g>
      <path fill="#5e9bd3" fill-rule="evenodd" d="M1757.7,1412.8c-74.8,46.9-114.4,21.3-114.4,21.3c-10.9-85.6-4.9-188.9-3.5-214.1    c3.6-110.6,81.9-140.1,81.9-140.1l7.8,7l6.5,8.4l10.8,17.4l16.1,66l-3.8,47l1.2,81L1757.7,1412.8z" clip-rule="evenodd"></path>
    </g>
    <g>
      <path fill="#4189c9" fill-rule="evenodd" d="M1721.8,1079.9l-35.7,67.7l-18.3-6.7l6,18.1l-35.8,107.8C1637.9,1266.8,1618.1,1129.9,1721.8,1079.9z" clip-rule="evenodd"></path>
    </g>
    <g>
      <path fill="#263c84" fill-rule="evenodd" d="M1681,969.9c-20.2,10.2-35.9,11.1-53.2-1.6c7.9-15,10.8-30.9,53.2-31.5    C1664.9,944.6,1664.9,955.7,1681,969.9z" clip-rule="evenodd"></path>
    </g>
    <g>
      <path fill="#263c84" fill-rule="evenodd" d="M1729.5,1008.9c-8.3-3.8-14-3-17.1,2.5c2.2,13,8.3,22.6,18.4,28.8C1727.5,1034.5,1727,1024.1,1729.5,1008.9z    " clip-rule="evenodd"></path>
    </g>
    <g>
      <path fill="#263c84" fill-rule="evenodd" d="M1704.9,968.8c3.8,3.9,7.1,4.6,10.1,2.2c1.5-7.7,0.1-14.3-4.2-19.9C1711.4,954.9,1709.5,960.8,1704.9,968.8z    " clip-rule="evenodd"></path>
    </g>
    <g>
      <path fill="#263c84" fill-rule="evenodd" d="M1714.5,978.7c-5.3-0.8-7.9-3.2-7.6-6.9c5.4-5.7,11.6-8.4,18.7-8.1C1722,965.4,1718.3,970.4,1714.5,978.7z" clip-rule="evenodd"></path>
    </g>
    <g>
      <g>
        <g>
          <path fill="#f5916f" fill-rule="evenodd" d="M1724.8,1426.7L1532.6,1252c2-1.9,3.9-3.9,5.8-6c1.9-2.1,3.7-4.2,5.4-6.3l192.2,174.7      c3.4,3.1,3.7,8.4,0.6,11.8l0,0C1733.5,1429.6,1728.2,1429.8,1724.8,1426.7z" clip-rule="evenodd"></path>
        </g>
        <g>
          <path fill="#f5916f" fill-rule="evenodd" d="M1335,1257.7c57.4,52.2,145.1,49.9,199.7-3.8c2-1.9,3.9-3.9,5.8-6c1.9-2.1,3.7-4.2,5.4-6.3      c48.3-59.5,42.2-147-15.2-199.2c-59.4-54-151.4-49.6-205.5,9.8C1271.2,1111.7,1275.5,1203.7,1335,1257.7L1335,1257.7z       M1531.9,1240.2c-49.8,54.7-134.5,58.8-189.2,9c-54.7-49.8-58.8-134.5-9-189.2c49.8-54.7,134.5-58.8,189.2-9      C1577.7,1100.7,1581.7,1185.5,1531.9,1240.2z" clip-rule="evenodd"></path>
        </g>
        <g opacity=".46">
          <path fill="#e4e5e5" fill-rule="evenodd" d="M1342.7,1249.2c54.7,49.8,139.4,45.7,189.2-9c49.8-54.7,45.7-139.4-9-189.2c-54.7-49.8-139.5-45.7-189.2,9      C1284,1114.8,1288,1199.5,1342.7,1249.2z" clip-rule="evenodd"></path>
          <path fill="#f6d7bf" d="M1432.7,1284.7c-33.5,0-65.4-12.3-90.4-35l0,0c-26.6-24.2-42.2-57.3-43.9-93.2      c-1.7-35.9,10.7-70.4,34.9-97c49.9-54.9,135.3-59,190.2-9.1c26.6,24.2,42.2,57.3,43.9,93.2c1.7,35.9-10.7,70.4-34.9,97      c-24.2,26.6-57.3,42.2-93.2,43.9C1437.1,1284.7,1434.9,1284.7,1432.7,1284.7z M1432.9,1016.9c-36.3,0-72.4,14.7-98.7,43.6      c-23.9,26.3-36.2,60.4-34.5,96c1.7,35.5,17.1,68.3,43.5,92.2l0,0c26.3,23.9,60.4,36.2,96,34.5c35.5-1.7,68.3-17.1,92.3-43.5      c23.9-26.3,36.2-60.4,34.5-96c-1.7-35.5-17.1-68.3-43.5-92.2C1497,1028.3,1464.9,1016.9,1432.9,1016.9z"></path>
        </g>
        <g opacity=".35">
          <path fill="#fff" fill-rule="evenodd" d="M1407.3,1218.9l-15.8,58.6c1.7,0.6,3.5,1.1,5.2,1.6l14.2-52.9l49.1-182.7l6.2-23.2      c-1.8-0.5-3.5-0.9-5.3-1.3l-2.3,8.7L1407.3,1218.9L1407.3,1218.9z M1375.3,1271.1c-3.3-1.6-6.5-3.3-9.7-5.1l25.9-96.4      l41.3-153.4c3.7,0,7.3,0.1,11,0.4l-46.8,174L1375.3,1271.1L1375.3,1271.1z M1396.9,1190.6c-0.6-2.1-1.3-4.3-1.9-6.5      L1396.9,1190.6z" clip-rule="evenodd"></path>
        </g>
      </g>
      <g>
        <path fill="#f37637" fill-rule="evenodd" d="M1579.5,1272.6l-9.4,10.4c-2.1,2.3-1.6,6.2,1.1,8.6l241.5,222.7c2.7,2.5,6.6,2.6,8.7,0.3l9.4-10.4     c2.1-2.3,1.6-6.2-1.1-8.6l-241.5-222.7C1585.6,1270.4,1581.6,1270.3,1579.5,1272.6z" clip-rule="evenodd"></path>
      </g>
    </g>
    <g>
      <path fill="#f9af79" fill-rule="evenodd" d="M1700.5,1367.7c0,0,0.7,9.5-0.8,12.2c-9.9,18.2-19.4,15.4-5.1,38.3c0,0,6.6,9,11.1,2.3    c4.6-6.7-1.6-10.8,5.7-19.6c8.4-10.1,8.4-10.3,4.9-20.7l0.3-11L1700.5,1367.7z" clip-rule="evenodd"></path>
    </g>
    <g>
      <path fill="#4189c9" fill-rule="evenodd" d="M1714.2,1379.6c-9.1-2.3-17.7-7.1-17.7-7.1s12.6-82.8,12.8-90.8c0.1-5.2,9.9-73.3-1.2-104.1    c-10.9-30.3-0.7-76.4,18.7-82.2c0,0,37.9,8,33.4,63.3c3.4,45.3,3.8,84.3-2.9,124.2c-8.1,39.2-29.4,97.3-29.4,97.3    S1721.3,1381.4,1714.2,1379.6z" clip-rule="evenodd"></path>
    </g>
  </g>
  <g>
    <g>
      <path fill="#f9af79" fill-rule="evenodd" d="M521.5,1774.8c0,0-10,9.9-10.2,13.6c-0.2,3.6-0.9,42.6,3.2,46.2c4.1,3.6,16.1,6.2,12.2,10.3    c-2.9,3.1-25.4,2.4-40.3,1.6c-4.3-0.2-9.8-35.4-11.5-40.5c-2.5-7.5-11.5-23.8-9.2-29c1.1-2.6,9.3-8.4,16.8-13.3    c7.9-5.1,15.4-16.6,15.4-16.6L521.5,1774.8z" clip-rule="evenodd"></path>
    </g>
    <g>
      <path fill="#263c84" fill-rule="evenodd" d="M482.9,1763.3c0,0,20.9,64.4,30,67.5c2.4,0.9,16.1,4.6,18.3,9.8l0.1,0.5c0.7,3.3-2,6.3-5.4,6.3H483    c0,0-6.1-29-8.5-41.8c0,0-12.7-31.2-11.3-34C464.6,1768.7,482.9,1763.3,482.9,1763.3z" clip-rule="evenodd"></path>
    </g>
    <g>
      <path fill="#f9af79" fill-rule="evenodd" d="M655.5,1799.2l-9,25.7c-0.7,4.1-3.3,14.1-3.3,17.8c0,13.9,61.8-11.8,48-17.9c-1.3-0.6-5.2-5.1-5.6-9.8    c-0.6-7.3,5.2-16.4,5.2-16.4L655.5,1799.2z" clip-rule="evenodd"></path>
    </g>
    <g>
      <path fill="#263c84" fill-rule="evenodd" d="M639.7,1847.3l7.1-22.7c0,0,14.9,6.4,22.3,5.3c7.4-1.1,22-5.3,22-5.3c29.7,9.8,54,14.7,49.6,22.7H639.7z" clip-rule="evenodd"></path>
    </g>
    <g>
      <path fill="#3155a5" fill-rule="evenodd" d="M730.5,1305.2l11.9,65c0,0,29.7,206.5,26.9,220.5c-6.8,34.2-75.1,220.1-75.1,220.1l-43.7-5.6l48-219.9    l-80-206.6L730.5,1305.2z" clip-rule="evenodd"></path>
    </g>
    <g>
      <path fill="#4361ac" fill-rule="evenodd" d="M650.4,1341.2l-32,37.3L587,1573.9l-98.8,182.2c0,0,14.9,22.8,30.8,26.4l140.2-184.2l76-230.6l-2.7-51.2    L650.4,1341.2z" clip-rule="evenodd"></path>
    </g>
    <g>
      <path fill="#f9af79" fill-rule="evenodd" d="M881.5,1123.5c-0.6-1.9-7.1-13.8-7.1-13.8s-0.3-19.8,0.2-20.1c11-4.6,22.1,0.3,23.6,11.6l0,0.4    c0.4,21.2-10.7,40.8-28.8,50.9c-4.1,2.3-8.5,4.7-13,7.2c-0.2-8.5-1.4-16.8-4.1-24.9C868.8,1129,881.7,1124.2,881.5,1123.5z" clip-rule="evenodd"></path>
    </g>
    <g>
      <path fill="#5e9bd3" fill-rule="evenodd" d="M684.5,1125.3c0-1.1,120.1,31.3,120.1,31.3s17.5-7.3,48.5-18.3c3.2,9.6,4.7,19.6,5.2,29.7    c-28.8,16.6-37,28.2-45.2,30.3c-15.2,3.9-102.2-8.9-102.2-8.9S684.5,1126.1,684.5,1125.3z" clip-rule="evenodd"></path>
    </g>
    <g>
      <path fill="#88b9e3" fill-rule="evenodd" d="M763.1,1372.6c-0.3-1.7-3.2-82.6-22.4-149.3c-14.8-51.7-45-92.3-55.6-98c-3.9-2.1-33.2,0.4-33.2,0.4    l15.3,13.5c16.3,16.1,24.6,32.4,36.1,52.9c33.2,59.5,17.7,206.6,20.9,206.4C727.7,1398.4,764.4,1379.4,763.1,1372.6z" clip-rule="evenodd"></path>
    </g>
    <g>
      <polygon fill="#fff" fill-rule="evenodd" points="734.5 1071.2 739.5 1263.5 879.7 1248.3 876.4 1186.1 877.6 1060.5" clip-rule="evenodd"></polygon>
      <path fill="#88b9e3" d="M739.2,1263.9l0-0.3l-5-192.6l0.3,0l143.4-10.8l0,0.3l-1.1,125.6l3.3,62.5l-0.3,0L739.2,1263.9z     M734.8,1071.5l4.9,191.7l139.7-15.2l-3.3-62l1.1-125.3L734.8,1071.5z"></path>
    </g>
    <g opacity=".63">
      <polygon fill="#fff" fill-rule="evenodd" points="742.4 1263.2 879.7 1248.3 876.4 1186.1 877.6 1062.2 737.5 1072.7" clip-rule="evenodd"></polygon>
    </g>
    <g>
      <path fill="#eff8f7" fill-rule="evenodd" d="M656.4,1125.2l-38.3,2.3c0,0-10.2,12.6-10.5,12.6c-4,0.8,13.9,159.4,17.5,218.2    c3.6,58.9,18.5,42.4,18.5,42.4s40.9,15.1,78.3,3.9c38.9-11.6,25.7-60.9,25.7-60.9S723.3,1236,710,1203    C696.7,1169.9,656.4,1125.2,656.4,1125.2z" clip-rule="evenodd"></path>
    </g>
    <g>
      <path fill="#88b9e3" fill-rule="evenodd" d="M618.2,1127.5c0,0-37.1,6.1-47.3,15.4c-6.5,5.8,5.2,74.8,5.2,74.8s21.1,66.6,22.7,86.8    c5.6,68.7,2.7,131.5,6.1,133.8c19.5,7.7,87.5-2.1,90.4-10C727,1341.8,618.2,1127.5,618.2,1127.5z" clip-rule="evenodd"></path>
    </g>
    <g>
      <path fill="#f9af79" fill-rule="evenodd" d="M581.1,1215c0,0,71.5,100.2,90.8,106.7c19.2,6.4,52.7-127.7,52.7-127.7s25.3-28.2,27.4-29.1    c3.8,11.6-27.6,14.9-19.9,0.9l-7.7-16.9c9.5-14.1-3-17.3-11.1,2.1c-6.8,16.3-9.9,39-13.3,43.7l-34.8,52.2l-48.8-69.6L581.1,1215z" clip-rule="evenodd"></path>
    </g>
    <g>
      <path fill="#5e9bd3" fill-rule="evenodd" d="M701.7,1186.6l20.8,23c0,0-26.8,120.4-46.9,121.2c-20.1,0.6-89.6-96-104.6-124.2c-15.1-28-11.9-56.7,1.8-65.6    c13.7-8.9,33.8,13.2,41.9,22.7c8.2,9.6,50.4,83.3,50.4,83.3L701.7,1186.6z" clip-rule="evenodd"></path>
    </g>
    <g>
      <path fill="#f9af79" fill-rule="evenodd" d="M893.4,1100.2c0,0,0.9-4.8,0.8-7.4c-0.1-2.7-17.4-6.2-21.9-0.4C867.8,1098.2,885.1,1098.9,893.4,1100.2z" clip-rule="evenodd"></path>
    </g>
    <g>
      <path fill="#f9af79" fill-rule="evenodd" d="M895.9,1110.2c0,0,2.4-5.1,2.3-7.8c-0.1-2.7-22.7-6.1-27.2-0.3C866.5,1107.9,887.7,1108.9,895.9,1110.2z" clip-rule="evenodd"></path>
    </g>
    <g>
      <path fill="#f9af79" fill-rule="evenodd" d="M891.5,1119.3c0,0,2.4-5.2,2.3-7.9c-0.1-2.6-17.4-6.1-21.9-0.4C867.4,1116.9,883.2,1118,891.5,1119.3z" clip-rule="evenodd"></path>
    </g>
    <g>
      <path fill="#f9af79" fill-rule="evenodd" d="M718,1151.3l5-2c1.4-0.4,2.8-1.1,4.1-1.9c5.2-3.1,19.5-11.5,21.7-8.8c2.7,3.4-19.3,15.9-19.3,15.9    s24.6-12.3,26.1-7.8c1.4,4.5-23.9,15.8-23.9,15.8s22.6-8.6,23.8-6.2c1.2,2.4-24.9,19.4-24.9,19.4s21.4-13.1,24.6-10.8    c3.2,2.2-33.1,38.2-33.1,38.2L718,1151.3z" clip-rule="evenodd"></path>
    </g>
    <g>
      <path fill="#f9af79" fill-rule="evenodd" d="M891.5,1119.3c0,0-15-3-17.5,0.4c-2.6,3.4,15.1,9.6,15.1,9.6l-0.4,4.6    C888.6,1133.9,895.3,1123.6,891.5,1119.3z" clip-rule="evenodd"></path>
    </g>
    <g>
      <g>
        <path fill="#263c84" fill-rule="evenodd" d="M635.8,1046.5c0,0,3.8,51.5,6.9,71.3c1.6,10,2.4,18.1,10.1,23.3c0,0-15,5-21.2,2c0,0,1.5,1.9,2.7,2.6     c0,0-17,4.6-25.3,0.8c-12.4-4.8-38.6-151.2,15.7-151.1c0,0,46.7-15,53.7,32.6c13.6,55.3,29.1,102.2,35,111     c-4.7,4.3-19.9-2.8-22.5-6.9c-2.3-3.6-4.1-8-4.8-9c0,0,4.8,13,5.7,13.7c0,0-19.7,2.3-29.4-2.1     C652.7,1130.2,635.7,1056.6,635.8,1046.5z" clip-rule="evenodd"></path>
      </g>
      <g>
        <path fill="#263c84" fill-rule="evenodd" d="M629,1068.1c0,0-13.8-13.7-19.4-26.8c-4-9.4-7.4-46.8,30.3-50c0,0,10.8-1.4,22.3,3     c9.1,3.5,23.2,12.4,17.7,47l-0.9,11.5L629,1068.1z" clip-rule="evenodd"></path>
      </g>
      <g>
        <path fill="#f9af79" fill-rule="evenodd" d="M617,1055.8l-2.9,71.5c0,0,42.3,41.4,49.8,35.1c7.6-6.3-13.9-38.4-15-43.1c-1.1-4.8,0.9-57.1,0.9-57.1     L617,1055.8z" clip-rule="evenodd"></path>
      </g>
      <g>
        <path fill="#ed7d57" fill-rule="evenodd" d="M650.4,1122.5c-0.8-1.5-1.3-2.6-1.4-3.3c-1.1-4.8,0.9-57.1,0.9-57.1l-32.8-6.3l-1,23.7     C626.7,1101.2,639.8,1114.3,650.4,1122.5z" clip-rule="evenodd"></path>
      </g>
      <g>
        <path fill="#f9af79" fill-rule="evenodd" d="M683.1,1044.5c2.2,10.4,1.7,26.5-4.5,42.1c-11.4,28.5-54.4,17.5-60-18.1c-8.5-22.8-0.9-46.6,16.9-53.2     C653.3,1008.6,679,1020.5,683.1,1044.5z" clip-rule="evenodd"></path>
      </g>
      <g>
        <path fill="#5e9bd3" fill-rule="evenodd" d="M654.6,1119.4c9.3,17.3,12.8,28.4,13.6,35.7c0.4,3.4-0.1,6-1.5,7.6c-1.5,1.9-3.8,2.6-6.9,2     c-4.2-0.8-10.4-4.2-18.3-10.4l0,0c-6.4-4.8-15.5-13.5-26.2-23.7l-3.6-3.5l3.7-2.8l3.1,2.9c10.6,10.1,19.7,18.7,25.8,23.4l0,0     c7.4,5.7,12.9,8.9,16.4,9.6c1.3,0.2,2.1,0.1,2.5-0.4c0.6-0.7,0.7-2.1,0.5-4.3c-0.6-6.1-4.9-16.8-12.1-31     c-0.9-1.7-1.8-3.5-2.6-5.6L654.6,1119.4z" clip-rule="evenodd"></path>
      </g>
      <g>
        <path fill="#263c84" fill-rule="evenodd" d="M655.5,1006.7c25.7,8.1,20.7,18.7,29.3,29.5c0,0,1.4-24.9-12.2-35.3C658.2,989.8,655.5,1006.7,655.5,1006.7     z" clip-rule="evenodd"></path>
      </g>
      <g>
        <path fill="#263c84" fill-rule="evenodd" d="M658.3,1004.9c0,0-0.9,37.1-22.6,53.9c0,0,19.3-27.1,16.1-50.7C648.5,984.5,658.3,1004.9,658.3,1004.9z" clip-rule="evenodd"></path>
      </g>
      <g>
        <path fill="#263c84" fill-rule="evenodd" d="M664.1,1003.4c-3.3-0.7-5.3,0.1-6,2.3c1.9,4.6,4.9,7.6,9.1,9C665.4,1013,664.4,1009.2,664.1,1003.4z" clip-rule="evenodd"></path>
      </g>
      <g>
        <path fill="#263c84" fill-rule="evenodd" d="M628.3,1002.1c3.7-2,5-4.4,3.8-7.1c-5.5-2.8-10.7-3.1-15.8-1.1C619.3,994.2,623.4,996.9,628.3,1002.1z" clip-rule="evenodd"></path>
      </g>
      <g>
        <path fill="#263c84" fill-rule="evenodd" d="M658.7,1000.7c0,0-4.8,36.3-22.9,45.7c-18.1,9.4-27.6,6.1-27.6,6.1s12.1-15.1,10.4-36.3     C618.6,1016.3,645.6,987,658.7,1000.7z" clip-rule="evenodd"></path>
        <path fill="#263c84" d="M612.9,1053.5c-3.1,0-4.7-0.5-4.8-0.6l-0.4-0.1l0.3-0.3c0.1-0.1,12-15.3,10.3-36.1l0-0.1l0.1-0.1     c0.7-0.8,17.9-19.2,31.6-19.4c0,0,0.1,0,0.1,0c3.5,0,6.5,1.3,8.9,3.8l0.1,0.1l0,0.1c0,0.4-5.1,36.6-23.1,45.9     C625.2,1052.3,617.5,1053.5,612.9,1053.5z M608.7,1052.4c2,0.5,11.3,1.9,27-6.2c17.2-8.9,22.4-42.8,22.7-45.3     c-2.2-2.3-5.1-3.5-8.4-3.5c0,0-0.1,0-0.1,0c-12.9,0.1-29.7,17.6-31,19.1C620.3,1035.6,610.5,1050,608.7,1052.4z"></path>
      </g>
      <g>
        <path fill="#263c84" fill-rule="evenodd" d="M624.6,1086.9c0-0.6,0-1.2,0.1-1.7c-2.6-4.5-4.4-9.9-5.1-16.1c-5.6-3-14.8,2.8-22.8,7.3     c4.2,35.1,12.2,69.8,14.9,71.9c5.5,4.4,15.7,1.4,15.7,1.4c-0.8-0.8-1.9-2.7-1.9-2.7c4.1,3.5,13.1-0.1,13.1-0.1     c-5.2-5.7-6.5-13.8-8.3-23.7C628.7,1114.7,626.5,1100.4,624.6,1086.9z" clip-rule="evenodd"></path>
      </g>
      <g>
        <path fill="#f9af79" fill-rule="evenodd" d="M625,1066.5c1,6-1.7,11.5-6.1,12.2c-4.4,0.8-8.8-3.5-9.9-9.4c-1-6,1.7-11.5,6.1-12.2     C619.5,1056.2,623.9,1060.5,625,1066.5z" clip-rule="evenodd"></path>
      </g>
      <g>
        <path fill="#263c84" fill-rule="evenodd" d="M612.1,1050.8c4.4-5,8.4-6.2,12.2-3.5c2.4,9.3,1.2,17.6-3.7,24.7C621.2,1067.3,618.4,1060.2,612.1,1050.8z" clip-rule="evenodd"></path>
      </g>
      <g>
        <path fill="#263c84" fill-rule="evenodd" d="M669.4,1019.6c0.3-9.7,2.3-13,5.8-9.8c5.7,14.4,8.7,28.3,9.1,41.7C682.4,1043.5,677.4,1032.9,669.4,1019.6z     " clip-rule="evenodd"></path>
      </g>
      <g>
        <path fill="#263c84" fill-rule="evenodd" d="M643.9,1010.8c-5-8.3-5.2-12.1-0.5-11.4c12.6,9,22.7,19,30.3,30.1C664.3,1024.1,644.6,1018.9,643.9,1010.8z     " clip-rule="evenodd"></path>
      </g>
      <g>
        <path fill="#263c84" fill-rule="evenodd" d="M628.9,1001c-1.8-0.8-2.9-2.6-3.4-5.4c0.9-4.2,2.5-6.2,4.7-5.8C629.4,991,628.9,994.7,628.9,1001z" clip-rule="evenodd"></path>
      </g>
      <g>
        <path fill="#5e9bd3" fill-rule="evenodd" d="M662.7,1158.7c2.4-1,5.4,1,6.9,4.4c1.4,3.4,0.7,7-1.7,8c-2.4,1-5.4-1-6.9-4.4     C659.6,1163.2,660.3,1159.7,662.7,1158.7z" clip-rule="evenodd"></path>
      </g>
      <g>
        <path fill="#5e9bd3" fill-rule="evenodd" d="M668,1168.9c1.5-0.6,3.3,0.6,4.2,2.7c0.9,2.1,0.4,4.3-1,4.9c-1.5,0.6-3.3-0.6-4.2-2.7     C666.1,1171.8,666.5,1169.6,668,1168.9z" clip-rule="evenodd"></path>
      </g>
      <g>
        <path fill="#5e9bd3" fill-rule="evenodd" d="M671,1175.4c1.3-0.5,2.9,0.5,3.7,2.4c0.8,1.9,0.4,3.8-0.9,4.3c-1.3,0.5-2.9-0.5-3.7-2.4     C669.3,1177.9,669.7,1176,671,1175.4z" clip-rule="evenodd"></path>
      </g>
    </g>
  </g>
  <g>
    <g>
      <polygon fill="#f6fbfd" fill-rule="evenodd" points="921.9 892.2 1051.5 892.2 1079.8 891.4 1080.5 914.4 1080.5 1127.6 921.9 1127.6" clip-rule="evenodd"></polygon>
    </g>
    <g>
      <path fill="#5e9bd3" fill-rule="evenodd" d="M958.3,940.3c-0.8,0-1.5-0.7-1.5-1.5c0-0.8,0.7-1.5,1.5-1.5h85.9c0.8,0,1.5,0.7,1.5,1.5    c0,0.8-0.7,1.5-1.5,1.5H958.3z" clip-rule="evenodd"></path>
    </g>
    <g>
      <path fill="#5e9bd3" fill-rule="evenodd" d="M949.3,965.1c-0.8,0-1.5-0.7-1.5-1.5s0.7-1.5,1.5-1.5h103.9c0.8,0,1.5,0.7,1.5,1.5s-0.7,1.5-1.5,1.5H949.3z" clip-rule="evenodd"></path>
    </g>
    <g>
      <path fill="#5e9bd3" fill-rule="evenodd" d="M949.3,980.5c-0.8,0-1.5-0.7-1.5-1.5c0-0.8,0.7-1.5,1.5-1.5h103.9c0.8,0,1.5,0.7,1.5,1.5    c0,0.8-0.7,1.5-1.5,1.5H949.3z" clip-rule="evenodd"></path>
    </g>
    <g>
      <path fill="#5e9bd3" fill-rule="evenodd" d="M949.3,995.9c-0.8,0-1.5-0.7-1.5-1.5c0-0.8,0.7-1.5,1.5-1.5h103.9c0.8,0,1.5,0.7,1.5,1.5    c0,0.8-0.7,1.5-1.5,1.5H949.3z" clip-rule="evenodd"></path>
    </g>
    <g>
      <path fill="#5e9bd3" fill-rule="evenodd" d="M949.3,1011.4c-0.8,0-1.5-0.7-1.5-1.5c0-0.8,0.7-1.5,1.5-1.5h103.9c0.8,0,1.5,0.7,1.5,1.5    c0,0.8-0.7,1.5-1.5,1.5H949.3z" clip-rule="evenodd"></path>
    </g>
    <g>
      <path fill="#5e9bd3" fill-rule="evenodd" d="M949.3,1026.8c-0.8,0-1.5-0.7-1.5-1.5c0-0.8,0.7-1.5,1.5-1.5h103.9c0.8,0,1.5,0.7,1.5,1.5    c0,0.8-0.7,1.5-1.5,1.5H949.3z" clip-rule="evenodd"></path>
    </g>
    <g>
      <path fill="#5e9bd3" fill-rule="evenodd" d="M949.3,1042.2c-0.8,0-1.5-0.7-1.5-1.5c0-0.8,0.7-1.5,1.5-1.5h103.9c0.8,0,1.5,0.7,1.5,1.5    c0,0.8-0.7,1.5-1.5,1.5H949.3z" clip-rule="evenodd"></path>
    </g>
    <g>
      <path fill="#5e9bd3" fill-rule="evenodd" d="M949.3,1057.6c-0.8,0-1.5-0.7-1.5-1.5c0-0.8,0.7-1.5,1.5-1.5h103.9c0.8,0,1.5,0.7,1.5,1.5    c0,0.8-0.7,1.5-1.5,1.5H949.3z" clip-rule="evenodd"></path>
    </g>
    <g>
      <path fill="#5e9bd3" fill-rule="evenodd" d="M949.3,1073.1c-0.8,0-1.5-0.7-1.5-1.5c0-0.8,0.7-1.5,1.5-1.5h103.9c0.8,0,1.5,0.7,1.5,1.5    c0,0.8-0.7,1.5-1.5,1.5H949.3z" clip-rule="evenodd"></path>
    </g>
    <g>
      <path fill="#5e9bd3" fill-rule="evenodd" d="M949.3,1088.5c-0.8,0-1.5-0.7-1.5-1.5c0-0.8,0.7-1.5,1.5-1.5h103.9c0.8,0,1.5,0.7,1.5,1.5    c0,0.8-0.7,1.5-1.5,1.5H949.3z" clip-rule="evenodd"></path>
    </g>
  </g>
  <g>
    <path fill="#f5916f" fill-rule="evenodd" d="M942.1,1154.4h118.3c10.4,0,18.9,8.5,18.9,18.9v34.7c0,10.4-8.5,18.9-18.9,18.9H942.1   c-10.4,0-18.9-8.5-18.9-18.9v-34.7C923.2,1162.9,931.7,1154.4,942.1,1154.4z" clip-rule="evenodd"></path>
  </g>
  <g>
    <path fill="#fff" fill-rule="evenodd" d="M945.3,1186.3c3,0,5.5,2.5,5.5,5.5s-2.5,5.5-5.5,5.5c-3,0-5.5-2.5-5.5-5.5S942.2,1186.3,945.3,1186.3   L945.3,1186.3z M1057.1,1186.3c3,0,5.5,2.5,5.5,5.5s-2.5,5.5-5.5,5.5c-3,0-5.5-2.5-5.5-5.5S1054.1,1186.3,1057.1,1186.3   L1057.1,1186.3z M1029.2,1186.3c3,0,5.5,2.5,5.5,5.5s-2.5,5.5-5.5,5.5c-3,0-5.5-2.5-5.5-5.5S1026.1,1186.3,1029.2,1186.3   L1029.2,1186.3z M1001.2,1186.3c3,0,5.5,2.5,5.5,5.5s-2.5,5.5-5.5,5.5c-3,0-5.5-2.5-5.5-5.5S998.2,1186.3,1001.2,1186.3   L1001.2,1186.3z M973.2,1186.3c3,0,5.5,2.5,5.5,5.5s-2.5,5.5-5.5,5.5c-3,0-5.5-2.5-5.5-5.5S970.2,1186.3,973.2,1186.3z" clip-rule="evenodd"></path>
  </g>
  <g>
    <g>
      <path fill="#d2deec" fill-rule="evenodd" d="M1279,1571.1c17.9,16.3,10.1,32.7-3.1,63c-13.2,30.4-15.6,142.4-15.6,142.4l10.9-1.6    c0,0-1.6-115.2,13.2-146.3c14.8-31.1,21-46.7,34.2-36.6C1332,1602.2,1279,1571.1,1279,1571.1z" clip-rule="evenodd"></path>
    </g>
    <g>
      <path fill="#c4def3" fill-rule="evenodd" d="M1269.2,1549.9c2.2-9.7,15.1-20.2,32.3-29.1c-2.6,14.3-10.8,37.6-2.3,42.4c11.5,6.5,1.1-26.2,5.5-44.1    c16.2-7.9,35.7-14.4,53.7-17.6c0,0.1-0.1,0.1-0.1,0.2c-10.1,25.7-23.3,35.8-17.9,39.7c4.1,2.9,17.4-26.7,35.1-41.9    c13.2-0.7,24.4,1.1,31,6.3c10.2,8.1,17.1,15.3,6.8,40c-5.9,4.2-13.5,7.2-22.3,8.1c-23.3,2.3-34.2,3.1-17.9,10.9    c8,3.8,21.4-0.2,32.3-2.7c-3.5,6.5-7.9,13.9-13.1,22.2c-3.4,5.3-7,9.9-10.9,13.9c-7.5,1.4-14.1,1.5-17.6,0    c-10.9-4.7-38.9-19.5-45.9-13.2c-6.9,6.1,51.9,10,47.8,25.4c-28.5,16.4-61.1,8.6-66.8-6.5    C1291.2,1583.8,1262.7,1579,1269.2,1549.9z" clip-rule="evenodd"></path>
    </g>
    <g>
      <path fill="#d2deec" fill-rule="evenodd" d="M1328.1,1660.6c-31.1-23.4-63-1.6-79.4,23.3c-16.3,24.9-4.7,80.9-4.7,80.9s6.2,0,6.2-2.3    c0-2.3-17.1-66.2,23.3-95c25.3-18,43.6-9.3,45.9-0.8c2.3,8.6-10.1,24.1-10.1,24.1L1328.1,1660.6z" clip-rule="evenodd"></path>
    </g>
    <g>
      <path fill="#d2deec" fill-rule="evenodd" d="M1256.5,1612.6c31.1,0,41.3,48.3,32.7,76.3c-8.6,28-20.2,80.2-20.2,80.2l-7.8-7.8c0,0,29.6-73.2,22.6-105.8    c-7-32.7-24.1-38.1-27.2-38.1C1253.4,1617.2,1256.5,1612.6,1256.5,1612.6z" clip-rule="evenodd"></path>
    </g>
    <g>
      <path fill="#d2deec" fill-rule="evenodd" d="M1282.6,1689.1c2.2-2.9,4.9-5.3,8.2-6.9c-0.4,2.3-1,4.6-1.6,6.7c-3.9,12.8-8.4,30.5-12.2,46.1    c-0.3-2-0.9-5.1-1.7-9.8c-0.2-1.1-0.3-2.3-0.5-3.6C1277.8,1711.1,1280.7,1699.8,1282.6,1689.1z" clip-rule="evenodd"></path>
    </g>
    <g>
      <path fill="#c4def3" fill-rule="evenodd" d="M1291.1,1689.3c59.1-24.9,28-59.1,80.1-36.5c3.7,1.6,8.1,5.6,12.6,11.1c-4.6,1.3-10.3,2.3-16.5,1.3    c-15.6-2.3-10.1,10.1,15.6,13.2c4.8,0.6,8.8,1.4,12,2.5c12.2,23.5,17.8,54.4-8.1,65.2c-5.1,2.1-11.4,3.3-18.4,3.8    c-8-6.4,2-43.1-10.4-38c-11.8,4.9,3.7,31.5,1.6,38.2c-11.7-0.2-24.6-2.1-36.9-5.2c-4.9-2.7-8.6-6.4-9.8-11.2    c-3.9-16.3,21.8-26.5,22.6-40.5c0.7-12.9-9.4,28.3-36.2,34.4C1274.9,1716.3,1263.4,1700.9,1291.1,1689.3z" clip-rule="evenodd"></path>
    </g>
    <g>
      <path fill="#c4def3" fill-rule="evenodd" d="M1248.9,1645.3c6.2-13.2-10.1-16.3-9.3-6.2c0.7,9,0.8,30.8-8.4,36.7c-15.9-1.7-37.4-8.1-53.7-17.8    c-0.2-1.3,0-2.7,0.7-4.1c7-14,52.1-25.7,38.1-30.3c-11.1-3.7-30.7,18.2-46.5,29.3c-9.5-7.2-15.8-15.7-15.8-25.3    c0-12.9,15.7-27.6,36-34.6c9.1,0.9,17.6,5.9,30.9,13.4c19.6,11.1,15.1-6.9-3.5-17.5c16,0.8,31.9,7.7,43.7,24c0,0-1.1,7,6.3,17.8    c20.1,29.4-3.1,46.6-30.9,45.5C1238.1,1668.4,1244.6,1654.4,1248.9,1645.3z" clip-rule="evenodd"></path>
    </g>
    <g>
      <path fill="#d2deec" fill-rule="evenodd" d="M1326.2,1659.2c15.2,11.8,32.1,25.5,52.9,34.9c20.8,9.3,16.6,39.8,16.6,39.8s3.1-26.3-14.2-35.3    c-17.3-9-28.7-19.7-41.8-21.8c-13.2-2.1-20.4-4.2-20.4-4.2s4.2-8.3,1.7-11.4C1318.5,1658.1,1326.2,1659.2,1326.2,1659.2z" clip-rule="evenodd"></path>
    </g>
    <g>
      <path fill="#d2deec" fill-rule="evenodd" d="M1401.2,1521.1c-55.7,14.9-96.5,50.5-104.1,59.2c-7.6,8.6-7.6,11.1-7.6,11.1l5.9,11.1l2.8-1.4    c0,0-4.5-9.3,7.3-21.4c20.3-20.9,45-37.4,61.9-44.6C1384.3,1527.7,1401.2,1521.1,1401.2,1521.1z" clip-rule="evenodd"></path>
    </g>
    <g>
      <path fill="#d2deec" fill-rule="evenodd" d="M1247.5,1829.4h21.3c15.1,0,27.4-12.3,27.4-27.4v-48.9h-76.1v48.9C1220.1,1817.1,1232.3,1829.4,1247.5,1829.4    z" clip-rule="evenodd"></path>
    </g>
    <g>
      <rect width="76.1" height="5.4" x="1220.1" y="1761.9" fill="#fff" fill-rule="evenodd" clip-rule="evenodd"></rect>
    </g>
    <g>
      <rect width="76.1" height="3.1" x="1220.1" y="1771.6" fill="#fff" fill-rule="evenodd" clip-rule="evenodd"></rect>
    </g>
  </g>
</svg>
